<svg width="42" height="35" viewBox="0 0 42 35" fill="none" xmlns="http://www.w3.org/2000/svg">
<path d="M39.7767 31.9001C37.1519 32.1953 34.473 32.585 31.8225 32.6647C28.6418 32.7622 25.4972 32.1747 22.3346 31.9326C19.2466 31.6964 16.1946 32.0684 13.1143 32.0743C12.085 32.0743 11.0556 32.0743 10.0263 32.0743C9.051 32.0743 8.07828 32.1481 7.10298 32.151C6.15323 32.1849 5.20328 32.0918 4.27231 31.8735C3.56206 31.6787 2.85439 31.1945 2.67426 30.3649C2.55331 29.8158 2.67426 29.2401 2.62536 28.6821C2.55672 28.1812 2.4526 27.6875 2.314 27.206C2.05666 26.1284 1.77359 25.0597 1.72984 23.9408C1.70668 23.3739 1.72984 22.8071 1.72984 22.2403C1.72984 21.6734 1.72984 21.1095 1.75815 20.5456C1.78645 19.9818 1.83793 19.4385 1.8791 18.8865C1.92028 18.3344 1.91254 17.7321 1.946 17.1564C2.00776 16.0346 2.20334 14.9127 2.08754 13.7879C2.03608 13.2535 1.90998 12.7369 1.83021 12.2084C1.75473 11.65 1.73057 11.084 1.75815 10.5197C1.7916 7.3106 1.84307 4.11033 1.93571 0.898254H1.61404C1.3904 2.52243 1.30422 4.16762 1.35671 5.81084C1.37729 10.8651 1.39531 15.9224 1.44163 20.9767C1.46994 24.3511 0.849761 31.1886 4.68919 32.464C5.64132 32.7799 6.65522 32.7858 7.65111 32.7887C17.7515 32.8123 27.9522 33.5534 38.0371 32.8242C38.8091 32.771 40.1859 32.7297 40.541 31.8824C40.2868 31.847 40.0295 31.8529 39.7767 31.9001Z" fill="#000"/>
<path d="M28.0588 33.2904C24.5436 33.2904 21.0361 33.2019 17.5879 33.1133C14.3171 33.0277 10.9358 32.9421 7.62389 32.9362C6.63058 32.9362 5.60381 32.9362 4.62851 32.6055C1.15965 31.4541 1.22913 25.9688 1.28317 22.3405C1.28317 21.8474 1.28317 21.3869 1.28317 20.9795C1.23685 15.872 1.21883 10.7587 1.19824 5.81066C1.19824 4.0393 1.19824 2.43917 1.47102 0.871509L1.50447 0.753418H2.06803V0.906935C1.98569 3.69979 1.93165 6.66682 1.89047 10.5254V10.6672C1.86891 11.1745 1.89307 11.683 1.96253 12.1846C1.99084 12.3588 2.02685 12.533 2.06031 12.7042C2.13382 13.0568 2.19138 13.4135 2.23273 13.773C2.28493 14.5754 2.26337 15.3818 2.1684 16.1791C2.13752 16.5097 2.10921 16.8374 2.0912 17.1681C2.07576 17.422 2.0706 17.6788 2.06288 17.9327C2.06288 18.2486 2.05002 18.5763 2.02429 18.9011C2.01142 19.0782 1.99597 19.2524 1.98053 19.4295C1.94965 19.7985 1.9162 20.1794 1.90334 20.5543C1.89047 20.8732 1.88789 21.192 1.88532 21.5109C1.88532 21.7559 1.88532 22.0009 1.88532 22.246C1.86988 22.7715 1.85444 23.3649 1.88532 23.9376C1.95877 24.9223 2.12706 25.8946 2.38712 26.8368L2.4669 27.1704C2.49263 27.2767 2.52094 27.3829 2.54667 27.4922C2.65508 27.8773 2.73429 28.2724 2.78341 28.6731C2.79756 28.9139 2.79756 29.1556 2.78341 29.3964C2.75796 29.71 2.77183 30.0261 2.8246 30.3352C3.03304 31.2829 3.94399 31.6313 4.32742 31.7346C5.23549 31.9481 6.16208 32.0402 7.08863 32.0092H7.12722C7.68049 32.0092 8.24148 31.9885 8.78703 31.9708C9.20648 31.956 9.62852 31.9413 10.0505 31.9353C10.7556 31.9353 11.4607 31.9353 12.1658 31.9353H13.1514C14.3043 31.9353 15.4674 31.8763 16.61 31.8232C18.5321 31.6941 20.4589 31.6833 22.382 31.7907C23.4474 31.8734 24.5282 31.9944 25.5729 32.1125C27.6316 32.3457 29.7546 32.5908 31.857 32.5258C33.9594 32.4609 36.1108 32.2011 38.19 31.9501L39.8009 31.7582H39.873C40.1043 31.7213 40.339 31.7213 40.5704 31.7582L40.7376 31.7907L40.6656 31.9649C40.3002 32.8506 39.0367 32.9273 38.2029 32.9834H38.0537C34.7212 33.2107 31.3861 33.2904 28.0588 33.2904ZM3.82048 31.8734C4.09719 32.0687 4.39589 32.2197 4.70828 32.3221C5.64241 32.638 6.65116 32.638 7.62389 32.638C10.9383 32.638 14.3146 32.7325 17.593 32.8151C24.2991 32.9864 31.2317 33.1635 38.0022 32.6764H38.1514C38.8102 32.6321 39.8704 32.5612 40.2899 32.0151C40.1471 32.0149 40.0045 32.0248 39.8627 32.0446H39.7907L38.1823 32.2365C36.0979 32.4874 33.944 32.7502 31.8261 32.8269C29.7158 32.8406 27.6067 32.7035 25.5112 32.4166C24.4819 32.2955 23.3908 32.1745 22.328 32.0948C20.4143 31.9874 18.4969 31.9982 16.5842 32.1272C15.4494 32.1804 14.2682 32.2335 13.1154 32.2365H12.1298C11.4273 32.2365 10.7222 32.2365 10.0171 32.2365C9.59764 32.2365 9.17818 32.2571 8.75872 32.2719C8.21317 32.2926 7.64704 32.3103 7.0912 32.3132C6.13149 32.341 5.17217 32.242 4.23221 32.018C4.0922 31.9808 3.95462 31.9325 3.82048 31.8734ZM1.7052 1.04865C1.49088 2.62439 1.40473 4.21958 1.44786 5.81362C1.46588 10.7587 1.48645 15.875 1.5302 20.9795C1.5302 21.3898 1.5302 21.8504 1.5302 22.3464C1.49932 24.7908 1.45557 28.0944 2.51064 30.2673C2.47552 29.9739 2.46776 29.677 2.48749 29.3816C2.50297 29.1556 2.50297 28.9286 2.48749 28.7026C2.44168 28.3151 2.36678 27.9328 2.26361 27.5601C2.2353 27.4508 2.20699 27.3446 2.18126 27.2353L2.10149 26.9047C1.83558 25.9454 1.66297 24.9552 1.58682 23.9524C1.56366 23.3619 1.58682 22.7715 1.58682 22.2401C1.58682 21.998 1.58682 21.753 1.58682 21.5109C1.58682 21.1891 1.58682 20.8643 1.60483 20.5455C1.62027 20.1617 1.65373 19.7749 1.68461 19.4029C1.70005 19.2288 1.71548 19.0546 1.72835 18.8804C1.75151 18.5645 1.75924 18.2397 1.76696 17.9268C1.76696 17.67 1.76695 17.4102 1.79268 17.1504C1.8107 16.8197 1.84158 16.4861 1.87246 16.1525C1.96467 15.3758 1.98623 14.5902 1.93679 13.8084C1.89583 13.4598 1.83914 13.1139 1.76696 12.7721C1.7335 12.595 1.70005 12.4208 1.66917 12.2437C1.59632 11.7216 1.57046 11.1923 1.59197 10.6642V10.5254C1.63314 6.73177 1.68718 3.80312 1.76696 1.0516L1.7052 1.04865Z" fill="#000"/>
<path d="M40.6625 32.2042L40.4437 32.2455C40.2121 32.2957 39.9831 32.2957 39.7489 32.3253C39.5373 32.3615 39.3282 32.4158 39.1236 32.4876C38.9126 32.5412 38.6957 32.5581 38.4803 32.5378C38.2237 32.5105 37.9659 32.4997 37.7083 32.5053C37.487 32.5236 37.267 32.5581 37.0495 32.6087C36.5632 32.6855 36.0735 32.7299 35.5827 32.7415C35.0912 32.7829 34.6022 32.8419 34.1107 32.8773C33.6192 32.9128 33.2332 33.1135 32.7726 33.1106C32.312 33.1076 31.7844 33.084 31.2878 33.0928C30.7911 33.1017 30.225 33.1194 29.6949 33.1194C29.2 33.1442 28.7042 33.1214 28.2127 33.0515C27.7366 32.96 27.2811 32.7829 26.8025 32.715C26.3238 32.647 25.8092 32.6205 25.3151 32.5585C24.818 32.5083 24.3188 32.4906 23.8199 32.5053C23.3259 32.5053 22.8369 32.3843 22.3454 32.3371C21.8539 32.2898 21.3315 32.3134 20.8271 32.3134H19.2831C18.7682 32.2924 18.2526 32.3071 17.7392 32.3577C17.2354 32.4438 16.7275 32.4931 16.2183 32.5053C15.1701 32.5053 14.1227 32.5053 13.0762 32.5053C12.0469 32.5053 11.0176 32.5053 9.98823 32.5053C9.01294 32.5201 8.03764 32.5791 7.06234 32.5821C6.1126 32.6158 5.16266 32.5227 4.23167 32.3046C3.52142 32.1097 2.81634 31.6256 2.63363 30.796C2.51268 30.2468 2.63363 29.6712 2.58474 29.1132C2.5161 28.6122 2.41196 28.1186 2.27336 27.637C2.01602 26.5595 1.73295 25.4907 1.6892 24.3718C1.66604 23.805 1.6892 23.2381 1.6892 22.6713C1.6892 22.1045 1.68922 21.5406 1.71752 20.9767C1.74583 20.4128 1.79729 19.8696 1.84104 19.3175C1.88478 18.7655 1.87192 18.1632 1.90537 17.5845C1.9697 16.4656 2.1627 15.3438 2.0469 14.2189C1.99543 13.6846 1.86934 13.1679 1.78957 12.6395C1.7153 12.0809 1.69117 11.515 1.71752 10.9508C1.74068 8.66276 1.68922 6.37475 1.71752 4.08673C1.72987 3.01441 1.83067 1.94584 2.0186 0.895325H1.52966C1.48334 1.16989 1.44474 1.44445 1.40614 1.71606C1.3273 2.27614 1.27662 2.84095 1.25432 3.40771C1.208 4.57091 1.23116 5.74001 1.23116 6.90616C1.23116 8.07231 1.23116 9.30045 1.23116 10.4991C1.20887 11.0806 1.21488 11.6631 1.24917 12.2439C1.30321 12.8048 1.44474 13.3451 1.52966 13.9001C1.70979 15.0544 1.52966 16.2265 1.4396 17.3808C1.401 17.9713 1.41386 18.5381 1.37526 19.1168C1.33666 19.6954 1.27233 20.2504 1.2466 20.8202C1.22086 21.39 1.22858 21.9805 1.21314 22.5621C1.1977 23.1437 1.18226 23.743 1.21314 24.3128C1.2961 25.4554 1.49208 26.5836 1.79729 27.6754C1.95219 28.1858 2.06085 28.7131 2.12154 29.249C2.14985 29.8129 2.0572 30.3797 2.17814 30.9377C2.36085 31.7732 2.9836 32.3548 3.68612 32.6618C4.52246 33.0308 5.50806 33.0722 6.39843 33.1017C7.42777 33.1342 8.43908 33.0781 9.45812 33.0486C11.594 32.9866 13.7376 33.0161 15.876 33.0308C16.3869 33.0407 16.8977 33.0091 17.4046 32.9364C17.9245 32.8642 18.4481 32.8316 18.9718 32.8389C20.0268 32.8389 21.0922 32.7888 22.1447 32.8389C22.6594 32.8685 23.1535 32.9984 23.6604 33.022C23.946 33.022 24.2291 33.0043 24.5122 33.0043C24.7541 33.0043 24.9985 33.0397 25.2404 33.0692C25.7551 33.1312 26.2698 33.1548 26.7844 33.2316C27.2991 33.3084 27.7572 33.5032 28.2564 33.58C28.7692 33.6412 29.2852 33.661 29.8004 33.639C30.3331 33.639 30.8632 33.6213 31.3933 33.6124C31.9234 33.6036 32.4072 33.642 32.9116 33.6302C33.15 33.6208 33.3862 33.5751 33.6141 33.4944C33.8381 33.429 34.0676 33.3914 34.2986 33.3822C34.8133 33.3408 35.3073 33.2818 35.8117 33.2464C36.3013 33.2321 36.7896 33.1808 37.2734 33.0928C37.7881 32.9866 38.2641 33.0928 38.7762 33.0663C39.0129 33.0507 39.2471 33.0021 39.4736 32.9216C39.6884 32.8659 39.9072 32.8323 40.1272 32.8212C40.3408 32.8006 40.5544 32.7622 40.768 32.7209C40.7268 32.5526 40.6959 32.3784 40.6625 32.2042Z" fill="#000"/>
<path d="M29.2777 33.7984C28.9278 33.8042 28.5779 33.7835 28.2304 33.7364C27.973 33.6951 27.7286 33.6272 27.4867 33.5593C27.2468 33.4862 27.0037 33.4281 26.7584 33.3851C26.4651 33.3408 26.1588 33.3142 25.8655 33.2876C25.6493 33.2699 25.4357 33.2493 25.2221 33.2227H25.1372C24.9281 33.1917 24.7176 33.1739 24.5067 33.1696C24.3858 33.1696 24.2648 33.1696 24.1465 33.1696C23.9843 33.1696 23.8171 33.1843 23.6498 33.1696C23.3925 33.1696 23.1352 33.1164 22.8778 33.078C22.6205 33.0397 22.3863 33.0013 22.1418 32.9865C21.4522 32.9481 20.7419 32.9599 20.0574 32.9718C19.6972 32.9718 19.3318 32.9718 18.9766 32.9718C18.4607 32.9627 17.9448 32.9943 17.4326 33.0662C16.9206 33.1401 16.4046 33.1717 15.8886 33.1607H14.9828C13.1815 33.1607 11.3055 33.1341 9.47327 33.1873L8.75789 33.2079C7.98588 33.2345 7.19329 33.264 6.40585 33.2375C5.57208 33.2109 4.53502 33.1784 3.65237 32.7917C2.8186 32.4256 2.23961 31.7584 2.06462 30.9642C2.00041 30.5971 1.9805 30.2216 2.00544 29.8482C2.00544 29.6504 2.00544 29.4467 2.00544 29.2578C1.9711 28.8552 1.89508 28.4588 1.77898 28.0769C1.7481 27.9529 1.71465 27.8289 1.68635 27.7078L1.65547 27.5839C1.36227 26.5212 1.17493 25.4238 1.09704 24.3127C1.07645 23.7488 1.09704 23.1791 1.09704 22.627V22.5502C1.09704 22.3199 1.09704 22.0897 1.09704 21.8594C1.09704 21.514 1.09705 21.1567 1.12021 20.8054C1.14337 20.4541 1.16652 20.1323 1.19483 19.8046C1.21284 19.5684 1.23343 19.3352 1.24887 19.099C1.26946 18.8038 1.27461 18.5263 1.28233 18.2458C1.29005 17.9653 1.28233 17.6553 1.31321 17.3601C1.34409 17.0649 1.35696 16.8258 1.38012 16.5571C1.49544 15.682 1.50409 14.7927 1.40584 13.9148C1.37239 13.6993 1.33121 13.4867 1.29004 13.2742C1.21701 12.9377 1.16117 12.5966 1.12278 12.2527C1.0894 11.8336 1.08166 11.4124 1.09962 10.9921C1.09962 10.8238 1.09962 10.6555 1.09962 10.4902C1.09962 9.69011 1.09962 8.89299 1.09962 8.09293V6.89725C1.09962 6.60203 1.09962 6.3068 1.09962 6.02633C1.09962 5.16132 1.09961 4.25497 1.12792 3.3929C1.14847 2.82013 1.19918 2.2493 1.27975 1.68354L1.30548 1.50935C1.33379 1.29088 1.36467 1.07537 1.40327 0.859852L1.42128 0.74176H2.17527L2.14439 0.918896C1.95788 1.95765 1.85793 3.01441 1.84589 4.07488C1.8253 5.30303 1.83302 6.55184 1.84589 7.75932C1.84589 8.80147 1.84589 9.87905 1.84589 10.9389V11.0865C1.82433 11.5939 1.84847 12.1024 1.91794 12.604C1.94882 12.7782 1.98227 12.9524 2.01573 13.1266C2.08947 13.4781 2.14702 13.8338 2.18813 14.1923C2.24033 14.9947 2.21877 15.8012 2.1238 16.5984C2.09292 16.9291 2.06462 17.2568 2.0466 17.5874C2.03116 17.8413 2.02602 18.0982 2.02088 18.3521C2.02088 18.668 2.00543 18.9957 1.97969 19.3204C1.96683 19.4976 1.95139 19.6718 1.93595 19.8489C1.90507 20.2179 1.87162 20.5988 1.85876 20.9737C1.84589 21.2926 1.84331 21.6114 1.84074 21.9302C1.84074 22.1753 1.84074 22.4203 1.84074 22.6654C1.8253 23.1879 1.81243 23.7784 1.84074 24.357C1.91748 25.3434 2.09011 26.3168 2.35541 27.2591L2.43518 27.5898C2.45834 27.696 2.48665 27.8023 2.51238 27.9116C2.62079 28.2966 2.70001 28.6917 2.74914 29.0925C2.76456 29.3332 2.76456 29.575 2.74914 29.8158C2.72368 30.1294 2.73754 30.4455 2.7903 30.7546C2.99874 31.7023 3.91229 32.0506 4.29314 32.154C5.21423 32.3677 6.15359 32.4598 7.09292 32.4285C7.64619 32.4285 8.20976 32.4079 8.75531 32.3902C9.17476 32.3754 9.59423 32.3606 10.0163 32.3518C10.7188 32.3518 11.4239 32.3518 12.129 32.3518H13.0837C14.131 32.3518 15.1784 32.3518 16.2283 32.3518C16.6503 32.3464 17.0715 32.3089 17.4892 32.2396L17.7311 32.2042C18.1374 32.1606 18.5456 32.1449 18.9535 32.1569H20.8294C20.9555 32.1569 21.0868 32.1569 21.2309 32.1569C21.5989 32.1569 21.9823 32.1569 22.358 32.1835C22.5459 32.2012 22.7363 32.2307 22.9241 32.2603C23.2212 32.3155 23.5213 32.3461 23.8222 32.3518H23.8891C24.37 32.338 24.8512 32.3567 25.3302 32.4079L25.9787 32.4728C26.2566 32.4964 26.5423 32.523 26.8202 32.5643C27.0906 32.6077 27.3587 32.6688 27.6231 32.7474C27.8238 32.8035 28.0296 32.8625 28.2355 32.9009C28.6397 32.9636 29.0477 32.9863 29.4553 32.9688H29.6972C30.0806 32.9688 30.4692 32.9688 30.85 32.9511H31.2875C31.6169 32.9511 31.9463 32.9511 32.2756 32.9511H32.7749H32.7903C33.0231 32.9413 33.2544 32.9027 33.48 32.836C33.6846 32.778 33.8928 32.7385 34.1027 32.7179C34.3601 32.6972 34.6174 32.6736 34.8927 32.647C35.1681 32.6204 35.3482 32.6027 35.5747 32.585L36.0173 32.5584C36.3562 32.5503 36.6941 32.5148 37.0286 32.4522C37.2512 32.4005 37.4764 32.365 37.7029 32.3459C37.89 32.3384 38.0773 32.3443 38.2638 32.3636L38.4851 32.3813C38.6876 32.3981 38.8912 32.3822 39.0899 32.3341L39.2597 32.2809C39.4143 32.2267 39.5728 32.1882 39.7332 32.1658L39.9751 32.1451C40.1234 32.1357 40.2712 32.1169 40.4177 32.089L40.5361 32.0654L40.76 32.0211L40.7857 32.1599C40.8192 32.337 40.85 32.5142 40.8783 32.6883L40.9015 32.836L40.7728 32.8625C40.567 32.9039 40.3456 32.9422 40.1243 32.9659H40.0086C39.8351 32.9743 39.6627 33.002 39.4939 33.0485C39.2573 33.1323 39.0128 33.1829 38.7656 33.1991C38.5804 33.1991 38.3977 33.1991 38.2201 33.1991C37.9076 33.1705 37.5933 33.1834 37.2834 33.2375C36.8575 33.3155 36.4278 33.3628 35.9967 33.3792H35.8063C35.5104 33.3998 35.217 33.4294 34.9236 33.4559L34.2957 33.515H34.252C34.0445 33.5244 33.8385 33.558 33.637 33.6154C33.3984 33.7014 33.1509 33.75 32.901 33.76C32.6437 33.76 32.3657 33.76 32.1058 33.76C31.8459 33.76 31.6246 33.7453 31.3827 33.76H30.868L29.7975 33.7777H29.2829L29.2777 33.7984ZM24.4836 32.8655H24.5067C24.7281 32.8655 24.9519 32.895 25.1655 32.9216H25.2479C25.4589 32.9481 25.6725 32.9659 25.8861 32.9865C26.182 33.0131 26.4908 33.0397 26.7919 33.0869C27.0467 33.13 27.2993 33.1891 27.5484 33.264C27.7826 33.329 28.0245 33.3969 28.2664 33.4353C28.7064 33.4904 29.1493 33.5101 29.5917 33.4943H29.7872C30.1449 33.4943 30.5001 33.4943 30.8552 33.4943H31.3699C31.6118 33.4943 31.8562 33.4943 32.1007 33.4943C32.3451 33.4943 32.6153 33.4943 32.8727 33.4943C33.0998 33.4862 33.3249 33.4425 33.5417 33.3644C33.7604 33.2982 33.9848 33.2606 34.2108 33.2522H34.2546L34.8773 33.1932C35.1732 33.1637 35.4718 33.1341 35.7677 33.1164H35.9581C36.379 33.1005 36.7984 33.0532 37.2139 32.9747C37.5427 32.9187 37.8758 32.9049 38.2072 32.9334C38.3796 32.9334 38.5572 32.9511 38.7373 32.9334C38.9636 32.9185 39.1874 32.8719 39.4038 32.7946C39.5885 32.7419 39.7773 32.7103 39.9674 32.7001H40.0806C40.2479 32.6824 40.4177 32.6529 40.5798 32.6234C40.5798 32.5437 40.5541 32.4669 40.5386 32.3872L40.446 32.4049C40.2894 32.4356 40.1313 32.4553 39.9725 32.464L39.7383 32.4846C39.5922 32.5079 39.4477 32.5434 39.306 32.5909C39.2494 32.6086 39.1902 32.6293 39.131 32.6441C38.9083 32.7019 38.6793 32.7208 38.4517 32.7001H38.2252C38.0542 32.6808 37.8823 32.6739 37.7105 32.6795C37.4945 32.6991 37.2797 32.7336 37.0672 32.7828C36.7219 32.8495 36.3726 32.886 36.0224 32.892L35.585 32.9186C35.3585 32.9363 35.1321 32.9599 34.9056 32.9806C34.6792 33.0013 34.3909 33.0338 34.113 33.0515C33.9153 33.0718 33.7191 33.1093 33.5263 33.1637C33.2739 33.2388 33.0149 33.2804 32.7543 33.2876H32.2396C31.9128 33.2876 31.5886 33.2876 31.2618 33.2876H30.8243C30.4383 33.2876 30.0523 33.3054 29.6663 33.3054H29.427C29.0039 33.322 28.5803 33.2973 28.1609 33.2316C27.9473 33.1902 27.7363 33.1341 27.533 33.0751C27.2785 33.0001 27.0208 32.94 26.761 32.895C26.4882 32.8566 26.2052 32.833 25.9298 32.8064C25.7111 32.7858 25.4923 32.7681 25.2762 32.7415C24.8065 32.6927 24.3348 32.675 23.8634 32.6883H23.7785C23.4716 32.6808 23.1655 32.6493 22.8624 32.5939C22.6771 32.5643 22.4944 32.5348 22.3091 32.5171C21.9437 32.4846 21.568 32.4876 21.2052 32.4935H18.9226C18.5259 32.4803 18.1288 32.4951 17.7337 32.5378L17.4918 32.5732C17.0656 32.6443 16.6358 32.6828 16.2051 32.6883C15.1569 32.6883 14.1096 32.6883 13.0631 32.6883H12.0749C11.3724 32.6883 10.6673 32.6883 9.96478 32.6883C9.54533 32.6883 9.12845 32.709 8.70899 32.7238C8.16087 32.7444 7.59474 32.7621 7.03889 32.7621C6.07954 32.8008 5.11963 32.7066 4.17992 32.4817C3.75274 32.3636 2.73112 31.9709 2.48923 30.8668C2.42961 30.5308 2.41314 30.1867 2.44033 29.8453C2.45453 29.6192 2.45453 29.3923 2.44033 29.1663C2.39452 28.7787 2.31962 28.3965 2.21645 28.0237C2.18815 27.9145 2.15984 27.8082 2.1341 27.699L2.05433 27.3683C1.78842 26.409 1.61582 25.4189 1.53966 24.4161C1.5165 23.8256 1.53966 23.2352 1.53966 22.7037C1.53966 22.4617 1.53966 22.2166 1.53966 21.9745C1.53966 21.6498 1.53967 21.328 1.55768 21.0091C1.57312 20.6253 1.60657 20.2386 1.63745 19.8666C1.65289 19.6924 1.66833 19.5182 1.68119 19.3441C1.70435 19.0282 1.71208 18.7034 1.7198 18.3905C1.7198 18.1336 1.71979 17.8738 1.74553 17.614C1.76611 17.2834 1.79442 16.9498 1.8253 16.6161C1.91751 15.8394 1.93907 15.0539 1.88963 14.272C1.8493 13.9236 1.79347 13.5777 1.72236 13.2358C1.68633 13.0616 1.65289 12.8845 1.62201 12.7073C1.54917 12.1853 1.52329 11.656 1.5448 11.1279V10.9891C1.5448 9.92924 1.5448 8.85462 1.5448 7.81246C1.5448 6.60498 1.53193 5.35322 1.5448 4.12212C1.57193 3.08872 1.67958 2.06018 1.86647 1.0488H1.64003C1.61172 1.22298 1.58855 1.39716 1.56281 1.57135L1.53709 1.74553C1.46003 2.29986 1.4102 2.85873 1.38783 3.41947C1.3518 4.30516 1.35696 5.19084 1.3621 6.03814C1.3621 6.33337 1.3621 6.6286 1.3621 6.92383V10.4961C1.3621 10.6644 1.3621 10.8356 1.3621 11.0068C1.34666 11.4134 1.35439 11.8207 1.38525 12.2261C1.42388 12.5589 1.478 12.889 1.54738 13.2151C1.58855 13.4336 1.6323 13.6491 1.66575 13.8705C1.77007 14.7746 1.76226 15.691 1.64259 16.5925C1.61943 16.8612 1.59627 17.1239 1.57825 17.3896C1.56024 17.6554 1.55252 17.9801 1.5448 18.2547C1.53708 18.5292 1.5448 18.8451 1.51392 19.1226C1.49848 19.3618 1.4779 19.5979 1.45731 19.8371C1.42901 20.1618 1.40071 20.4954 1.38269 20.8261C1.36468 21.1567 1.36468 21.5228 1.3621 21.8653C1.3621 22.0956 1.3621 22.3288 1.3621 22.562V22.6388C1.3621 23.185 1.3338 23.7488 1.3621 24.3039C1.43949 25.3928 1.62336 26.4683 1.91023 27.51L1.9411 27.6311C1.97027 27.7531 2.00115 27.8742 2.03374 27.9942C2.15332 28.3969 2.23273 28.8139 2.27048 29.2371C2.27048 29.4467 2.27048 29.6593 2.27048 29.863C2.24676 30.2096 2.26495 30.5584 2.32453 30.8993C2.47893 31.5989 2.99874 32.1924 3.75273 32.523C4.59679 32.892 5.61069 32.9245 6.42386 32.9511C7.23704 32.9777 7.99618 32.9511 8.76046 32.9216L9.47842 32.8979C11.3158 32.8448 13.184 32.8596 14.9931 32.8743H15.8989C16.4037 32.8836 16.9084 32.853 17.4095 32.7828C17.936 32.7061 18.4666 32.6726 18.9972 32.6824C19.3575 32.6824 19.7126 32.6824 20.0703 32.6824C20.76 32.6824 21.4753 32.6618 22.1727 32.7001C22.43 32.7001 22.6874 32.7533 22.9293 32.7917C23.1712 32.83 23.4439 32.8714 23.6884 32.8832C23.8454 32.8832 24.0075 32.8832 24.1619 32.8832C24.3163 32.8832 24.3678 32.8655 24.4836 32.8655Z" fill="#000"/>
<path d="M2.24943 19.3351C2.31119 18.8066 2.40897 18.2841 2.4347 17.7468C2.4836 16.619 2.23913 15.5089 2.11561 14.39C2.05385 13.8173 2.03327 13.2386 1.96122 12.6659C1.88916 12.0931 1.80166 11.5676 1.75276 11.0156C1.70387 10.4635 1.67815 9.88779 1.6344 9.32391C1.59065 8.76003 1.54691 8.19319 1.54176 7.62635C1.52632 6.50449 1.75535 5.42395 1.95607 4.33456C2.06895 3.84177 2.1464 3.33918 2.18766 2.83186C2.21082 2.27388 2.059 1.70409 2.14907 1.14906C2.16505 1.06176 2.18655 0.975922 2.2134 0.892212H2.03326C0.702845 3.57878 1.27927 8.05443 1.38993 10.5963C1.60866 15.6447 1.85313 20.6961 2.0976 25.7445C2.2031 27.9469 2.3189 30.1935 3.07804 32.2395C2.75123 28.493 2.49904 24.7614 2.26487 21.0208C2.20864 20.4611 2.20346 19.8961 2.24943 19.3351Z" fill="#000"/>
<path d="M3.28994 33.202L2.96055 32.3164C2.18854 30.2173 2.07532 27.9558 1.96982 25.7653V25.6235C1.73307 20.7051 1.48604 15.6183 1.26987 10.6142C1.25186 10.2097 1.22355 9.75211 1.1901 9.26499C1.02283 6.67289 0.793806 3.12426 1.92865 0.830338L1.96724 0.756531H2.40729L2.34295 0.957286C2.31751 1.03297 2.29772 1.11099 2.28377 1.19052C2.24527 1.50091 2.24527 1.81599 2.28377 2.12639C2.31044 2.36621 2.32161 2.60797 2.31721 2.84969C2.29095 3.25627 2.23326 3.65936 2.1448 4.05422C2.12421 4.1605 2.10106 4.26974 2.08304 4.37897L2.01871 4.70372C1.80757 5.6589 1.69104 6.63836 1.67132 7.62352C1.67132 8.21398 1.72278 8.80443 1.76395 9.31222C1.78197 9.55726 1.79741 9.8023 1.81285 10.0473C1.83343 10.3662 1.85145 10.6821 1.87976 11.0009C1.91321 11.3729 1.96724 11.7538 2.01871 12.1198C2.04187 12.294 2.06761 12.4682 2.0882 12.6453C2.12937 12.9671 2.1551 13.2948 2.17826 13.6107C2.19884 13.8646 2.21686 14.1185 2.24517 14.3724C2.28119 14.7001 2.32751 15.0278 2.37383 15.3555C2.51157 16.1455 2.57454 16.9502 2.56168 17.7557C2.54038 18.1151 2.50172 18.4729 2.44588 18.8274C2.42272 19.0045 2.397 19.1787 2.37641 19.3559C2.33013 19.8613 2.33013 20.3709 2.37641 20.8763V21.018C2.60029 24.5607 2.85504 28.3987 3.18958 32.2366L3.28994 33.202ZM2.01871 1.27318C1.07944 3.49624 1.29302 6.79393 1.45257 9.24432C1.48345 9.73735 1.51433 10.195 1.53234 10.6024C1.74851 15.6212 1.99298 20.6903 2.2323 25.6088V25.7534C2.3198 27.5248 2.40729 29.3611 2.85762 31.0941C2.56941 27.6459 2.34295 24.2419 2.1448 21.0564V20.9147C2.09715 20.3896 2.09715 19.8603 2.1448 19.3352C2.16539 19.1551 2.19113 18.978 2.21686 18.7979C2.27152 18.4542 2.30932 18.1072 2.33009 17.7587C2.3398 16.9739 2.27682 16.1901 2.14223 15.4205C2.09591 15.0898 2.04959 14.7592 2.01356 14.4285C1.98525 14.1687 1.96466 13.9119 1.94665 13.655C1.92349 13.3421 1.89776 13.0203 1.85916 12.7044C1.836 12.5302 1.81284 12.356 1.7871 12.1848C1.73564 11.8128 1.68417 11.429 1.64815 11.0482C1.61984 10.7293 1.59925 10.4075 1.58124 10.0857C1.5658 9.84068 1.55036 9.59859 1.53234 9.35651C1.49117 8.82805 1.44485 8.23169 1.43713 7.64419C1.44583 6.63251 1.55461 5.62524 1.76138 4.64172L1.82313 4.30516C1.84372 4.19593 1.86431 4.0867 1.88747 3.97746C1.97253 3.60015 2.02765 3.21478 2.05216 2.82607C2.05705 2.59916 2.04673 2.37215 2.02129 2.14705C1.99334 1.8567 1.99247 1.56375 2.01871 1.27318Z" fill="#000"/>
<path d="M2.57888 27.4569C2.42447 25.1748 2.35757 22.8868 2.21347 20.6047C2.15818 20.0429 2.153 19.4761 2.19803 18.9131C2.25979 18.3817 2.36014 17.8591 2.3833 17.3247C2.43477 16.194 2.18773 15.084 2.06678 13.968C2.00245 13.3923 1.98444 12.8166 1.90981 12.2439C1.83519 11.6711 1.75284 11.1456 1.70137 10.5936C1.64991 10.0415 1.62932 9.46578 1.58557 8.9019C1.54182 8.33801 1.49808 7.77117 1.49036 7.20138C1.47749 6.08247 1.70394 5.00194 1.90466 3.91255C2.01839 3.41983 2.09671 2.91725 2.13883 2.40984C2.15684 1.905 2.03847 1.39721 2.07965 0.895325H1.60101C1.57785 1.36178 1.66019 1.82824 1.66019 2.2947C1.62832 2.83338 1.54724 3.36673 1.4183 3.88598C1.17001 4.99311 1.03359 6.12933 1.01172 7.27224C1.01172 7.8627 1.06832 8.45315 1.11207 9.01999C1.15581 9.58682 1.17898 10.1802 1.2356 10.7559C1.29221 11.3316 1.38742 11.8866 1.45433 12.4535C1.52123 13.0203 1.53924 13.6078 1.60872 14.1806C1.74768 15.332 1.99729 16.4922 1.88149 17.6554C1.82488 18.2134 1.70909 18.7595 1.68593 19.3234C1.68256 19.9052 1.70747 20.4867 1.76055 21.0653L1.94583 24.6552C2.00759 25.8184 2.0462 26.9846 2.15428 28.1448C2.20474 28.7105 2.28378 29.2724 2.39103 29.8276C2.473 30.3086 2.58216 30.783 2.71783 31.2477C2.80633 31.5171 2.92207 31.7738 3.06266 32.0123C3.24023 31.9798 3.41521 31.9503 3.59277 31.9267C3.33888 31.5401 3.15433 31.0996 3.0498 30.6306C2.80597 29.5921 2.64829 28.5295 2.57888 27.4569Z" fill="#000"/>
<path d="M3.00237 32.1745L2.95863 32.0978C2.81194 31.8501 2.69102 31.5835 2.59835 31.3036C2.4789 30.9062 2.38346 30.4998 2.31271 30.0873L2.26896 29.8629C2.15944 29.303 2.07869 28.7361 2.02708 28.1653C1.94473 27.2797 1.90355 26.394 1.86238 25.5437C1.86238 25.2485 1.83664 24.9533 1.8212 24.658L1.75686 23.4594L1.63335 21.0681C1.63335 20.9027 1.61276 20.7374 1.59989 20.5691C1.56291 20.1504 1.54917 19.7293 1.55873 19.3085C1.57917 18.9638 1.61698 18.6208 1.67195 18.2811C1.70283 18.0656 1.7337 17.8501 1.75429 17.6316C1.80704 16.7485 1.75249 15.8612 1.59218 14.9952C1.55358 14.7295 1.51497 14.4609 1.48409 14.1952C1.45321 13.9295 1.4249 13.6047 1.40432 13.3095C1.38373 13.0143 1.36315 12.7397 1.3297 12.4592C1.30139 12.2231 1.26794 11.9898 1.23448 11.7566C1.19074 11.4318 1.14441 11.0953 1.11095 10.7587C1.0775 10.4222 1.05434 10.0502 1.03118 9.70181C1.03118 9.47448 1.00545 9.24716 0.987437 9.01983V8.95488C0.94369 8.39986 0.899942 7.82711 0.889648 7.26028C0.908165 6.14872 1.03768 5.04326 1.27565 3.96554L1.29882 3.83859C1.32283 3.71459 1.34856 3.5906 1.37601 3.4666C1.46948 3.08143 1.52388 2.68518 1.53814 2.28569C1.53814 2.09084 1.5227 1.88714 1.50726 1.69524C1.48092 1.42574 1.47147 1.15442 1.47895 0.883363V0.747559H2.22008V0.909932C2.20574 1.17203 2.21436 1.43512 2.2458 1.69524C2.27128 1.93519 2.28246 2.17685 2.27926 2.41855C2.25195 2.82401 2.19427 3.22601 2.10685 3.62012C2.08369 3.72936 2.0631 3.83859 2.04252 3.94487L1.97046 4.29619C1.7583 5.25123 1.6409 6.23071 1.62048 7.21599C1.62048 7.80645 1.67452 8.3969 1.71312 8.9047C1.73371 9.14973 1.74915 9.39773 1.76459 9.64276C1.7826 9.95866 1.80319 10.2775 1.8315 10.5904C1.86495 10.9654 1.91641 11.3433 1.96788 11.7123C1.99361 11.8865 2.01678 12.0607 2.03994 12.2349C2.08111 12.5596 2.10427 12.8873 2.13 13.2032C2.14801 13.4571 2.1686 13.711 2.19433 13.9649C2.23036 14.2926 2.27668 14.6203 2.323 14.9451C2.46019 15.7352 2.52402 16.5397 2.51343 17.3452C2.49227 17.7066 2.45361 18.0664 2.39762 18.4228C2.37189 18.597 2.34874 18.7712 2.32815 18.9483C2.28187 19.4528 2.28187 19.9614 2.32815 20.4658V20.6075C2.39506 21.6674 2.44652 22.745 2.49541 23.7871C2.55202 24.9916 2.61122 26.2375 2.69356 27.4627C2.76133 28.5263 2.91729 29.5801 3.15934 30.6098C3.25755 31.0591 3.43248 31.4816 3.67401 31.8527L3.81296 32.0564L3.59166 32.0889L3.06413 32.1745H3.00237ZM1.72598 1.04869C1.72598 1.2524 1.74142 1.46201 1.75686 1.67752C1.7723 1.89304 1.79032 2.09084 1.79032 2.30045C1.77525 2.72493 1.7174 3.14597 1.61791 3.55517C1.59475 3.67621 1.56901 3.80021 1.54585 3.92125L1.5227 4.0482C1.28872 5.10359 1.16094 6.18627 1.14185 7.27504C1.14185 7.83302 1.19331 8.39986 1.23706 8.94898V9.01393C1.25507 9.24421 1.26794 9.47448 1.28338 9.70181C1.30396 10.0472 1.32455 10.4015 1.36057 10.7469C1.3966 11.0923 1.44034 11.4082 1.48409 11.73C1.51669 11.9662 1.54758 12.2024 1.57674 12.4386C1.61277 12.7338 1.63335 13.029 1.65394 13.3065C1.67453 13.5841 1.69768 13.897 1.73114 14.1656C1.76459 14.4343 1.80061 14.6941 1.83921 14.9598C2.00366 15.853 2.05909 16.7681 2.00391 17.6789C1.98075 17.9003 1.94987 18.1187 1.91899 18.3402C1.86645 18.6693 1.82951 19.0014 1.80833 19.3351C1.79983 19.7432 1.81444 20.1514 1.85208 20.5573C1.85208 20.7256 1.87523 20.8939 1.88295 21.0622C1.92584 21.8494 1.96789 22.6466 2.00906 23.4535L2.07082 24.6521C2.08626 24.9474 2.09912 25.2426 2.11456 25.5378C2.15574 26.394 2.19691 27.2797 2.27668 28.1447C2.32787 28.7044 2.40691 29.2604 2.51343 29.8098L2.55718 30.0341C2.6264 30.4345 2.71924 30.8291 2.83509 31.215C2.90996 31.4444 3.00572 31.6641 3.12075 31.8704L3.36007 31.8291C3.16089 31.4782 3.01311 31.0923 2.9226 30.6866C2.67486 29.6389 2.51628 28.5662 2.44909 27.4834C2.36417 26.2582 2.30499 25.0094 2.24838 23.8048C2.19949 22.7627 2.14801 21.6851 2.08111 20.6282V20.4865C2.03348 19.9624 2.03348 19.434 2.08111 18.91C2.10169 18.7299 2.12743 18.5527 2.15059 18.3756C2.20541 18.0299 2.24321 17.681 2.26382 17.3305C2.27416 16.5458 2.21205 15.762 2.07853 14.9923C2.03221 14.6616 1.98331 14.331 1.94729 14.0003C1.91898 13.7435 1.90098 13.4866 1.88039 13.2268C1.85723 12.9316 1.83407 12.5921 1.79289 12.2791L1.72341 11.7566C1.67194 11.3876 1.61791 11.0038 1.58445 10.6229C1.55615 10.3041 1.53556 9.98228 1.51497 9.66343C1.51497 9.41839 1.48666 9.17335 1.46607 8.93126C1.4249 8.40281 1.37858 7.8094 1.37086 7.21895C1.39211 6.21197 1.51122 5.21086 1.72598 4.2342L1.79032 3.89764C1.80833 3.7884 1.83149 3.67917 1.85208 3.56698C1.93673 3.19045 1.9927 2.80619 2.01935 2.41855C2.02292 2.19067 2.01261 1.96279 1.98847 1.73657C1.96342 1.51139 1.95138 1.28455 1.95244 1.05755L1.72598 1.04869Z" fill="#000"/>
<path d="M7.37112 8.55914C7.37112 11.662 7.49207 14.7589 7.43545 17.8706C7.38141 20.9262 7.15496 23.9789 7.09577 27.0374C7.05974 28.794 7.04688 30.5536 7.04688 32.3131C7.0538 32.3989 7.08839 32.4785 7.14385 32.5365C7.1993 32.5945 7.27164 32.6267 7.34668 32.6267C7.42172 32.6267 7.49404 32.5945 7.5495 32.5365C7.60495 32.4785 7.63954 32.3989 7.64647 32.3131C7.64647 29.2044 7.68765 26.0957 7.81632 22.9899C7.87808 21.4606 7.98358 19.9372 8.02218 18.4079C8.06078 16.8787 8.05049 15.3464 8.02218 13.8171C7.99902 12.0635 7.963 10.3128 7.96042 8.55914C7.96042 8.46831 7.92897 8.38121 7.87299 8.31698C7.81701 8.25276 7.74108 8.21667 7.66191 8.21667C7.58274 8.21667 7.50681 8.25276 7.45083 8.31698C7.39485 8.38121 7.36341 8.46831 7.36341 8.55914H7.37112Z" fill="#000"/>
<path d="M7.34479 32.7916C7.28807 32.7961 7.23115 32.787 7.17766 32.7649C7.12417 32.7428 7.07528 32.7081 7.03412 32.6631C6.99296 32.6181 6.96042 32.5638 6.93859 32.5035C6.91676 32.4433 6.90611 32.3785 6.90732 32.3133C6.90732 30.3766 6.92276 28.6495 6.95621 27.0346C6.98709 25.526 7.05657 23.9967 7.12605 22.5177C7.19553 20.9913 7.26759 19.4178 7.2959 17.8678C7.32935 16.0108 7.29589 14.1243 7.27015 12.2998C7.25214 11.0746 7.23156 9.80516 7.23156 8.5593C7.23045 8.49513 7.24082 8.43139 7.26203 8.372C7.28324 8.31262 7.31484 8.25885 7.35487 8.21403C7.39491 8.16921 7.44252 8.13428 7.49479 8.1114C7.54705 8.08853 7.60285 8.07819 7.65873 8.08103C7.71462 8.07819 7.77041 8.08853 7.82267 8.1114C7.87494 8.13428 7.92257 8.16921 7.9626 8.21403C8.00264 8.25885 8.03423 8.31262 8.05544 8.372C8.07665 8.43139 8.08702 8.49513 8.08591 8.5593C8.08591 9.82582 8.10649 11.113 8.12708 12.3559C8.12708 12.843 8.14253 13.3302 8.14767 13.8143C8.16569 15.1931 8.18113 16.8139 8.14767 18.411C8.12451 19.3499 8.07304 20.2975 8.02672 21.2187C7.99584 21.8091 7.96497 22.3996 7.93923 22.99C7.826 25.7917 7.77196 28.7499 7.76938 32.3074C7.77119 32.3718 7.76144 32.4359 7.7407 32.4958C7.71997 32.5557 7.68871 32.61 7.64888 32.6554C7.60905 32.7009 7.56149 32.7364 7.50917 32.7598C7.45686 32.7832 7.40091 32.794 7.34479 32.7916ZM7.66903 8.37625C7.64715 8.37418 7.62512 8.3774 7.60439 8.38571C7.58365 8.39402 7.56467 8.40722 7.54866 8.42447C7.53265 8.44173 7.51997 8.46264 7.51145 8.48586C7.50293 8.50909 7.49875 8.5341 7.49918 8.5593C7.49918 9.80516 7.51978 11.0687 7.53779 12.2939C7.5661 14.1214 7.59697 16.0108 7.56352 17.8737C7.53521 19.4266 7.46316 21.0061 7.39111 22.5324C7.3242 24.0086 7.25214 25.5378 7.22384 27.0405C7.19038 28.6525 7.17494 30.3796 7.17494 32.3133C7.1749 32.3384 7.17934 32.3632 7.18799 32.3862C7.19665 32.4092 7.20933 32.4299 7.22525 32.4471C7.24117 32.4643 7.26001 32.4775 7.28057 32.486C7.30113 32.4944 7.32299 32.498 7.34479 32.4963C7.3668 32.4984 7.38893 32.4952 7.4098 32.4869C7.43067 32.4786 7.44981 32.4654 7.46601 32.4482C7.48222 32.431 7.49513 32.4102 7.50394 32.3869C7.51275 32.3637 7.51727 32.3386 7.5172 32.3133C7.5172 28.7529 7.57125 25.7858 7.68705 22.9812C7.71021 22.3907 7.74108 21.8002 7.77196 21.2098C7.82085 20.2916 7.86975 19.344 7.89291 18.414C7.93409 16.8198 7.92122 15.2019 7.89291 13.8291L7.86975 12.3707C7.85173 11.1248 7.83115 9.83763 7.82858 8.56815C7.82997 8.54426 7.8272 8.52028 7.82041 8.49763C7.81363 8.47498 7.80298 8.45411 7.78908 8.43624C7.77518 8.41837 7.75831 8.40386 7.73946 8.39356C7.72062 8.38326 7.70017 8.37738 7.67932 8.37625H7.66903Z" fill="#000"/>
<path d="M7.95554 9.20586C8.53969 9.20586 9.15214 9.02872 9.72085 9.23833C9.97818 9.3269 10.2355 9.39185 10.4671 9.49518C10.6005 9.55978 10.7422 9.59868 10.8866 9.61032C11.0485 9.59706 11.211 9.59706 11.3729 9.61032L11.1645 9.37118C11.3137 9.85831 11.2366 10.434 11.2057 10.9388C11.1671 11.5293 11.1696 12.1198 11.1696 12.7309V32.4196C11.1766 32.5053 11.2112 32.585 11.2666 32.643C11.3221 32.701 11.3944 32.7331 11.4694 32.7331C11.5445 32.7331 11.6168 32.701 11.6723 32.643C11.7277 32.585 11.7623 32.5053 11.7692 32.4196V32.2926C11.7623 32.2069 11.7277 32.1273 11.6723 32.0693C11.6168 32.0113 11.5445 31.9791 11.4694 31.9791C11.3944 31.9791 11.3221 32.0113 11.2666 32.0693C11.2112 32.1273 11.1766 32.2069 11.1696 32.2926V32.4196C11.1766 32.5053 11.2112 32.585 11.2666 32.643C11.3221 32.701 11.3944 32.7331 11.4694 32.7331C11.5445 32.7331 11.6168 32.701 11.6723 32.643C11.7277 32.585 11.7623 32.5053 11.7692 32.4196V14.4639C11.7692 13.5044 11.7512 12.5449 11.7692 11.5854C11.8237 10.9339 11.8408 10.2791 11.8207 9.62508C11.7795 9.19405 11.692 8.90768 11.2623 8.90177C11.0767 8.92652 10.8889 8.91555 10.7064 8.8693C10.534 8.80435 10.3693 8.74825 10.1918 8.69216C9.86799 8.56477 9.5318 8.48346 9.19074 8.45007C8.77643 8.45007 8.3647 8.51207 7.95296 8.51798C7.87825 8.52593 7.80882 8.5656 7.75827 8.62922C7.70772 8.69284 7.67969 8.77583 7.67969 8.86191C7.67969 8.948 7.70772 9.03099 7.75827 9.09461C7.80882 9.15823 7.87825 9.1979 7.95296 9.20586H7.95554Z" fill="#000"/>
<path d="M11.4678 32.8891C11.4119 32.8919 11.3561 32.8816 11.3039 32.8587C11.2516 32.8358 11.204 32.8009 11.164 32.7561C11.1239 32.7112 11.0923 32.6575 11.0711 32.5981C11.0499 32.5387 11.0395 32.475 11.0407 32.4108V12.6305C11.0407 12.0696 11.0407 11.491 11.0767 10.9153C11.0767 10.8385 11.0767 10.7588 11.0947 10.6791C11.1272 10.3685 11.1315 10.0548 11.1076 9.74322H11.0947C10.8652 9.77891 10.6317 9.74004 10.4205 9.63103C10.279 9.56903 10.1271 9.5218 9.98301 9.47456L9.68194 9.37418C9.29108 9.26548 8.88547 9.24543 8.4879 9.31514C8.31292 9.31514 8.13278 9.34761 7.95522 9.35057C7.90042 9.3518 7.84597 9.34023 7.79519 9.31655C7.74441 9.29288 7.69836 9.2576 7.65984 9.21285C7.62133 9.16811 7.59114 9.11485 7.57113 9.0563C7.55113 8.99775 7.54172 8.93515 7.54348 8.8723C7.5407 8.80764 7.54933 8.743 7.56884 8.68226C7.58835 8.62151 7.61835 8.56591 7.65703 8.51877C7.69571 8.47164 7.74228 8.43395 7.79396 8.40795C7.84564 8.38195 7.90137 8.36817 7.9578 8.36746C8.13793 8.36746 8.31806 8.34974 8.49819 8.33498C8.73175 8.31072 8.96621 8.29988 9.20071 8.30251C9.48983 8.31991 9.77555 8.38249 10.0499 8.4885L10.2326 8.54755C10.4102 8.60364 10.5774 8.65973 10.7473 8.72764C10.8569 8.76275 10.9714 8.77279 11.0844 8.75716H11.2645C11.8204 8.75716 11.9079 9.20295 11.9491 9.61037C11.9779 10.0441 11.9719 10.4799 11.931 10.9123C11.9156 11.1367 11.9002 11.364 11.8976 11.5913C11.8976 12.232 11.8976 12.8874 11.8976 13.5192C11.8976 13.8351 11.8976 14.151 11.8976 14.4669V32.4137C11.8984 32.4779 11.8876 32.5416 11.8661 32.6008C11.8446 32.6601 11.8127 32.7136 11.7724 32.7582C11.7322 32.8027 11.6843 32.8373 11.632 32.8598C11.5796 32.8823 11.5237 32.8923 11.4678 32.8891ZM11.298 32.4108C11.2979 32.4359 11.3024 32.4607 11.311 32.4837C11.3197 32.5067 11.3324 32.5274 11.3483 32.5446C11.3642 32.5617 11.3831 32.575 11.4036 32.5834C11.4242 32.5919 11.446 32.5954 11.4678 32.5938C11.5127 32.5963 11.5568 32.5795 11.5914 32.5466C11.6078 32.5295 11.6207 32.5085 11.6291 32.485C11.6376 32.4615 11.6414 32.4362 11.6402 32.4108V32.2838C11.6399 32.2586 11.6352 32.2338 11.6262 32.2107C11.6173 32.1877 11.6044 32.167 11.5882 32.1499C11.5721 32.1328 11.5531 32.1196 11.5324 32.1112C11.5117 32.1027 11.4897 32.0992 11.4678 32.1008C11.4459 32.0987 11.4239 32.102 11.4032 32.1103C11.3825 32.1186 11.3635 32.1318 11.3475 32.149C11.3315 32.1663 11.3188 32.1872 11.3103 32.2104C11.3017 32.2336 11.2976 32.2586 11.298 32.2838V32.4108ZM11.4678 31.8203C11.527 31.8196 11.5856 31.8327 11.6402 31.8587V14.4639C11.6402 14.148 11.6402 13.8321 11.6402 13.5192C11.6402 12.8844 11.6402 12.229 11.6402 11.5825C11.6402 11.3493 11.6608 11.119 11.6763 10.8857C11.7059 10.5345 11.7162 10.1815 11.7072 9.82883L11.3675 9.75208C11.3874 10.0699 11.3813 10.3891 11.3495 10.7057C11.3495 10.7854 11.3495 10.8621 11.334 10.9389C11.298 11.5028 11.298 12.0785 11.298 12.6335V31.844C11.3518 31.8182 11.4095 31.8052 11.4678 31.8056V31.8203ZM11.0767 9.0701L11.7046 9.7875C11.7046 9.74322 11.7046 9.69893 11.7046 9.65465C11.6583 9.1941 11.5656 9.0642 11.2697 9.0642H11.1076L11.0767 9.0701ZM9.0566 9.0022C9.29426 8.9974 9.53117 9.03424 9.75914 9.11143C9.85435 9.14686 9.95214 9.17933 10.0499 9.20886C10.2018 9.25609 10.3587 9.30628 10.5105 9.37123C10.6316 9.43028 10.7602 9.46618 10.8914 9.47751C10.9454 9.47751 10.9995 9.47751 11.0561 9.47751C11.0554 9.46277 11.0554 9.44798 11.0561 9.43323L10.948 9.07896C10.8604 9.0785 10.7735 9.06154 10.6907 9.02877C10.5208 8.96382 10.3561 8.91068 10.176 8.85753L9.98815 8.79554C9.73831 8.69959 9.47894 8.64008 9.21615 8.6184C8.99484 8.6184 8.76325 8.63316 8.53937 8.65088C8.35924 8.66859 8.17138 8.68335 7.98352 8.6863C7.96099 8.68663 7.93875 8.69226 7.91818 8.70284C7.89762 8.71343 7.87916 8.72874 7.86397 8.74783C7.84877 8.76693 7.83716 8.7894 7.82984 8.81386C7.82251 8.83831 7.81964 8.86423 7.8214 8.89001C7.81995 8.91475 7.82305 8.93957 7.83048 8.96285C7.83791 8.98614 7.84952 9.00737 7.86456 9.02518C7.8796 9.04299 7.89773 9.05698 7.91778 9.06624C7.93783 9.07551 7.95935 9.07984 7.98095 9.07896C8.14821 9.07896 8.32577 9.06124 8.49562 9.04353C8.66546 9.02582 8.85845 8.98744 9.0566 8.98744V9.0022Z" fill="#000"/>
<path d="M17.1241 31.9001C17.1241 27.392 17.0598 22.8779 17.1627 18.3698C17.2167 16.1172 17.2965 13.8617 17.2605 11.6091C17.2425 10.5492 17.1859 9.49527 17.1215 8.43836C17.0632 7.50076 17.0795 6.55902 17.1704 5.62484C17.1859 5.46837 17.1962 5.30895 17.209 5.15248C17.209 5.08457 17.209 4.82477 17.2528 4.77163C17.2965 4.71849 17.5487 4.77163 17.6156 4.77163H18.4288C18.8799 4.78691 19.3306 4.72725 19.7669 4.5945C20.1169 4.47936 20.5389 4.26974 20.9018 4.37012L20.6933 4.13099C20.8426 5.01667 20.7628 5.92597 20.7576 6.82346C20.7525 7.72095 20.8632 8.6273 20.9069 9.5307C20.9507 10.4341 20.9764 11.4261 21.0253 12.3737C21.0742 13.3214 21.1797 14.2986 21.2517 15.264C21.3958 17.1594 21.4036 19.0636 21.3933 20.9678C21.383 22.872 21.3778 24.8382 21.3778 26.7749C21.3778 27.7669 21.3778 28.7589 21.347 29.7508C21.3109 30.5952 21.2929 31.4484 21.5863 32.2426C21.7355 32.647 22.2502 32.2986 22.101 31.8971C21.8436 31.1856 21.9157 30.3354 21.9491 29.5855C21.9877 28.7175 21.9749 27.8466 21.9749 26.9786C21.9749 25.0626 21.9749 23.1407 21.9749 21.2365C21.9749 19.3323 21.9748 17.4723 21.859 15.5976C21.7973 14.6558 21.6866 13.72 21.63 12.7782C21.5734 11.8364 21.5477 10.8828 21.5065 9.93516C21.4628 8.89891 21.3341 7.86857 21.3418 6.82346C21.3418 5.86102 21.4164 4.90153 21.2543 3.94795C21.2413 3.89039 21.2151 3.83788 21.1785 3.79583C21.1418 3.75379 21.096 3.72375 21.0459 3.70881C20.3125 3.50806 19.6022 4.03356 18.8791 4.07489C18.4056 4.10442 17.9193 4.09556 17.4483 4.07489C17.1241 4.05718 16.8205 4.12213 16.6763 4.50593C16.6085 4.77056 16.5739 5.04492 16.5734 5.32076C16.5734 5.40932 16.5528 5.60122 16.5502 5.61598C16.5297 5.79017 16.4859 6.11196 16.4705 6.34815C16.4439 7.43704 16.4792 8.52677 16.576 9.61041C16.6969 11.9722 16.6455 14.3341 16.576 16.6959C16.5065 19.0577 16.4936 21.4195 16.4936 23.7813V31.9001C16.5006 31.9858 16.5351 32.0655 16.5906 32.1235C16.6461 32.1815 16.7184 32.2136 16.7934 32.2136C16.8685 32.2136 16.9408 32.1815 16.9963 32.1235C17.0517 32.0655 17.0863 31.9858 17.0932 31.9001H17.1241Z" fill="#000"/>
<path d="M21.8031 32.5938H21.7593C21.6941 32.5838 21.6325 32.5534 21.5812 32.506C21.53 32.4587 21.491 32.3961 21.4685 32.3251C21.17 31.5221 21.1803 30.6571 21.2112 29.7685C21.2472 28.9595 21.2446 28.13 21.2421 27.3299V26.8014C21.2421 24.8647 21.2472 22.928 21.2575 20.9913C21.2575 19.2702 21.2575 17.2656 21.1185 15.3023C21.0902 14.948 21.0594 14.5938 21.0285 14.2424C20.977 13.652 20.9204 13.0232 20.8895 12.4091C20.8638 11.8983 20.8432 11.3846 20.8252 10.8739C20.8072 10.437 20.7917 9.98822 20.7712 9.56309C20.7557 9.23539 20.73 8.90473 20.7068 8.57703C20.6631 8.01315 20.6193 7.4286 20.6219 6.847C20.6219 6.62853 20.6219 6.40711 20.6219 6.18569C20.6498 5.63065 20.6403 5.07397 20.5936 4.52061C20.3906 4.54972 20.1912 4.60519 19.9992 4.68593C19.9245 4.71545 19.8525 4.74203 19.783 4.76269C19.3355 4.90228 18.8723 4.96398 18.4088 4.94573C18.1361 4.94573 17.8659 4.94573 17.5957 4.94573H17.485L17.3254 4.92802C17.3254 4.98411 17.3254 5.06382 17.3254 5.1022C17.327 5.1317 17.327 5.16128 17.3254 5.19077L17.31 5.39153C17.31 5.48305 17.2971 5.57457 17.2894 5.66313C17.2001 6.58953 17.1837 7.52327 17.2405 8.45304C17.2997 9.39776 17.3589 10.5196 17.3769 11.6297C17.4078 13.4542 17.3615 15.3082 17.3152 17.1002C17.3152 17.5342 17.292 17.9653 17.2817 18.3993C17.2071 21.6674 17.2199 24.9946 17.2328 28.2126C17.2328 29.4486 17.2328 30.6856 17.2328 31.9236C17.2328 32.0536 17.1878 32.1783 17.1077 32.2702C17.0276 32.3621 16.9189 32.4137 16.8056 32.4137C16.6923 32.4137 16.5837 32.3621 16.5036 32.2702C16.4235 32.1783 16.3785 32.0536 16.3785 31.9236V23.8167C16.3785 21.2187 16.4068 18.907 16.4608 16.7312C16.5251 14.1982 16.5663 11.9161 16.4608 9.64575C16.4608 9.37415 16.4299 9.10254 16.4119 8.83093C16.3401 8.01094 16.3212 7.186 16.3553 6.36282C16.3553 6.19454 16.3939 5.98493 16.4145 5.81075C16.4145 5.73989 16.4299 5.67494 16.4351 5.62476C16.4402 5.57457 16.4351 5.53028 16.4505 5.45352V5.31772C16.4505 5.25867 16.4505 5.19667 16.4505 5.13468C16.4533 4.90569 16.4872 4.6786 16.5509 4.46156C16.731 3.95967 17.1479 3.92129 17.4412 3.93901C17.9765 3.96558 18.4397 3.96853 18.8591 3.93901C19.1427 3.90759 19.4223 3.84026 19.6929 3.73825C20.1298 3.54707 20.6028 3.49107 21.0645 3.57588C21.1386 3.59735 21.206 3.64175 21.2596 3.70422C21.3131 3.7667 21.3507 3.84485 21.3682 3.93015C21.4721 4.68461 21.5049 5.44973 21.4659 6.21226C21.4659 6.41892 21.4659 6.62558 21.4659 6.83224C21.4659 7.46697 21.5097 8.11352 21.556 8.74236C21.5843 9.13206 21.6126 9.53947 21.6306 9.92327C21.6306 10.2185 21.6564 10.5314 21.6667 10.8385C21.6924 11.4703 21.7156 12.1227 21.7542 12.7634C21.7825 13.2682 21.8288 13.7819 21.8751 14.2779C21.9137 14.7119 21.9549 15.1458 21.9832 15.5798C22.1119 17.4781 22.1119 19.4178 22.099 21.2305C22.099 23.2262 22.0836 25.2544 22.0836 26.9727V27.5395C22.0836 28.2097 22.0836 28.9034 22.0578 29.5884V29.8393C22.0244 30.5242 21.9883 31.2298 22.2096 31.8321C22.2424 31.9152 22.2547 32.007 22.2452 32.0976C22.2357 32.1882 22.2047 32.274 22.1556 32.3458C22.1175 32.4155 22.0658 32.4741 22.0046 32.5171C21.9435 32.5602 21.8745 32.5864 21.8031 32.5938ZM20.8741 4.54717C20.916 5.09692 20.9246 5.64934 20.8998 6.20045C20.8998 6.41892 20.8998 6.63739 20.8998 6.85585C20.8998 7.42269 20.941 7.99838 20.9822 8.55636C21.0079 8.88997 21.031 9.22063 21.0465 9.55423C21.0671 9.99117 21.0851 10.4399 21.1005 10.868C21.1211 11.3758 21.1417 11.8865 21.1675 12.3973C21.1983 13.0054 21.2524 13.6225 21.3038 14.2188C21.3347 14.5731 21.3682 14.9274 21.3939 15.2816C21.5432 17.2567 21.5457 19.2702 21.5354 21.0002C21.5251 22.9369 21.52 24.8726 21.52 26.8073V27.324C21.52 28.127 21.52 28.9595 21.4891 29.7773C21.4505 30.663 21.4402 31.4572 21.7182 32.207C21.7234 32.2296 21.7341 32.25 21.7492 32.2657C21.7643 32.2815 21.783 32.2918 21.8031 32.2956C21.8365 32.2967 21.8695 32.288 21.8992 32.2705C21.9289 32.2529 21.9543 32.227 21.9729 32.1952C21.9947 32.1647 22.0086 32.1278 22.0132 32.0887C22.0177 32.0496 22.0127 32.0098 21.9986 31.9738C21.7413 31.3096 21.7928 30.5331 21.8262 29.8482V29.6002C21.8545 28.9241 21.852 28.2333 21.8494 27.5661V26.9992C21.8494 25.2781 21.8494 23.2528 21.8494 21.2571C21.8623 19.4444 21.8623 17.5165 21.7362 15.63C21.7053 15.196 21.6667 14.765 21.6281 14.334C21.5817 13.835 21.5354 13.3184 21.5045 12.8076C21.4685 12.164 21.4428 11.5116 21.4171 10.8769C21.4171 10.5816 21.3965 10.2687 21.381 9.9646C21.3656 9.56899 21.3347 9.16748 21.3064 8.78369C21.2601 8.14895 21.2138 7.4965 21.2163 6.847C21.2163 6.64034 21.2163 6.43073 21.2163 6.22407C21.2352 5.6946 21.2283 5.16434 21.1958 4.63574L20.8741 4.54717ZM17.3769 4.25195C17.0707 4.25195 16.9008 4.35528 16.8159 4.59441C16.7619 4.78506 16.735 4.98442 16.7362 5.18487C16.7362 5.25277 16.7362 5.31477 16.7233 5.37677V5.51257C16.7233 5.59228 16.7104 5.67495 16.7079 5.69266C16.7053 5.71037 16.7078 5.81075 16.6873 5.88456C16.6667 6.04988 16.6409 6.25359 16.6307 6.41597C16.5966 7.22439 16.6156 8.03461 16.6873 8.83978C16.7027 9.11434 16.7207 9.38891 16.7362 9.66051C16.852 11.9456 16.8082 14.2336 16.7362 16.7755C16.6795 18.9366 16.6538 21.2452 16.6538 23.8403V31.9C16.6589 31.9479 16.6792 31.992 16.7107 32.024C16.7422 32.056 16.7828 32.0737 16.8249 32.0737C16.867 32.0737 16.9077 32.056 16.9392 32.024C16.9707 31.992 16.9909 31.9479 16.9961 31.9C16.9961 30.664 16.9961 29.427 16.9961 28.189C16.9961 24.9681 16.9703 21.6379 17.0475 18.3668L17.0784 17.0678C17.1247 15.2787 17.1711 13.4306 17.1427 11.612C17.1247 10.5019 17.063 9.39186 17.0038 8.45008C16.947 7.50359 16.9633 6.55318 17.0527 5.60999C17.0527 5.52143 17.0681 5.42991 17.0758 5.34134L17.0913 5.13763C17.0929 5.11701 17.0929 5.09626 17.0913 5.07563C17.0913 4.88373 17.0913 4.73907 17.1762 4.66231C17.2611 4.58555 17.3383 4.60327 17.5442 4.62984H17.6265C17.8959 4.62984 18.1661 4.62984 18.4371 4.62984C18.8762 4.64677 19.3149 4.58907 19.7392 4.45861C19.8061 4.43794 19.8756 4.41137 19.9477 4.3848C20.1532 4.29945 20.3664 4.24102 20.5833 4.21062V4.16633L20.5267 3.82977C20.2824 3.87008 20.0414 3.93327 19.8061 4.01872C19.5172 4.12694 19.2185 4.19725 18.9158 4.22833C18.4357 4.25624 17.9548 4.25624 17.4747 4.22833L17.3769 4.25195ZM20.5987 3.85044L21.2138 4.55308C21.1957 4.37299 21.1752 4.1929 21.1443 4.01281C21.1363 3.98273 21.1217 3.95551 21.1018 3.93379C21.082 3.91207 21.0576 3.89658 21.0311 3.88882C20.8902 3.84574 20.7442 3.8288 20.5987 3.83863V3.85044Z" fill="#000"/>
<path d="M26.9955 32.4758C26.9955 29.7892 26.9955 27.1026 26.9955 24.419C26.9955 23.7636 26.9955 23.1111 26.9672 22.4587C26.9389 21.8062 26.8617 21.1715 26.8359 20.5279C26.8102 19.8843 26.8359 19.2053 26.8359 18.5469C26.8366 17.9531 26.7918 17.3604 26.7021 16.7756C26.6661 16.5512 26.6815 16.3239 26.6558 16.0995C26.6558 16.0611 26.6146 16.1379 26.6558 16.1379C26.7639 16.1379 26.8848 16.0788 26.9981 16.0729C27.5127 16.0493 28.0068 16.2707 28.5138 16.3061C28.7711 16.3209 29.0284 16.3061 29.2858 16.3357C29.4839 16.3386 29.6783 16.3974 29.8519 16.5069C30.0166 16.6693 29.9137 17.2066 29.9214 17.431C29.9446 18.045 30.0423 18.6503 30.1169 19.2555C30.1916 19.8607 30.2379 20.5338 30.2945 21.1715C30.3511 21.8092 30.4026 22.4646 30.4206 23.1111C30.4386 23.7577 30.3949 24.4101 30.4026 25.0596C30.4103 25.7091 30.593 26.3793 30.6136 27.0583C30.6342 27.7876 30.6136 28.5168 30.6136 29.243C30.6136 29.9693 30.6136 30.7192 30.6136 31.4336C30.6136 31.965 30.4901 32.5761 30.6599 33.081C30.6734 33.1414 30.7006 33.1965 30.739 33.2407C30.7773 33.2848 30.8252 33.3164 30.8778 33.3321C30.9303 33.3477 30.9856 33.347 31.0378 33.3298C31.09 33.3126 31.1373 33.2797 31.1746 33.2345C31.258 33.1342 31.3207 33.0136 31.3581 32.8818C31.3955 32.75 31.4067 32.6102 31.3908 32.4728C31.3522 32.0388 30.7526 32.0329 30.7937 32.4728C30.7937 32.582 30.8195 32.6618 30.75 32.7474L31.2647 32.9009C31.1051 32.4315 31.2364 31.7938 31.2364 31.3008C31.2364 30.6158 31.2364 29.9309 31.2364 29.2342C31.2364 28.5374 31.2672 27.823 31.2492 27.1174C31.2471 26.8076 31.223 26.4986 31.1772 26.1933C31.1063 25.8598 31.0598 25.5201 31.0382 25.1777C31.0228 24.4869 31.0742 23.7961 31.0562 23.1111C31.0382 22.4262 30.979 21.7265 30.9173 21.0445C30.8555 20.3626 30.8066 19.6895 30.7243 19.0193C30.6217 18.3781 30.5648 17.7284 30.5544 17.0767C30.5544 16.7224 30.5802 16.3121 30.3409 16.0463C30.1015 15.7806 29.6126 15.6832 29.2652 15.6507C28.9873 15.6242 28.7093 15.6507 28.4314 15.6153C28.1535 15.5799 27.8833 15.4972 27.6105 15.45C27.2116 15.3791 26.679 15.3112 26.3238 15.5887C26.015 15.8279 26.0871 16.3298 26.1257 16.6929C26.1592 16.9881 26.2286 17.2834 26.2595 17.5786C26.284 17.9272 26.2891 18.2773 26.275 18.6266C26.275 19.3086 26.2595 19.9935 26.2904 20.6755C26.3213 21.3575 26.4011 22.0956 26.4345 22.8071C26.504 24.3895 26.4345 25.9896 26.4345 27.575C26.4345 29.2125 26.4345 30.851 26.4345 32.4905C26.4345 32.5814 26.4659 32.6685 26.5219 32.7327C26.5779 32.7969 26.6539 32.833 26.733 32.833C26.8122 32.833 26.8881 32.7969 26.9441 32.7327C27.0001 32.6685 27.0315 32.5814 27.0315 32.4905L26.9955 32.4758Z" fill="#000"/>
<path d="M30.9342 33.4884H30.8622C30.7831 33.4698 30.7094 33.4287 30.6478 33.3689C30.5861 33.309 30.5386 33.2324 30.5096 33.146C30.4029 32.7476 30.3765 32.3266 30.4324 31.9149C30.4324 31.7554 30.453 31.596 30.453 31.4454V31.4071C30.453 30.7015 30.453 29.9723 30.453 29.2519V29.0541C30.453 28.4046 30.4788 27.7344 30.453 27.0761C30.437 26.7579 30.4026 26.4413 30.3501 26.1284C30.2889 25.7801 30.2528 25.4266 30.242 25.0715C30.242 24.7763 30.242 24.481 30.242 24.1858C30.242 23.8433 30.26 23.4861 30.242 23.1377C30.224 22.4646 30.1674 21.7886 30.1159 21.207L30.0696 20.6342C30.031 20.1943 29.995 19.7485 29.9409 19.2968C29.9229 19.1492 29.9023 19.0016 29.8843 18.851C29.8146 18.3899 29.7673 17.9247 29.7428 17.4576C29.7428 17.3926 29.7428 17.304 29.7428 17.2037C29.7428 17.0324 29.7762 16.7106 29.7067 16.6398C29.5589 16.5575 29.3975 16.5122 29.2333 16.5069C29.0777 16.4877 28.9213 16.4798 28.7649 16.4833C28.6542 16.4833 28.5462 16.4833 28.4381 16.4833C28.2102 16.4639 27.9839 16.4244 27.7613 16.3652C27.4901 16.2893 27.2118 16.2517 26.9327 16.253C26.8857 16.2561 26.8391 16.265 26.7937 16.2796L26.7371 16.2973C26.7371 16.3416 26.7371 16.3888 26.7371 16.4331C26.739 16.5498 26.7476 16.6661 26.7629 16.7815C26.8545 17.374 26.8993 17.9747 26.8967 18.5765V19.0577C26.8967 19.5389 26.8967 20.0379 26.8967 20.5338C26.9121 20.9294 26.943 21.3309 26.9739 21.7147C26.9919 21.9627 27.0124 22.2107 27.0279 22.4587C27.0639 23.0344 27.0614 23.616 27.0562 24.1799V24.4279C27.0562 26.2731 27.0562 28.1182 27.0562 29.9634V32.4846C27.0562 32.6146 27.0112 32.7393 26.9311 32.8312C26.851 32.9231 26.7423 32.9747 26.629 32.9747C26.5157 32.9747 26.4071 32.9231 26.327 32.8312C26.2469 32.7393 26.2019 32.6146 26.2019 32.4846C26.2019 31.6383 26.2019 30.7891 26.2019 29.9368V27.575C26.2019 27.0584 26.2019 26.5388 26.2019 26.0192C26.2173 24.9652 26.2302 23.8758 26.1839 22.8159C26.1684 22.4587 26.1401 22.0985 26.1118 21.7472C26.0835 21.3959 26.0577 21.0387 26.0397 20.6844C26.0166 20.1618 26.0192 19.6304 26.0217 19.1197V18.6267C26.0217 18.5322 26.0217 18.4348 26.0217 18.3314C26.0299 18.0852 26.0239 17.8387 26.0037 17.5934C25.9883 17.4487 25.9625 17.2981 25.9368 17.1682C25.9111 17.0383 25.8853 16.873 25.8699 16.7165V16.6693C25.8261 16.2826 25.767 15.7512 26.1272 15.4707C26.4875 15.1902 27.0331 15.2256 27.504 15.3083C27.6172 15.329 27.7278 15.3555 27.8411 15.3821C27.9991 15.4231 28.1588 15.4547 28.3197 15.4766C28.4587 15.4766 28.5976 15.4766 28.7469 15.4943C28.8961 15.512 29.0042 15.4943 29.1509 15.4943C29.5369 15.5297 30.0181 15.6124 30.3038 15.9312C30.5894 16.2501 30.5611 16.6604 30.5611 17.0088V17.0679C30.5668 17.6261 30.6115 18.1829 30.6949 18.7329L30.7284 18.9868C30.7901 19.4887 30.8339 19.9965 30.8751 20.4896L30.9214 21.021C30.9857 21.7236 31.0449 22.4115 31.0603 23.1053C31.0603 23.4566 31.0603 23.8138 31.0603 24.1592C31.0603 24.5046 31.0449 24.8412 31.0603 25.1807C31.0725 25.4404 31.1052 25.6983 31.1581 25.9513L31.1967 26.1727C31.2437 26.4848 31.2687 26.8007 31.2714 27.1174C31.2868 27.7699 31.2714 28.4312 31.2714 29.0689V29.246C31.2714 29.9044 31.2714 30.5361 31.2714 31.2978C31.2714 31.4543 31.2713 31.6196 31.2456 31.7909C31.2456 31.8853 31.2456 31.9798 31.2276 32.0861C31.2869 32.1253 31.3371 32.1805 31.3739 32.2468C31.4106 32.3131 31.4328 32.3886 31.4386 32.4669C31.46 32.6687 31.4315 32.8733 31.3563 33.0574L31.3794 33.1282H31.3331C31.2924 33.2107 31.2441 33.2879 31.189 33.3585C31.1213 33.437 31.0304 33.4833 30.9342 33.4884ZM30.7129 32.898C30.7226 32.9401 30.7347 32.9816 30.749 33.022C30.7622 33.0614 30.7837 33.0966 30.8115 33.1244C30.8393 33.1521 30.8726 33.1717 30.9085 33.1814C30.9318 33.1874 30.956 33.1856 30.9784 33.1762C31.0008 33.1668 31.0203 33.1501 31.0346 33.1282C31.0625 33.0936 31.0875 33.056 31.1092 33.0161L30.7129 32.898ZM30.8802 32.6441L31.0243 32.6854C31.0052 32.5537 30.9966 32.4203 30.9986 32.2868C30.9809 32.2864 30.9633 32.2906 30.9472 32.299C30.9311 32.3075 30.9168 32.3199 30.9055 32.3355C30.8941 32.3511 30.886 32.3694 30.8816 32.3891C30.8772 32.4087 30.8767 32.4293 30.8802 32.4492C30.8889 32.5168 30.8889 32.5854 30.8802 32.6529V32.6441ZM26.9764 15.5209C26.7575 15.506 26.5397 15.5667 26.3511 15.6951C26.1221 15.8722 26.1658 16.2855 26.2044 16.6103V16.6605C26.2199 16.8051 26.2456 16.9557 26.2688 17.0885C26.2919 17.2214 26.3202 17.3838 26.3383 17.5343C26.3609 17.7943 26.3669 18.0557 26.3563 18.3167C26.3563 18.4112 26.3563 18.5056 26.3563 18.6119C26.3563 18.7772 26.3563 18.9426 26.3563 19.1079C26.3563 19.6157 26.3563 20.1412 26.3743 20.6519C26.3897 21.0062 26.418 21.3575 26.4438 21.7088C26.4695 22.0602 26.5004 22.4233 26.5158 22.7835C26.5647 23.8551 26.5493 24.9504 26.5364 26.0103C26.5364 26.527 26.5209 27.0436 26.5209 27.5603V29.9221C26.5209 30.7723 26.5209 31.6196 26.5209 32.4699C26.5261 32.5178 26.5463 32.5619 26.5778 32.5939C26.6094 32.6259 26.65 32.6436 26.6921 32.6436C26.7342 32.6436 26.7748 32.6259 26.8063 32.5939C26.8379 32.5619 26.8581 32.5178 26.8632 32.4699C26.8632 31.6314 26.8632 30.79 26.8632 29.9486C26.8632 28.1035 26.8632 26.2583 26.8632 24.4102V24.1622C26.8632 23.6042 26.8632 23.0285 26.8323 22.4646C26.8169 22.2166 26.7989 21.9716 26.7809 21.7266C26.75 21.3339 26.7191 20.9294 26.7037 20.5279C26.6831 20.0349 26.6882 19.533 26.7037 19.0518C26.7037 18.8835 26.7037 18.7152 26.7037 18.547C26.7046 17.9621 26.6607 17.3782 26.5724 16.8022C26.5546 16.6742 26.5443 16.545 26.5416 16.4154C26.5416 16.3741 26.5416 16.3298 26.5416 16.2855H26.5235L26.5055 16.132C26.5044 16.0877 26.5174 16.0444 26.542 16.0101C26.5666 15.9759 26.6012 15.9531 26.6393 15.946H26.7629V15.9844H26.7886C26.8507 15.964 26.9145 15.9511 26.979 15.946C27.2782 15.9444 27.5763 15.985 27.8668 16.067C28.078 16.1208 28.292 16.1583 28.5076 16.1792C28.6122 16.1792 28.7177 16.1792 28.8241 16.1792C28.9805 16.1769 29.1368 16.1848 29.2924 16.2028C29.517 16.2057 29.737 16.2759 29.9306 16.4066C30.1005 16.5748 30.0747 16.9321 30.0541 17.2184C30.051 17.2912 30.051 17.3641 30.0541 17.4369C30.0775 17.8931 30.1231 18.3475 30.1905 18.7979C30.2111 18.9485 30.2317 19.0931 30.2497 19.2466C30.3038 19.6983 30.3424 20.1559 30.3784 20.5988L30.4247 21.1686C30.4788 21.759 30.5354 22.4381 30.5534 23.12C30.5534 23.4773 30.5534 23.8374 30.5534 24.1858C30.5534 24.481 30.5379 24.7763 30.5534 25.0715C30.566 25.4106 30.6013 25.7482 30.6589 26.0812C30.7154 26.4074 30.7506 26.738 30.7644 27.0702C30.785 27.7344 30.7644 28.4105 30.7644 29.063V29.2608C30.7489 29.9782 30.749 30.7074 30.749 31.41V31.4484C30.749 31.6078 30.7489 31.7702 30.7284 31.9385C30.7284 32.0329 30.7155 32.1245 30.7129 32.2189C30.7449 32.1608 30.7884 32.1121 30.8398 32.0767C30.8912 32.0414 30.9491 32.0203 31.0089 32.0152H31.0526L31.0681 31.7879C31.0681 31.6196 31.0912 31.4632 31.0912 31.3185C31.0912 30.5568 31.0912 29.9221 31.0912 29.2519V29.0777C31.0912 28.443 31.1144 27.7846 31.0912 27.141C31.0888 26.8441 31.0655 26.548 31.0217 26.2553L30.9831 26.0369C30.928 25.7663 30.8935 25.4907 30.8802 25.2132C30.8802 24.8678 30.8802 24.5165 30.8802 24.1799C30.8802 23.8433 30.8956 23.4861 30.8802 23.1407C30.8622 22.4558 30.8056 21.7738 30.7412 21.0741L30.6949 20.5427C30.6537 20.0526 30.61 19.5478 30.5482 19.0666L30.5174 18.8097C30.4306 18.2452 30.3841 17.6735 30.3784 17.1003V17.0383C30.3784 16.7165 30.3784 16.3859 30.2034 16.1792C29.9744 15.9224 29.5524 15.8545 29.2075 15.825C29.0789 15.825 28.9502 15.825 28.819 15.825C28.6877 15.825 28.523 15.825 28.3712 15.8043C28.2194 15.7836 28.0289 15.7452 27.8565 15.7069C27.751 15.6803 27.6429 15.6537 27.5349 15.636C27.352 15.586 27.1663 15.5514 26.979 15.5327L26.9764 15.5209Z" fill="#000"/>
<path d="M7.91991 9.05528V8.91947C7.91298 8.83375 7.87839 8.75409 7.82293 8.6961C7.76748 8.6381 7.69516 8.60596 7.62012 8.60596C7.54508 8.60596 7.47274 8.6381 7.41728 8.6961C7.36183 8.75409 7.32724 8.83375 7.32031 8.91947V32.0476C7.32724 32.1333 7.36183 32.213 7.41728 32.271C7.47274 32.329 7.54508 32.3611 7.62012 32.3611C7.69516 32.3611 7.76748 32.329 7.82293 32.271C7.87839 32.213 7.91298 32.1333 7.91991 32.0476V31.711C7.91298 31.6253 7.87839 31.5457 7.82293 31.4877C7.76748 31.4297 7.69516 31.3975 7.62012 31.3975C7.54508 31.3975 7.47274 31.4297 7.41728 31.4877C7.36183 31.5457 7.32724 31.6253 7.32031 31.711V32.0476C7.32724 32.1333 7.36183 32.213 7.41728 32.271C7.47274 32.329 7.54508 32.3611 7.62012 32.3611C7.69516 32.3611 7.76748 32.329 7.82293 32.271C7.87839 32.213 7.91298 32.1333 7.91991 32.0476V8.91947C7.91298 8.83375 7.87839 8.75409 7.82293 8.6961C7.76748 8.6381 7.69516 8.60596 7.62012 8.60596C7.54508 8.60596 7.47274 8.6381 7.41728 8.6961C7.36183 8.75409 7.32724 8.83375 7.32031 8.91947V9.05528C7.32724 9.141 7.36183 9.22066 7.41728 9.27865C7.47274 9.33665 7.54508 9.36879 7.62012 9.36879C7.69516 9.36879 7.76748 9.33665 7.82293 9.27865C7.87839 9.22066 7.91298 9.141 7.91991 9.05528Z" fill="#000"/>
<path d="M7.62215 32.5228C7.56637 32.5256 7.51067 32.5154 7.45844 32.4927C7.40622 32.4701 7.35856 32.4354 7.31836 32.391C7.27816 32.3465 7.24626 32.2931 7.22461 32.2341C7.20295 32.175 7.19199 32.1116 7.19239 32.0475V8.91939C7.20076 8.7956 7.24953 8.67999 7.32896 8.59566C7.40839 8.51132 7.51264 8.46448 7.62087 8.46448C7.72909 8.46448 7.83332 8.51132 7.91275 8.59566C7.99218 8.67999 8.04095 8.7956 8.04932 8.91939V32.0475C8.05008 32.1114 8.03945 32.1748 8.01808 32.2339C7.99671 32.2929 7.96506 32.3463 7.92507 32.3908C7.88507 32.4353 7.83757 32.47 7.78548 32.4927C7.7334 32.5154 7.67782 32.5256 7.62215 32.5228ZM7.44973 32.0475C7.44966 32.0728 7.45417 32.0979 7.46298 32.1211C7.47179 32.1444 7.48471 32.1652 7.50092 32.1825C7.51712 32.1997 7.53626 32.2128 7.55713 32.2211C7.578 32.2294 7.60014 32.2326 7.62215 32.2306C7.64404 32.2326 7.66607 32.2294 7.6868 32.2211C7.70754 32.2128 7.72652 32.1996 7.74253 32.1823C7.75853 32.1651 7.7712 32.1442 7.77972 32.1209C7.78824 32.0977 7.79242 32.0727 7.79199 32.0475V31.711C7.79206 31.6856 7.78754 31.6605 7.77873 31.6373C7.76992 31.6141 7.75701 31.5932 7.7408 31.576C7.72459 31.5588 7.70545 31.5456 7.68459 31.5374C7.66372 31.5291 7.64159 31.5259 7.61958 31.5279C7.59769 31.5258 7.57566 31.5291 7.55493 31.5374C7.53419 31.5457 7.51521 31.5589 7.4992 31.5761C7.4832 31.5934 7.47052 31.6143 7.46199 31.6375C7.45347 31.6607 7.44929 31.6858 7.44973 31.711V32.0475ZM7.61958 31.2327C7.67872 31.232 7.73737 31.245 7.79199 31.2711V9.49508C7.68209 9.54521 7.55963 9.54521 7.44973 9.49508V31.2652C7.50403 31.2418 7.56157 31.2298 7.61958 31.2297V31.2327ZM7.61958 8.73634C7.59747 8.73424 7.57522 8.73754 7.5543 8.74602C7.53338 8.7545 7.51426 8.76797 7.49821 8.78555C7.48217 8.80312 7.46955 8.8244 7.46119 8.84798C7.45284 8.87156 7.44892 8.8969 7.44973 8.92234V9.05814C7.45003 9.08334 7.4548 9.10821 7.46374 9.13124C7.47268 9.15426 7.48561 9.17496 7.50173 9.19208C7.51786 9.2092 7.53684 9.22238 7.55754 9.23082C7.57824 9.23926 7.60023 9.24278 7.62215 9.24118C7.64404 9.24325 7.66607 9.24003 7.6868 9.23172C7.70754 9.22342 7.72652 9.21021 7.74253 9.19296C7.75853 9.17571 7.7712 9.15479 7.77972 9.13157C7.78824 9.10835 7.79242 9.08333 7.79199 9.05814V8.92234C7.7935 8.89591 7.79008 8.86942 7.78195 8.84463C7.77382 8.81985 7.76117 8.79734 7.74485 8.77861C7.72853 8.75988 7.70891 8.74537 7.6873 8.73605C7.6657 8.72672 7.64261 8.7228 7.61958 8.72453V8.73634Z" fill="#000"/>
<path d="M17.1246 4.44684V4.31989H16.525C16.525 5.22919 16.6125 6.13259 16.6614 7.03893C16.7103 7.94528 16.7206 8.88706 16.7463 9.81112C16.7978 11.6297 16.8518 13.4483 16.8621 15.2699C16.8777 17.0719 16.7771 18.8728 16.561 20.6578C16.4555 21.5051 16.4529 22.3612 16.3654 23.2085C16.2779 24.0558 16.1724 24.8913 16.1416 25.7475C16.0644 27.7344 16.1879 29.7213 16.1905 31.7081C16.1974 31.7939 16.232 31.8735 16.2874 31.9315C16.3429 31.9895 16.4152 32.0217 16.4902 32.0217C16.5653 32.0217 16.6376 31.9895 16.6931 31.9315C16.7485 31.8735 16.7831 31.7939 16.79 31.7081C16.79 29.9368 16.6897 28.1654 16.7206 26.3941C16.7308 25.5288 16.7875 24.6651 16.8904 23.8079C17.001 22.9635 17.0268 22.1162 17.0963 21.2659C17.1658 20.4157 17.3047 19.4946 17.3536 18.6089C17.4025 17.7232 17.4437 16.8169 17.4488 15.9223C17.4488 14.1096 17.4025 12.2999 17.351 10.4901C17.3227 9.45094 17.3124 8.40584 17.2635 7.36664C17.2146 6.32744 17.1246 5.33842 17.1117 4.31694C17.1048 4.23122 17.0702 4.15155 17.0147 4.09356C16.9593 4.03557 16.8869 4.00342 16.8119 4.00342C16.7369 4.00342 16.6645 4.03557 16.6091 4.09356C16.5536 4.15155 16.5191 4.23122 16.5121 4.31694V4.44388C16.5191 4.5296 16.5536 4.60926 16.6091 4.66726C16.6645 4.72525 16.7369 4.7574 16.8119 4.7574C16.8869 4.7574 16.9593 4.72525 17.0147 4.66726C17.0702 4.60926 17.1048 4.5296 17.1117 4.44388L17.1246 4.44684Z" fill="#000"/>
<path d="M16.4891 32.1863C16.4332 32.1892 16.3774 32.1788 16.3251 32.156C16.2729 32.1331 16.2253 32.0981 16.1852 32.0533C16.1452 32.0085 16.1136 31.9547 16.0924 31.8954C16.0712 31.836 16.0608 31.7722 16.0619 31.7081C16.0619 30.9611 16.0439 30.1994 16.0259 29.4643C15.995 28.245 15.9641 26.9844 16.0259 25.7415C16.0516 25.0595 16.1237 24.3835 16.1957 23.7281C16.2138 23.5509 16.2343 23.3708 16.2523 23.1907C16.2909 22.8099 16.3141 22.4202 16.3347 22.0394C16.3604 21.5788 16.3887 21.1035 16.4453 20.637C16.6634 18.8592 16.7641 17.065 16.7464 15.2698C16.7464 13.5722 16.6898 11.8451 16.6435 10.1742V9.81694C16.6435 9.55123 16.6281 9.28848 16.6229 9.02277C16.6075 8.37623 16.592 7.70606 16.556 7.0477C16.556 6.7879 16.5251 6.52515 16.5097 6.26535C16.4737 5.69261 16.4376 5.10215 16.4222 4.5117C16.4222 4.49103 16.4222 4.47036 16.4222 4.44675V4.17514H16.4428C16.4691 4.07656 16.5229 3.99059 16.5959 3.93036C16.6688 3.87012 16.7569 3.83892 16.8468 3.84153C16.9378 3.83795 17.0272 3.86862 17.1016 3.92886C17.1759 3.98909 17.231 4.07559 17.2585 4.17514H17.2765V4.3198C17.2765 4.95749 17.328 5.60404 17.3666 6.22992C17.3898 6.60781 17.4129 6.98275 17.4309 7.36064C17.4618 8.06624 17.4798 8.78364 17.4953 9.47743L17.5184 10.4871V10.924C17.5647 12.5626 17.6111 14.2572 17.6034 15.9252C17.6034 16.8876 17.5673 17.7704 17.5081 18.6236C17.4747 19.1077 17.4181 19.5919 17.364 20.0613C17.3177 20.4599 17.2714 20.8732 17.2379 21.2777C17.2148 21.5729 17.1968 21.8504 17.1762 22.1368C17.1402 22.6918 17.1041 23.2646 17.0321 23.8284C16.9281 24.6796 16.8714 25.5375 16.8622 26.3969C16.8442 27.4125 16.8622 28.4488 16.8931 29.4525C16.9111 30.1906 16.9291 30.9552 16.9291 31.7081C16.9306 31.7721 16.9206 31.8358 16.8996 31.8951C16.8787 31.9545 16.8474 32.0083 16.8075 32.0532C16.7677 32.0981 16.7202 32.133 16.6681 32.1559C16.616 32.1788 16.5603 32.1892 16.5045 32.1863H16.4891ZM16.6692 4.89549C16.6872 5.34719 16.7155 5.80184 16.7438 6.24468L16.7902 7.02999C16.8262 7.6913 16.8416 8.36442 16.8571 9.01687C16.8571 9.27962 16.8571 9.54238 16.8751 9.80513V10.1653C16.9214 11.8363 16.9703 13.5663 16.9806 15.2698C16.9973 17.0788 16.8958 18.8867 16.677 20.6784C16.6203 21.136 16.5946 21.6054 16.5689 22.06C16.5457 22.4409 16.5226 22.8365 16.484 23.2409C16.4659 23.421 16.4453 23.6011 16.4273 23.7782C16.3553 24.4278 16.2832 25.1009 16.2575 25.7681C16.2112 26.9992 16.2421 28.2569 16.2575 29.4702C16.2755 30.2083 16.2935 30.9729 16.2961 31.7228C16.2957 31.7484 16.2999 31.7738 16.3086 31.7974C16.3172 31.821 16.3301 31.8422 16.3463 31.8597C16.3626 31.8772 16.3818 31.8907 16.4029 31.8991C16.4239 31.9076 16.4463 31.9109 16.4685 31.9088C16.4906 31.9109 16.5129 31.9076 16.5338 31.8991C16.5547 31.8907 16.5738 31.8772 16.5899 31.8596C16.6059 31.842 16.6185 31.8208 16.6269 31.7972C16.6352 31.7736 16.6392 31.7483 16.6383 31.7228C16.6383 30.9759 16.6178 30.2113 16.5997 29.4761C16.5766 28.4694 16.5508 27.4302 16.5689 26.4058C16.5777 25.5335 16.6353 24.6627 16.7413 23.7989C16.8133 23.2468 16.8494 22.68 16.8854 22.1309C16.9034 21.8357 16.9214 21.5404 16.9446 21.2659C16.9806 20.8555 17.0269 20.4392 17.0732 20.0377C17.1273 19.5713 17.1839 19.09 17.2148 18.6147C17.274 17.7674 17.3048 16.8906 17.31 15.937C17.31 14.2749 17.2714 12.5832 17.2251 10.9477V10.5137C17.2251 10.1742 17.2071 9.8376 17.1993 9.50104C17.1839 8.80726 17.1685 8.09281 17.135 7.39312C17.1196 7.01523 17.0964 6.64029 17.0707 6.26535C17.0424 5.8166 17.0141 5.35605 16.996 4.89549C16.8897 4.93767 16.7737 4.93453 16.6692 4.88664V4.89549ZM16.6692 4.48513C16.6777 4.52804 16.6991 4.56612 16.7298 4.59261C16.7604 4.6191 16.7982 4.63227 16.8365 4.62979C16.8776 4.63313 16.9182 4.61809 16.9499 4.58782C16.9816 4.55755 17.0018 4.5144 17.0063 4.46741H16.6692V4.48513ZM16.7258 4.1899H16.9446C16.911 4.16692 16.873 4.15375 16.8339 4.15152C16.7924 4.14387 16.7499 4.15217 16.713 4.17514L16.7258 4.1899Z" fill="#000"/>
<path d="M26.2321 16.1585C26.2321 17.5372 26.2501 18.9159 26.317 20.2917C26.3839 21.6674 26.5486 22.9487 26.5743 24.2861C26.6001 25.6235 26.5743 26.9638 26.5743 28.3012V32.4728C26.5743 32.5636 26.6058 32.6507 26.6618 32.7149C26.7177 32.7791 26.7937 32.8152 26.8728 32.8152C26.952 32.8152 27.0279 32.7791 27.0839 32.7149C27.1399 32.6507 27.1713 32.5636 27.1713 32.4728V28.3041C27.1713 26.9668 27.2125 25.6264 27.1713 24.289C27.1302 22.9517 26.9783 21.632 26.914 20.2946C26.8497 18.9572 26.8291 17.5372 26.8265 16.1614C26.8265 16.0706 26.7951 15.9835 26.7391 15.9193C26.6831 15.855 26.6072 15.819 26.528 15.819C26.4488 15.819 26.3729 15.855 26.3169 15.9193C26.261 15.9835 26.2295 16.0706 26.2295 16.1614L26.2321 16.1585Z" fill="#000"/>
<path d="M26.865 32.9569C26.809 32.9593 26.7531 32.9485 26.7008 32.9253C26.6486 32.9021 26.601 32.8669 26.561 32.8219C26.521 32.7768 26.4894 32.7229 26.4682 32.6633C26.4471 32.6038 26.4367 32.5399 26.4378 32.4756V28.3041C26.4378 27.8169 26.4378 27.3269 26.4378 26.8279C26.4378 25.9924 26.4558 25.1304 26.4378 24.286C26.4224 23.5184 26.358 22.742 26.2988 21.9891C26.2525 21.4341 26.2062 20.8614 26.1805 20.2916C26.1213 19.0871 26.093 17.8087 26.093 16.1584C26.0906 16.0755 26.1081 15.9934 26.1435 15.9211C26.1788 15.8488 26.2308 15.7889 26.2937 15.748C26.3627 15.703 26.4407 15.6793 26.5201 15.6793C26.5995 15.6793 26.6776 15.703 26.7466 15.748C26.8095 15.7889 26.8615 15.8488 26.8968 15.9211C26.9322 15.9934 26.9497 16.0755 26.9473 16.1584C26.9473 17.8117 26.9756 19.0841 27.0348 20.2916C27.0605 20.8525 27.1069 21.4223 27.1532 21.9744C27.2124 22.7331 27.2767 23.5155 27.2921 24.2919C27.3127 25.1451 27.2921 26.0101 27.2921 26.8486C27.2921 27.3357 27.2921 27.8228 27.2921 28.31V32.4815C27.2929 32.5455 27.2823 32.6089 27.2609 32.6679C27.2395 32.7269 27.2079 32.7803 27.1679 32.8249C27.1279 32.8694 27.0804 32.904 27.0283 32.9267C26.9762 32.9494 26.9207 32.9597 26.865 32.9569ZM26.5304 15.9724C26.4953 15.9717 26.4606 15.9819 26.4301 16.0019C26.4071 16.0181 26.3884 16.0413 26.3761 16.0689C26.3639 16.0966 26.3585 16.1275 26.3606 16.1584C26.3606 17.8117 26.3863 19.0841 26.4455 20.2916C26.4738 20.8525 26.5201 21.4253 26.5639 21.9773C26.6257 22.7331 26.6874 23.5155 26.7054 24.2919C26.7235 25.1451 26.7054 26.0101 26.7054 26.8456C26.7054 27.3357 26.7054 27.8228 26.7054 28.3218V32.4933C26.7106 32.5413 26.7308 32.5854 26.7623 32.6174C26.7939 32.6494 26.8345 32.667 26.8765 32.667C26.9186 32.667 26.9593 32.6494 26.9908 32.6174C27.0223 32.5854 27.0426 32.5413 27.0477 32.4933V28.3041C27.0477 27.8169 27.0477 27.3269 27.0477 26.8279C27.0477 25.9954 27.0657 25.1304 27.0477 24.286C27.0297 23.5184 26.9679 22.742 26.9061 21.9891C26.8624 21.4341 26.8161 20.8584 26.7878 20.2916C26.7286 19.0871 26.7029 17.8087 26.7029 16.1584C26.7047 16.1272 26.6989 16.0961 26.6862 16.0684C26.6735 16.0408 26.6543 16.0178 26.6308 16.0019C26.6003 15.9819 26.5656 15.9717 26.5304 15.9724Z" fill="#000"/>
<path d="M0.5758 2.05544C1.09047 1.72479 1.45331 1.20814 1.86247 0.715107L1.49962 0.768248H1.51764C1.53347 0.783475 1.54811 0.800269 1.56138 0.818437L1.60514 0.871578C1.59227 0.871578 1.59227 0.871578 1.60514 0.871578C1.6479 0.949051 1.68574 1.02996 1.71836 1.11366C1.77056 1.26723 1.83071 1.41708 1.8985 1.56241C1.97313 1.70707 2.06834 1.83992 2.15584 1.97868C2.19701 2.04658 2.23817 2.11744 2.2742 2.19125L2.29994 2.25324C2.29994 2.22077 2.29994 2.22372 2.29994 2.25324C2.29994 2.28277 2.31795 2.392 2.31281 2.30638C2.31538 2.39706 2.34792 2.48321 2.40384 2.54736C2.45976 2.61151 2.53485 2.64885 2.61388 2.6518C2.69308 2.65026 2.76861 2.61328 2.82438 2.54875C2.88015 2.48422 2.91172 2.39725 2.91238 2.30638C2.88408 1.86354 2.6036 1.56831 2.41317 1.20518C2.32053 1.02805 2.29478 0.886339 2.20729 0.691489C2.11019 0.476258 1.96556 0.294034 1.78783 0.163031C1.73027 0.125819 1.66371 0.111162 1.59823 0.121285C1.53274 0.131408 1.47192 0.165759 1.425 0.219125C1.05959 0.673775 0.737909 1.155 0.274708 1.45022C0.210626 1.49833 0.165115 1.57285 0.14758 1.65837C0.130044 1.7439 0.141831 1.83388 0.180501 1.90971C0.21917 1.98555 0.28177 2.04144 0.355345 2.06581C0.428919 2.09019 0.507845 2.08119 0.5758 2.04068V2.05544Z" fill="#000"/>
<path d="M2.60025 2.82013C2.51708 2.81995 2.43576 2.79192 2.36628 2.73948C2.29679 2.68703 2.24217 2.61246 2.2091 2.52491L2.17565 2.31825L2.15763 2.27692C2.12377 2.20786 2.08684 2.14086 2.04698 2.07616L1.96207 1.94331C1.89901 1.8487 1.84057 1.75014 1.78707 1.64808C1.73472 1.5428 1.68914 1.43327 1.65069 1.32038L1.61981 1.23181C1.34364 1.60547 1.0159 1.92462 0.649657 2.17654C0.57749 2.22829 0.493434 2.25397 0.40839 2.25024C0.323347 2.24651 0.241245 2.21355 0.172731 2.15563C0.104216 2.09771 0.0524435 2.01751 0.0241478 1.92543C-0.0041479 1.83334 -0.0076585 1.73363 0.0140486 1.63922C0.0427656 1.51508 0.113042 1.40898 0.209609 1.344C0.560387 1.09124 0.871062 0.771756 1.12829 0.399268L1.3316 0.14242C1.39814 0.0665735 1.48459 0.017963 1.57761 0.0040902C1.67063 -0.0097826 1.76503 0.0118531 1.84627 0.0656598C2.03866 0.214098 2.1939 0.417641 2.2966 0.656115C2.3352 0.741731 2.36093 0.81849 2.38666 0.889345C2.41715 0.983135 2.45415 1.07396 2.49731 1.16095C2.54878 1.25838 2.6054 1.3499 2.66459 1.44142C2.8529 1.69201 2.97439 1.99947 3.01456 2.3271C3.01735 2.38893 3.00896 2.45074 2.98992 2.50866C2.97087 2.56658 2.94159 2.61935 2.90391 2.66366C2.82462 2.75969 2.71549 2.81592 2.60025 2.82013ZM2.42785 2.31825C2.42551 2.35946 2.43464 2.40045 2.45393 2.43531C2.47323 2.47017 2.50168 2.4971 2.53518 2.51221C2.56868 2.52732 2.6055 2.52983 2.64032 2.51938C2.67514 2.50892 2.70617 2.48605 2.72892 2.45405C2.74228 2.43911 2.75283 2.42118 2.75991 2.40138C2.76699 2.38157 2.77046 2.36032 2.77009 2.33891C2.73354 2.06572 2.62899 1.81045 2.46901 1.6038C2.40725 1.50637 2.34549 1.40599 2.29145 1.30857C2.24177 1.21425 2.19874 1.11553 2.16278 1.01334C2.13962 0.945438 2.11389 0.877537 2.08043 0.797825L2.03927 0.709256L1.94148 0.8303L1.7948 1.01629L1.8231 1.0842C1.84111 1.13143 1.85913 1.17867 1.87457 1.22886C1.908 1.3303 1.94756 1.42895 1.99295 1.52408C2.04184 1.61561 2.09846 1.70417 2.15507 1.79274C2.18595 1.83702 2.21425 1.88426 2.24513 1.9315C2.27601 1.97873 2.30431 2.03483 2.33262 2.08797H2.35063L2.40468 2.24739V2.27101C2.40468 2.27101 2.40468 2.30053 2.40468 2.32415V2.35367L2.42785 2.31825ZM1.20551 0.724018C0.958404 1.06376 0.664608 1.35495 0.335716 1.58608C0.31724 1.59792 0.301073 1.61398 0.288236 1.63328C0.275398 1.65258 0.266154 1.6747 0.261079 1.69827C0.254541 1.72374 0.252537 1.75045 0.255189 1.77683C0.257842 1.8032 0.265096 1.8287 0.276519 1.85179C0.300503 1.89625 0.33867 1.92822 0.382883 1.9409C0.427096 1.95358 0.473879 1.94597 0.513278 1.91969C0.879036 1.66217 1.20511 1.33696 1.47828 0.957248L1.45511 0.927724L1.42424 0.892298L1.20551 0.724018ZM1.64296 0.269367C1.59746 0.268815 1.55342 0.287765 1.51945 0.322509C1.45254 0.408125 1.38563 0.490788 1.3213 0.576404L1.26469 0.647258L1.95177 0.546882C1.88582 0.44762 1.80579 0.361791 1.71502 0.292986C1.69297 0.279308 1.66796 0.27316 1.64296 0.275271V0.269367Z" fill="#000"/>
<path d="M38.9487 30.7486C39.0002 31.59 39.8674 31.835 40.3718 32.2424C40.4723 32.3204 40.5509 32.4302 40.5982 32.5583C40.5982 32.5406 40.5982 32.5141 40.5982 32.4993L40.5313 32.6056C40.4644 32.7089 40.3898 32.8063 40.3254 32.9008C40.2043 33.1368 40.106 33.3873 40.0321 33.6477C39.9153 33.8871 39.7855 34.1178 39.6435 34.3386L40.2019 34.5098C40.2019 34.4685 40.2019 34.4271 40.2019 34.3858C40.2012 34.2949 40.1697 34.208 40.1139 34.1434C40.0581 34.0789 39.9826 34.0419 39.9034 34.0404C39.8244 34.0433 39.7493 34.0807 39.6934 34.1448C39.6375 34.209 39.6049 34.2951 39.6023 34.3858V34.5098C39.5663 34.8611 40.0243 34.9644 40.1607 34.684C40.3044 34.4539 40.4375 34.2155 40.5596 33.9695C40.6382 33.6974 40.7444 33.4368 40.8761 33.1931C41.008 33.0394 41.1098 32.8552 41.1746 32.6528C41.1896 32.5165 41.1767 32.378 41.1369 32.2484C41.0972 32.1187 41.0317 32.0015 40.9456 31.9059C40.7045 31.6387 40.4239 31.4228 40.117 31.2682C39.9751 31.1818 39.8392 31.0831 39.7104 30.973L39.6358 30.8962C39.6161 30.8773 39.5988 30.8555 39.5843 30.8313C39.5843 30.8313 39.5406 30.7368 39.5637 30.7958C39.5637 30.7781 39.5405 30.663 39.5457 30.7279C39.52 30.291 38.9204 30.2851 38.9461 30.7279L38.9487 30.7486Z" fill="#000"/>
<path d="M39.9037 34.9998C39.8531 35.0001 39.8027 34.9912 39.7545 34.9733C39.6667 34.9468 39.5902 34.8846 39.5396 34.7982C39.4889 34.7118 39.4674 34.6071 39.4791 34.5038V34.4477H39.4508L39.4894 34.368C39.496 34.2847 39.5204 34.2045 39.5603 34.1345C39.6002 34.0645 39.6545 34.0068 39.7185 33.9665C39.796 33.8575 39.8609 33.7374 39.9115 33.6093C39.9346 33.5443 39.9552 33.4794 39.9758 33.4145C40.0345 33.2068 40.1157 33.0084 40.2177 32.824C40.2614 32.7502 40.3103 32.6793 40.3592 32.6114L40.4287 32.5111C40.3908 32.4528 40.3457 32.4011 40.2949 32.3575C40.1555 32.2486 40.0103 32.15 39.86 32.0623C39.3917 31.7671 38.859 31.4512 38.8152 30.7456C38.8087 30.6674 38.8206 30.5887 38.8495 30.5176C38.8785 30.4465 38.9235 30.3856 38.9799 30.3411C39.0471 30.2925 39.124 30.2646 39.2033 30.2599C39.2827 30.2553 39.3617 30.2741 39.4328 30.3146C39.5225 30.3642 39.5937 30.449 39.6335 30.5537L39.6696 30.7367C39.6764 30.7511 39.6842 30.7649 39.6927 30.7781L39.7107 30.7958L39.7776 30.8666C39.9008 30.9686 40.0308 31.0594 40.1662 31.1382L40.3026 31.2239C40.5754 31.3667 40.8225 31.5669 41.0309 31.8143C41.1336 31.9265 41.2108 32.066 41.2557 32.2204C41.3006 32.3748 41.3117 32.5395 41.2882 32.7C41.2421 32.8802 41.1591 33.0452 41.0463 33.1812C41.0206 33.2196 40.9923 33.255 40.9665 33.2964C40.8716 33.4581 40.7963 33.6339 40.7426 33.8189C40.7169 33.8927 40.6938 33.9665 40.6655 34.0403C40.6003 34.1986 40.5201 34.3482 40.4261 34.4861C40.3824 34.557 40.3386 34.6219 40.3 34.6928V34.7046L40.2666 34.7636C40.2301 34.8367 40.1772 34.8972 40.1134 34.9388C40.0495 34.9803 39.9771 35.0014 39.9037 34.9998ZM39.7339 34.5275C39.73 34.5629 39.7379 34.5987 39.7561 34.6277C39.7742 34.6567 39.8012 34.6768 39.8317 34.6839C39.8696 34.7015 39.9115 34.7043 39.951 34.6921C39.9905 34.6798 40.0254 34.6531 40.0504 34.616L39.7339 34.5275ZM39.8497 34.2558L40.0865 34.3297C40.0789 34.31 40.0685 34.2921 40.0556 34.2765C40.0343 34.2496 40.0079 34.2287 39.9785 34.2154C39.949 34.202 39.9173 34.1967 39.8857 34.1998L39.8497 34.2558ZM40.053 33.9311C40.1281 33.9618 40.1953 34.0136 40.2486 34.0817C40.2732 34.1127 40.294 34.1475 40.3103 34.185C40.3623 34.1016 40.4071 34.0126 40.4441 33.9193C40.4699 33.8484 40.4956 33.7776 40.5188 33.7067C40.58 33.4971 40.6666 33.2983 40.7761 33.1163C40.8044 33.072 40.8353 33.0307 40.8636 32.9893C40.9501 32.8886 41.0153 32.7664 41.054 32.6321C41.0647 32.5184 41.0521 32.4035 41.0173 32.2964C40.9824 32.1892 40.9263 32.0929 40.8533 32.0151C40.6643 31.797 40.4418 31.6209 40.1971 31.4955L40.0581 31.4099C39.9092 31.3245 39.7664 31.2258 39.631 31.1146L39.5692 31.0526C39.5409 31.026 39.5158 30.9952 39.4946 30.9611C39.4817 30.9428 39.4705 30.923 39.4611 30.9021C39.4801 30.9263 39.5053 30.9429 39.5332 30.9493C39.561 30.9557 39.5899 30.9515 39.6155 30.9375L39.5666 30.8253V30.8814V30.8253L39.456 30.8784L39.4071 30.7515L39.4251 30.7367C39.4207 30.7067 39.41 30.6783 39.3939 30.6541C39.3777 30.6299 39.3566 30.6106 39.3325 30.598C39.3023 30.5796 39.2688 30.57 39.2347 30.57C39.2006 30.57 39.167 30.5796 39.1369 30.598C39.1171 30.6132 39.1017 30.6347 39.0925 30.6599C39.0834 30.6851 39.0809 30.7129 39.0854 30.7397C39.1189 31.28 39.564 31.5516 39.9938 31.8143C40.153 31.9006 40.3069 31.9992 40.4544 32.1095C40.5757 32.2059 40.6704 32.3401 40.7272 32.4963L40.6552 32.5258L40.7092 32.5731C40.6997 32.5871 40.6911 32.6019 40.6835 32.6173L40.6449 32.6823L40.5728 32.7856C40.5265 32.8506 40.4828 32.9126 40.4416 32.9805C40.3529 33.1431 40.282 33.3176 40.2305 33.5001L40.1611 33.7008C40.1322 33.7826 40.096 33.8608 40.053 33.9341V33.9311Z" fill="#000"/>
</svg>
