<svg width="38" height="34" viewBox="0 0 38 34" fill="none" xmlns="http://www.w3.org/2000/svg">
<path d="M37.0562 12.4915C36.997 12.4336 36.9421 12.3721 36.892 12.3074C36.6765 12.2462 36.4556 12.2024 36.2318 12.1763C35.1405 12.0733 34.0493 12.0172 32.982 12.0078C31.9147 11.9984 30.7687 12.0078 29.3559 12.0078H24.3444L24.2658 11.8393C24.1768 11.6521 24.0845 11.4742 23.9989 11.3026C23.8158 10.966 23.657 10.6189 23.5234 10.2635C23.0616 8.9779 22.6067 7.6642 22.1551 6.39731C21.7754 5.29892 21.3786 4.15998 20.9852 3.04599C20.8313 2.61849 20.6431 2.18787 20.4892 1.77285C20.3455 1.41401 20.195 1.04269 20.0582 0.671357C20.0219 0.478867 19.9105 0.30486 19.7444 0.181526C19.5784 0.0581926 19.369 -0.00612977 19.155 0.00046056L19.0182 0.21577C18.854 0.481005 18.6761 0.75248 18.5325 1.03332L17.5062 2.9555C16.2063 5.39255 14.8653 7.9107 13.5894 10.407C13.1447 11.2776 12.5631 11.6552 11.684 11.6552H11.4514C9.85384 11.5491 8.15368 11.468 5.94041 11.3931C4.60629 11.3463 3.20375 11.3245 1.49334 11.3245H1.43861C1.13137 11.3393 0.829816 11.406 0.549202 11.521C0.426661 11.5525 0.313784 11.6095 0.219418 11.6875C0.125052 11.7654 0.0517518 11.8622 0.00528247 11.9704C-0.00847256 12.0774 0.00472212 12.1859 0.0438461 12.2875C0.08297 12.3892 0.146993 12.4813 0.231058 12.557C0.505858 12.8379 0.80439 13.0988 1.1239 13.3371L1.46598 13.6055L7.76029 18.7417L9.6999 20.3206L9.82988 20.4267L9.79568 20.5827L9.39544 22.4549C8.64628 25.9498 7.88344 29.4946 7.13086 33.0113V33.0394C7.3498 33.1508 7.59519 33.2119 7.84581 33.2173C8.34525 33.2173 8.77627 32.9364 9.23124 32.64L9.27914 32.6088C11.619 31.0923 14.0067 29.5352 16.3123 28.0312L18.878 26.3586L19.0456 26.2494L19.2166 26.3461C21.3375 27.535 23.1472 29.0671 24.8986 30.5493C26.2663 31.7364 27.7151 32.8432 29.2362 33.8632C29.2955 33.8776 29.3538 33.8953 29.4107 33.9163L29.5749 33.8881L29.6672 33.8101L29.7049 33.7228C29.7126 33.7035 29.7217 33.6847 29.7322 33.6666C29.7664 33.573 29.8006 33.4794 29.8383 33.3858C29.8759 33.2922 29.8759 33.2765 29.8964 33.2235L29.9204 33.1674C29.9082 32.9579 29.8808 32.7494 29.8383 32.5433L29.6946 31.8724C28.9694 28.5429 28.2168 25.1011 27.4027 21.731C27.1358 20.6326 27.4026 19.9243 28.3571 19.294C30.8782 17.6027 33.5054 15.7929 36.6252 13.5899C36.762 13.4885 36.8869 13.3745 36.9981 13.2497C37.0357 13.0906 37.0699 12.9377 37.1007 12.791L37.1212 12.6662L37.0938 12.5913C37.0836 12.5726 37.0699 12.5321 37.0562 12.4915ZM33.7893 13.9955L32.9444 14.5541C32.4552 14.8817 32.031 15.1782 31.6069 15.4278C30.9672 15.8303 30.3138 16.2329 29.6809 16.6198C28.4836 17.3593 27.2453 18.1207 26.0583 18.904C25.4391 19.3127 25.1689 19.528 25.0936 19.7215C25.0183 19.915 25.0936 20.2582 25.2749 20.8511C25.2989 20.9385 25.3262 21.0258 25.3536 21.1226C25.9488 23.2507 26.4961 25.385 27.064 27.6473C27.3103 28.6115 27.5668 29.6101 27.8337 30.6367L28.0663 31.5198L27.3308 30.8957L26.4859 30.1842C25.983 29.7567 25.5486 29.3885 25.1175 29.0422C24.731 28.7301 24.3444 28.4181 23.9681 28.1061C22.8632 27.2167 21.7207 26.2993 20.5473 25.4693C19.8632 24.9856 19.4527 24.7984 19.0935 24.7984C18.6796 24.7984 18.2109 25.0605 17.5438 25.5192C15.7719 26.7299 13.9759 27.9687 12.2381 29.167C11.2666 29.8347 10.2062 30.8676 9.05679 31.2577C9.07689 30.6769 9.17454 30.1006 9.34756 29.5414C9.45702 29.0266 9.57333 28.4961 9.68964 27.9812L10.0591 26.4553C10.4901 24.6829 10.9314 22.8544 11.4274 21.0633C11.5463 20.7698 11.5536 20.4484 11.4481 20.1507C11.3427 19.8531 11.1305 19.5964 10.8459 19.4219C9.03625 18.0271 7.22322 16.5824 5.47176 15.1875L3.78872 13.8489C3.59031 13.6897 3.40216 13.5368 3.18323 13.3371C2.74947 13.0243 2.336 12.6889 1.94489 12.3323C3.59715 12.0921 5.48544 12.4572 7.14796 12.5726C8.97126 12.7006 10.8596 12.8316 12.7136 12.9408H13.0831C14.1435 12.9408 14.4275 12.6288 14.9201 11.4898C15.8403 9.33988 16.8392 7.18053 17.8072 5.08986C18.2417 4.15373 18.5085 2.7433 19.4082 2.08802C19.4269 2.06999 19.4499 2.05613 19.4754 2.04747C19.5009 2.03881 19.5282 2.03561 19.5553 2.0381C19.5895 2.05145 19.619 2.07303 19.6408 2.10051C19.8426 2.35951 19.805 2.78699 19.8905 3.10215C19.9931 3.48284 20.1368 3.85419 20.2566 4.22864L20.821 5.95734L22.9898 12.6007C24.0928 12.9294 25.2511 13.0763 26.4106 13.0344H27.6011H28.1073C29.2773 13.0532 30.413 13.1655 31.7266 13.2934C32.3355 13.3527 32.9649 13.4151 33.6422 13.4713L34.4564 13.5399L33.7893 13.9955Z" fill="white"/>
</svg>
