<svg width="41" height="42" viewBox="0 0 41 42" fill="none" xmlns="http://www.w3.org/2000/svg">
<ellipse cx="20.0426" cy="21.0508" rx="20.0426" ry="20.1133" fill="#195BA7"/>
<path d="M22.6847 15.8542H24.361C24.5924 15.8542 24.78 15.6676 24.78 15.4375C24.78 15.2074 24.5924 15.0209 24.361 15.0209H23.1037V11.2708H27.2944C27.4639 11.2708 27.6167 11.1693 27.6815 11.0136C27.7463 10.858 27.7105 10.6788 27.5907 10.5596L26.6298 9.6042L27.5908 8.64873C27.7107 8.52959 27.7466 8.35029 27.6817 8.19458C27.6168 8.03892 27.464 7.93745 27.2945 7.9375H22.6847C22.4532 7.9375 22.2656 8.12402 22.2656 8.35415V15.4375C22.2656 15.6676 22.4532 15.8542 22.6847 15.8542ZM23.1037 8.77085H26.2828L25.741 9.30957C25.5774 9.47227 25.5774 9.73604 25.741 9.89873L26.2828 10.4375H23.1037V8.77085Z" fill="white"/>
<path d="M25.1991 12.1041H24.3609C24.1294 12.1041 23.9418 12.2907 23.9418 12.5208C23.9418 12.7509 24.1294 12.9374 24.3609 12.9374H25.1991C27.9756 12.9393 30.2261 15.1768 30.2279 17.9374V24.1874H23.1037C22.8722 24.1874 22.6846 24.374 22.6846 24.6041C22.6846 24.8342 22.8722 25.0207 23.1037 25.0207H30.2279V25.8541H21.8465V17.9375C21.8509 16.3895 21.2322 14.9041 20.1283 13.8125C19.7862 13.4757 19.404 13.1819 18.99 12.9375H21.0083C21.2398 12.9375 21.4274 12.7509 21.4274 12.5208C21.4274 12.2907 21.2398 12.1042 21.0083 12.1042H15.9794C13.23 12.12 10.8553 14.0203 10.252 16.6875H9.27431C8.57999 16.6875 8.01709 17.2471 8.01709 17.9375V23.7708C8.01709 24.4612 8.57999 25.0208 9.27431 25.0208H10.1125V26.2708C10.1125 26.501 10.3001 26.6875 10.5315 26.6875H16.3985V27.5208C16.3985 28.2112 16.9614 28.7708 17.6558 28.7708H19.332V32.5208C19.332 32.751 19.5196 32.9375 19.7511 32.9375H21.4274C21.6589 32.9375 21.8465 32.751 21.8465 32.5208V28.7708H23.5227C24.2171 28.7708 24.7799 28.2112 24.7799 27.5208V26.6875H30.647C30.8784 26.6875 31.066 26.501 31.066 26.2708V17.9375C31.064 14.7167 28.4384 12.1062 25.1991 12.1041ZM10.9506 25.8541V25.0208H17.6558C17.8872 25.0208 18.0748 24.8343 18.0748 24.6041C18.0748 24.374 17.8872 24.1875 17.6558 24.1875H9.27431C9.04285 24.1875 8.85525 24.001 8.85525 23.7708V17.9375C8.85525 17.7074 9.04285 17.5208 9.27431 17.5208H17.6558C17.8872 17.5208 18.0748 17.3343 18.0748 17.1042C18.0748 16.874 17.8872 16.6875 17.6558 16.6875H11.1098C11.6945 14.4872 13.6906 12.9501 15.9794 12.9375C18.756 12.9394 21.0064 15.1769 21.0083 17.9375V25.8542H10.9506V25.8541ZM21.0084 32.1041H20.1702V28.7708H21.0084V32.1041ZM23.9418 27.5208C23.9418 27.751 23.7542 27.9375 23.5228 27.9375H17.6558C17.4243 27.9375 17.2367 27.751 17.2367 27.5208V26.6875H23.9418V27.5208Z" fill="white"/>
<path d="M16.9085 18.4333L13.4654 20.9225L10.024 18.4337C9.8367 18.2984 9.5746 18.3396 9.43852 18.5258C9.30243 18.712 9.34388 18.9726 9.53114 19.1079L13.219 21.7741C13.2324 21.782 13.2465 21.789 13.2608 21.795C13.2743 21.8028 13.2883 21.8097 13.3027 21.8154C13.3538 21.8391 13.4091 21.8523 13.4653 21.8541C13.5222 21.8525 13.5781 21.8394 13.6296 21.8154C13.6441 21.8096 13.6581 21.8028 13.6715 21.795C13.6859 21.789 13.6999 21.782 13.7134 21.7741L17.4012 19.1075C17.5885 18.9722 17.6299 18.7116 17.4938 18.5254C17.3578 18.3392 17.0957 18.298 16.9085 18.4333Z" fill="white"/>
<path d="M11.3973 21.1962C11.2508 21.1581 11.095 21.2015 10.9898 21.3098L9.4811 22.8098C9.36127 22.929 9.32547 23.1082 9.3903 23.2638C9.45512 23.4195 9.6079 23.521 9.77738 23.5211C9.88852 23.5211 9.99509 23.4771 10.0737 23.399L11.5823 21.899C11.6912 21.7944 11.735 21.6395 11.6966 21.4938C11.6582 21.3481 11.5439 21.2343 11.3973 21.1962Z" fill="white"/>
<path d="M15.9407 21.3098C15.8355 21.2015 15.6797 21.1581 15.5332 21.1962C15.3867 21.2343 15.2722 21.3481 15.2339 21.4938C15.1955 21.6395 15.2392 21.7944 15.3482 21.899L16.8568 23.399C17.0212 23.5569 17.2827 23.5547 17.4443 23.3939C17.6059 23.2332 17.6082 22.9733 17.4494 22.8098L15.9407 21.3098Z" fill="white"/>
</svg>
