<svg width="59" height="50" viewBox="0 0 59 50" fill="none" xmlns="http://www.w3.org/2000/svg">
<path d="M56.8245 45.5715C53.0748 45.9933 49.2478 46.55 45.4613 46.6639C40.9175 46.8031 36.4252 45.9638 31.9072 45.6179C27.4957 45.2805 23.1358 45.8119 18.7354 45.8204C17.2649 45.8204 15.7944 45.8204 14.3239 45.8204C12.9306 45.8204 11.541 45.9258 10.1477 45.93C8.79096 45.9784 7.43388 45.8453 6.10392 45.5336C5.08929 45.2552 4.07833 44.5635 3.82099 43.3784C3.64821 42.594 3.82099 41.7715 3.75114 40.9744C3.65309 40.2588 3.50434 39.5535 3.30634 38.8657C2.93872 37.3263 2.53433 35.7995 2.47183 34.2011C2.43875 33.3913 2.47183 32.5815 2.47183 31.7718C2.47183 30.962 2.47183 30.1564 2.51227 29.3509C2.5527 28.5453 2.62624 27.7693 2.68506 26.9806C2.74388 26.192 2.73283 25.3316 2.78062 24.5092C2.86885 22.9065 3.14826 21.3038 2.98283 19.697C2.90931 18.9336 2.72917 18.1955 2.61521 17.4406C2.50738 16.6428 2.47287 15.8342 2.51227 15.0281C2.56006 10.4437 2.63358 5.87187 2.76593 1.28319H2.3064C1.98691 3.60344 1.8638 5.95371 1.93878 8.30117C1.96819 15.5216 1.99393 22.7462 2.0601 29.9667C2.10054 34.7873 1.21457 44.5551 6.69947 46.3771C8.05966 46.8284 9.50809 46.8368 10.9308 46.841C25.3599 46.8748 39.9323 47.9334 54.3394 46.8916C55.4422 46.8157 57.409 46.7567 57.9163 45.5462C57.5531 45.4957 57.1856 45.5042 56.8245 45.5715Z" fill="black"/>
<path d="M40.0831 47.558C35.0614 47.558 30.0508 47.4315 25.1247 47.3049C20.4522 47.1826 15.6217 47.0603 10.8904 47.0519C9.47141 47.0519 8.0046 47.0519 6.61132 46.5795C1.6558 44.9347 1.75506 37.0985 1.83226 31.9151C1.83226 31.2108 1.83226 30.5529 1.83226 29.9709C1.76609 22.6745 1.74035 15.3698 1.71094 8.30116C1.71094 5.77064 1.71094 3.48474 2.10061 1.24522L2.14841 1.07652H2.9535V1.29583C2.83586 5.28562 2.75866 9.52425 2.69984 15.0366V15.239C2.66904 15.9638 2.70354 16.6902 2.80278 17.4068C2.84322 17.6557 2.89467 17.9045 2.94246 18.1491C3.04747 18.6528 3.1297 19.1624 3.18878 19.6759C3.26335 20.8222 3.23254 21.9743 3.09687 23.1132C3.05276 23.5855 3.01233 24.0537 2.98659 24.526C2.96453 24.8887 2.95716 25.2557 2.94614 25.6184C2.94614 26.0696 2.92777 26.5378 2.89101 27.0017C2.87263 27.2548 2.85055 27.5036 2.8285 27.7567C2.78438 28.2838 2.73659 28.8279 2.71821 29.3635C2.69983 29.819 2.69615 30.2745 2.69248 30.73C2.69248 31.0801 2.69248 31.4301 2.69248 31.7802C2.67042 32.5309 2.64836 33.3786 2.69248 34.1968C2.7974 35.6035 3.03783 36.9925 3.40934 38.3385L3.5233 38.815C3.56006 38.9669 3.6005 39.1187 3.63726 39.2748C3.79214 39.8249 3.90529 40.3893 3.97547 40.9618C3.99568 41.3058 3.99568 41.651 3.97547 41.9951C3.9391 42.4431 3.95892 42.8947 4.0343 43.3362C4.33207 44.6901 5.63344 45.1877 6.18119 45.3354C7.47844 45.6403 8.80213 45.772 10.1258 45.7276H10.1809C10.9713 45.7276 11.7727 45.6981 12.5521 45.6728C13.1513 45.6517 13.7542 45.6306 14.3571 45.6221C15.3644 45.6221 16.3716 45.6221 17.3789 45.6221H18.7869C20.4338 45.6221 22.0955 45.5378 23.7277 45.4619C26.4736 45.2776 29.2261 45.2621 31.9734 45.4155C33.4954 45.5336 35.0394 45.7065 36.5319 45.8752C39.4729 46.2084 42.5057 46.5584 45.5092 46.4656C48.5127 46.3729 51.586 46.0017 54.5564 45.6432L56.8576 45.3691H56.9606C57.2911 45.3164 57.6264 45.3164 57.9569 45.3691L58.1958 45.4155L58.0929 45.6643C57.5709 46.9296 55.7658 47.0392 54.5747 47.1194H54.3615C49.6008 47.4441 44.8365 47.558 40.0831 47.558ZM5.45699 45.5336C5.85229 45.8126 6.27901 46.0283 6.72528 46.1746C8.05975 46.6259 9.50082 46.6259 10.8904 46.6259C15.6254 46.6259 20.4486 46.7609 25.132 46.879C34.7122 47.1236 44.6159 47.3766 54.288 46.6807H54.5012C55.4423 46.6175 56.9569 46.5163 57.5561 45.736C57.3521 45.7359 57.1484 45.7499 56.9459 45.7782H56.843L54.5453 46.0523C51.5676 46.4108 48.4906 46.7862 45.4651 46.8958C42.4503 46.9153 39.4373 46.7195 36.4437 46.3096C34.9732 46.1367 33.4145 45.9638 31.8963 45.8499C29.1624 45.6965 26.4233 45.712 23.6909 45.8963C22.0697 45.9722 20.3824 46.0481 18.7354 46.0523H17.3274C16.3238 46.0523 15.3166 46.0523 14.3093 46.0523C13.7101 46.0523 13.1108 46.0819 12.5116 46.1029C11.7323 46.1325 10.9235 46.1578 10.1295 46.162C8.75843 46.2017 7.38798 46.0602 6.04517 45.7402C5.84516 45.6871 5.64862 45.6181 5.45699 45.5336ZM2.43516 1.49828C2.129 3.74934 2.00593 6.02818 2.06754 8.30538C2.09327 15.3698 2.12266 22.6787 2.18516 29.9709C2.18516 30.5571 2.18516 31.215 2.18516 31.9236C2.14105 35.4157 2.07855 40.1351 3.58579 43.2392C3.53561 42.82 3.52453 42.3959 3.55272 41.974C3.57483 41.6511 3.57483 41.3268 3.55272 41.0039C3.48728 40.4503 3.38027 39.9042 3.23289 39.3718C3.19245 39.2157 3.15201 39.0639 3.11525 38.9078L3.00129 38.4355C2.62142 37.065 2.37484 35.6506 2.26605 34.2179C2.23296 33.3744 2.26605 32.5309 2.26605 31.7718C2.26605 31.4259 2.26605 31.0759 2.26605 30.73C2.26605 30.2703 2.26605 29.8064 2.29178 29.3509C2.31384 28.8026 2.36163 28.2501 2.40575 27.7187C2.4278 27.4699 2.44985 27.221 2.46823 26.9722C2.50132 26.5209 2.51236 26.057 2.52339 25.6099C2.52339 25.243 2.52338 24.8719 2.56014 24.5007C2.58587 24.0284 2.62999 23.5518 2.6741 23.0752C2.80583 21.9656 2.83663 20.8433 2.76601 19.7265C2.70749 19.2285 2.62651 18.7344 2.52339 18.2461C2.4756 17.9931 2.4278 17.7442 2.38369 17.4912C2.27963 16.7454 2.24267 15.9893 2.27341 15.2348V15.0366C2.33223 9.61703 2.40942 5.43324 2.52339 1.50249L2.43516 1.49828Z" fill="black"/>
<path d="M58.0897 46.0059L57.7772 46.065C57.4463 46.1367 57.1192 46.1367 56.7846 46.1789C56.4822 46.2306 56.1836 46.3082 55.8913 46.4108C55.5898 46.4874 55.28 46.5115 54.9722 46.4825C54.6056 46.4435 54.2375 46.428 53.8694 46.4361C53.5532 46.4622 53.2389 46.5115 52.9283 46.5837C52.2336 46.6936 51.534 46.7569 50.8329 46.7735C50.1307 46.8326 49.4322 46.9169 48.73 46.9675C48.0279 47.0181 47.4765 47.3049 46.8184 47.3007C46.1604 47.2965 45.4068 47.2628 44.6973 47.2754C43.9878 47.2881 43.179 47.3134 42.4217 47.3134C41.7148 47.3487 41.0065 47.3163 40.3042 47.2164C39.6241 47.0856 38.9734 46.8326 38.2897 46.7356C37.6059 46.6386 36.8706 46.6006 36.1648 46.512C35.4547 46.4403 34.7416 46.415 34.0289 46.4361C33.3231 46.4361 32.6246 46.2632 31.9225 46.1957C31.2203 46.1282 30.474 46.162 29.7535 46.162H27.5478C26.8121 46.1319 26.0755 46.153 25.3421 46.2253C24.6225 46.3482 23.8968 46.4186 23.1694 46.4361C21.672 46.4361 20.1758 46.4361 18.6808 46.4361C17.2103 46.4361 15.7398 46.4361 14.2693 46.4361C12.876 46.4572 11.4828 46.5416 10.0895 46.5458C8.7327 46.5939 7.37564 46.4609 6.04566 46.1493C5.03102 45.871 4.02376 45.1793 3.76275 43.9942C3.58997 43.2097 3.76275 42.3873 3.6929 41.5902C3.59484 40.8745 3.44607 40.1693 3.24807 39.4814C2.88045 37.942 2.47606 36.4153 2.41357 34.8168C2.38048 34.007 2.41357 33.1973 2.41357 32.3875C2.41357 31.5777 2.41358 30.7722 2.45402 29.9666C2.49446 29.1611 2.56798 28.3851 2.63047 27.5964C2.69297 26.8077 2.67459 25.9473 2.72238 25.1207C2.81428 23.5222 3.08999 21.9196 2.92456 20.3127C2.85104 19.5493 2.67091 18.8113 2.55694 18.0563C2.45085 17.2583 2.41637 16.45 2.45402 15.6439C2.48711 12.3753 2.41358 9.10671 2.45402 5.83812C2.47166 4.30623 2.61566 2.7797 2.88413 1.27896H2.18564C2.11947 1.67119 2.06434 2.06342 2.00919 2.45144C1.89656 3.25155 1.82416 4.05843 1.79231 4.86808C1.72614 6.52979 1.75921 8.19994 1.75921 9.86586C1.75921 11.5318 1.75921 13.2863 1.75921 14.9986C1.72737 15.8294 1.73597 16.6615 1.78495 17.4912C1.86215 18.2925 2.06433 19.0643 2.18564 19.8572C2.44298 21.5063 2.18565 23.1806 2.05698 24.8297C2.00184 25.6732 2.02022 26.483 1.96508 27.3096C1.90994 28.1362 1.81803 28.9291 1.78127 29.7431C1.74451 30.5571 1.75553 31.4006 1.73348 32.2315C1.71142 33.0623 1.68936 33.9185 1.73348 34.7325C1.85199 36.3648 2.13197 37.9765 2.56798 39.5362C2.78927 40.2653 2.94449 41.0186 3.03119 41.7842C3.07163 42.5897 2.93927 43.3995 3.11205 44.1966C3.37306 45.3902 4.2627 46.221 5.2663 46.6597C6.46107 47.1868 7.86907 47.2459 9.14104 47.2881C10.6115 47.3345 12.0562 47.2543 13.512 47.2122C16.5633 47.1236 19.6256 47.1658 22.6805 47.1868C23.4102 47.2009 24.1399 47.1558 24.8641 47.0519C25.6069 46.9487 26.3548 46.9022 27.103 46.9127C28.6102 46.9127 30.1321 46.841 31.6357 46.9127C32.3709 46.9549 33.0768 47.1405 33.801 47.1742C34.209 47.1742 34.6135 47.1489 35.0178 47.1489C35.3634 47.1489 35.7126 47.1995 36.0582 47.2417C36.7934 47.3302 37.5287 47.364 38.2639 47.4736C38.9991 47.5833 39.6535 47.8617 40.3667 47.9713C41.0993 48.0588 41.8363 48.087 42.5724 48.0557C43.3334 48.0557 44.0907 48.0304 44.848 48.0177C45.6053 48.0051 46.2964 48.0599 47.017 48.043C47.3575 48.0296 47.695 47.9643 48.0206 47.849C48.3406 47.7556 48.6684 47.7019 48.9984 47.6887C49.7336 47.6297 50.4395 47.5453 51.16 47.4947C51.8595 47.4744 52.557 47.4011 53.2481 47.2754C53.9834 47.1236 54.6634 47.2754 55.395 47.2375C55.7332 47.2152 56.0677 47.1458 56.3913 47.0308C56.6982 46.9512 57.0107 46.9032 57.325 46.8874C57.6301 46.8579 57.9353 46.8031 58.2404 46.744C58.1816 46.5036 58.1375 46.2548 58.0897 46.0059Z" fill="black"/>
<path d="M41.8259 48.2834C41.326 48.2917 40.8261 48.2622 40.3296 48.1948C39.962 48.1358 39.6128 48.0388 39.2672 47.9418C38.9246 47.8374 38.5773 47.7543 38.2269 47.6929C37.8078 47.6297 37.3703 47.5917 36.9512 47.5537C36.6424 47.5284 36.3373 47.4989 36.0322 47.461H35.9108C35.6121 47.4166 35.3114 47.3913 35.0102 47.385C34.8374 47.385 34.6646 47.385 34.4955 47.385C34.2639 47.385 34.025 47.4061 33.786 47.385C33.4184 47.385 33.0508 47.3091 32.6832 47.2543C32.3155 47.1995 31.981 47.1446 31.6317 47.1236C30.6465 47.0687 29.6319 47.0856 28.654 47.1025C28.1394 47.1025 27.6173 47.1025 27.11 47.1025C26.373 47.0895 25.636 47.1346 24.9043 47.2374C24.1728 47.343 23.4357 47.3881 22.6986 47.3724H21.4046C18.8312 47.3724 16.1513 47.3344 13.5338 47.4103L12.5118 47.4399C11.409 47.4778 10.2767 47.52 9.15177 47.482C7.96068 47.4441 6.47916 47.3977 5.21823 46.8452C4.02714 46.3222 3.2 45.3691 2.95001 44.2345C2.85829 43.7101 2.82985 43.1737 2.86547 42.6403C2.86547 42.3577 2.86547 42.0667 2.86547 41.7968C2.81641 41.2217 2.70781 40.6554 2.54196 40.1098C2.49785 39.9327 2.45006 39.7555 2.40962 39.5826L2.36551 39.4055C1.94666 37.8873 1.67903 36.3197 1.56776 34.7324C1.53835 33.9269 1.56776 33.1129 1.56776 32.3242V32.2146C1.56776 31.8856 1.56776 31.5566 1.56776 31.2277C1.56776 30.7342 1.56777 30.2239 1.60085 29.722C1.63394 29.2201 1.66702 28.7604 1.70746 28.2923C1.73319 27.9548 1.76261 27.6217 1.78466 27.2843C1.81407 26.8625 1.82143 26.4661 1.83246 26.0654C1.84349 25.6647 1.83245 25.2219 1.87657 24.8001C1.92068 24.3784 1.93907 24.0368 1.97215 23.653C2.1369 22.4028 2.14926 21.1324 2.00891 19.8783C1.96112 19.5704 1.90229 19.2667 1.84347 18.9631C1.73914 18.4824 1.65937 17.9951 1.60453 17.5038C1.55685 16.9051 1.54578 16.3033 1.57144 15.7029C1.57144 15.4625 1.57144 15.2221 1.57144 14.9859C1.57144 13.843 1.57144 12.7042 1.57144 11.5613V9.85318C1.57144 9.43143 1.57144 9.00967 1.57144 8.60901C1.57144 7.37327 1.57143 6.07849 1.61187 4.84697C1.64123 4.02871 1.71367 3.21324 1.82878 2.40501L1.86553 2.15618C1.90597 1.84408 1.95008 1.5362 2.00523 1.22832L2.03096 1.05962H3.10809L3.06398 1.31267C2.79753 2.7966 2.65475 4.30625 2.63755 5.82122C2.60814 7.57571 2.61917 9.35973 2.63755 11.0847C2.63755 12.5735 2.63755 14.1129 2.63755 15.627V15.8379C2.60675 16.5626 2.64123 17.2891 2.74047 18.0057C2.78458 18.2545 2.83238 18.5033 2.88017 18.7522C2.98552 19.2544 3.06773 19.7626 3.12646 20.2747C3.20104 21.421 3.17023 22.5731 3.03456 23.712C2.99045 24.1844 2.95001 24.6525 2.92428 25.1249C2.90222 25.4876 2.89488 25.8545 2.88753 26.2172C2.88753 26.6685 2.86546 27.1366 2.82869 27.6006C2.81031 27.8536 2.78826 28.1025 2.7662 28.3555C2.72209 28.8827 2.6743 29.4268 2.65592 29.9624C2.63754 30.4179 2.63386 30.8734 2.63019 31.3289C2.63019 31.6789 2.63019 32.029 2.63019 32.379C2.60813 33.1255 2.58975 33.9691 2.63019 34.7957C2.73982 36.2048 2.98643 37.5953 3.36543 38.9415L3.47939 39.4139C3.51247 39.5657 3.55291 39.7176 3.58967 39.8736C3.74454 40.4237 3.85771 40.9882 3.9279 41.5606C3.94994 41.9046 3.94994 42.25 3.9279 42.5939C3.89153 43.0419 3.91133 43.4936 3.98671 43.9351C4.28448 45.2889 5.58954 45.7866 6.13362 45.9342C7.44946 46.2395 8.7914 46.3711 10.1333 46.3264C10.9237 46.3264 11.7288 46.2969 12.5081 46.2716C13.1074 46.2505 13.7066 46.2294 14.3095 46.2168C15.3131 46.2168 16.3204 46.2168 17.3276 46.2168H18.6915C20.1877 46.2168 21.6839 46.2168 23.1838 46.2168C23.7867 46.209 24.3885 46.1555 24.9852 46.0565L25.3307 46.0059C25.9111 45.9437 26.4942 45.9212 27.077 45.9384H29.7569C29.937 45.9384 30.1245 45.9384 30.3304 45.9384C30.8561 45.9384 31.4038 45.9384 31.9406 45.9764C32.2089 46.0017 32.481 46.0439 32.7493 46.086C33.1737 46.165 33.6025 46.2086 34.0323 46.2168H34.1279C34.8149 46.1971 35.5023 46.2238 36.1866 46.2969L37.113 46.3897C37.51 46.4234 37.9181 46.4614 38.3151 46.5204C38.7015 46.5824 39.0844 46.6697 39.4621 46.7819C39.7488 46.8621 40.0429 46.9464 40.337 47.0012C40.9143 47.0908 41.4973 47.1233 42.0795 47.0982H42.4251C42.9729 47.0982 43.528 47.0982 44.072 47.0729H44.697C45.1675 47.0729 45.6381 47.0729 46.1086 47.0729H46.8218H46.8439C47.1765 47.059 47.5068 47.0038 47.8291 46.9085C48.1214 46.8256 48.4188 46.7692 48.7188 46.7398C49.0864 46.7102 49.454 46.6765 49.8473 46.6385C50.2407 46.6006 50.498 46.5753 50.8215 46.55L51.4538 46.512C51.9379 46.5004 52.4207 46.4497 52.8986 46.3602C53.2166 46.2864 53.5383 46.2357 53.8618 46.2083C54.1291 46.1976 54.3967 46.2061 54.6632 46.2337L54.9793 46.259C55.2686 46.283 55.5595 46.2602 55.8433 46.1915L56.0858 46.1156C56.3067 46.0381 56.5331 45.983 56.7623 45.9511L57.1078 45.9216C57.3197 45.9081 57.5308 45.8813 57.7401 45.8414L57.9093 45.8077L58.2291 45.7444L58.2659 45.9426C58.3136 46.1957 58.3578 46.4487 58.3982 46.6976L58.4313 46.9085L58.2475 46.9464C57.9534 47.0055 57.6372 47.0603 57.321 47.094H57.1556C56.9078 47.1061 56.6616 47.1456 56.4204 47.2121C56.0825 47.3318 55.7331 47.4041 55.38 47.4272C55.1154 47.4272 54.8543 47.4272 54.6007 47.4272C54.1543 47.3864 53.7053 47.4048 53.2625 47.482C52.6541 47.5935 52.0402 47.6611 51.4244 47.6845H51.1524C50.7296 47.714 50.3105 47.7562 49.8915 47.7941L48.9945 47.8785H48.932C48.6356 47.8919 48.3412 47.94 48.0534 48.0219C47.7126 48.1448 47.3589 48.2143 47.002 48.2285C46.6343 48.2285 46.2373 48.2285 45.866 48.2285C45.4947 48.2285 45.1786 48.2075 44.833 48.2285H44.0978L42.5684 48.2539H41.8332L41.8259 48.2834ZM34.9771 46.9506H35.0102C35.3263 46.9506 35.6461 46.9928 35.9513 47.0308H36.0689C36.3704 47.0687 36.6755 47.094 36.9806 47.1236C37.4034 47.1615 37.8445 47.1995 38.2747 47.267C38.6387 47.3285 38.9995 47.413 39.3554 47.52C39.69 47.6128 40.0356 47.7098 40.3811 47.7646C41.0097 47.8434 41.6423 47.8716 42.2744 47.849H42.5538C43.0648 47.849 43.5721 47.849 44.0794 47.849H44.8146C45.1602 47.849 45.5094 47.849 45.8587 47.849C46.2079 47.849 46.5939 47.849 46.9615 47.849C47.286 47.8374 47.6076 47.7749 47.9173 47.6634C48.2297 47.5689 48.5503 47.5151 48.8731 47.5031H48.9356L49.8253 47.4188C50.248 47.3766 50.6745 47.3344 51.0973 47.3091H51.3693C51.9705 47.2864 52.5698 47.2188 53.1633 47.1067C53.6329 47.0267 54.1088 47.0069 54.5823 47.0476C54.8286 47.0476 55.0822 47.0729 55.3396 47.0476C55.6628 47.0263 55.9826 46.9598 56.2917 46.8494C56.5556 46.7741 56.8252 46.7289 57.0968 46.7145H57.2586C57.4975 46.6891 57.7401 46.647 57.9717 46.6048C57.9717 46.4909 57.935 46.3813 57.9129 46.2674L57.7806 46.2927C57.5568 46.3366 57.3309 46.3647 57.1042 46.377L56.7696 46.4066C56.5608 46.4398 56.3544 46.4906 56.152 46.5584C56.0712 46.5837 55.9866 46.6132 55.902 46.6343C55.5839 46.7169 55.2567 46.744 54.9315 46.7145H54.608C54.3637 46.6869 54.1181 46.677 53.8728 46.6849C53.5641 46.7129 53.2572 46.7622 52.9537 46.8325C52.4604 46.9278 51.9614 46.98 51.4612 46.9886L50.8362 47.0265C50.5127 47.0519 50.1892 47.0856 49.8657 47.1151C49.5422 47.1446 49.1305 47.191 48.7334 47.2163C48.4509 47.2454 48.1707 47.299 47.8953 47.3766C47.5348 47.484 47.1647 47.5434 46.7924 47.5537H46.0572C45.5903 47.5537 45.1271 47.5537 44.6602 47.5537H44.0352C43.4838 47.5537 42.9324 47.579 42.381 47.579H42.0391C41.4347 47.6028 40.8296 47.5675 40.2304 47.4736C39.9253 47.4146 39.6238 47.3344 39.3334 47.2501C38.9698 47.143 38.6017 47.0572 38.2305 46.9928C37.8409 46.938 37.4365 46.9042 37.0431 46.8663C36.7307 46.8368 36.4182 46.8115 36.1094 46.7735C35.4384 46.7038 34.7646 46.6785 34.0911 46.6976H33.9698C33.5314 46.6869 33.0941 46.6418 32.6611 46.5626C32.3964 46.5204 32.1354 46.4783 31.8707 46.453C31.3487 46.4066 30.812 46.4108 30.2936 46.4192H27.0328C26.4661 46.4003 25.8989 46.4215 25.3344 46.4825L24.9889 46.5331C24.38 46.6347 23.766 46.6897 23.1508 46.6976C21.6533 46.6976 20.1571 46.6976 18.6621 46.6976H17.2505C16.2469 46.6976 15.2396 46.6976 14.236 46.6976C13.6367 46.6976 13.0412 46.7271 12.442 46.7482C11.6589 46.7777 10.8502 46.803 10.0561 46.803C8.68561 46.8582 7.31431 46.7237 5.97187 46.4024C5.36162 46.2337 3.90216 45.6727 3.5566 44.0954C3.47143 43.6154 3.4479 43.1238 3.48675 42.6361C3.50703 42.3132 3.50703 41.989 3.48675 41.6661C3.42131 41.1124 3.3143 40.5664 3.16692 40.0339C3.12648 39.8778 3.08604 39.726 3.04928 39.5699L2.93532 39.0976C2.55545 37.7271 2.30887 36.3127 2.20008 34.88C2.16699 34.0365 2.20008 33.193 2.20008 32.4339C2.20008 32.088 2.20008 31.738 2.20008 31.3921C2.20008 30.9282 2.20008 30.4685 2.22581 30.013C2.24787 29.4647 2.29566 28.9122 2.33977 28.3808C2.36183 28.132 2.38388 27.8832 2.40226 27.6343C2.43535 27.183 2.44639 26.7191 2.45742 26.2721C2.45742 25.9051 2.45741 25.534 2.49417 25.1628C2.52358 24.6905 2.56402 24.2139 2.60813 23.7373C2.73986 22.6277 2.77066 21.5055 2.70004 20.3886C2.64242 19.8908 2.56266 19.3967 2.46107 18.9082C2.40961 18.6594 2.36183 18.4063 2.31772 18.1533C2.21366 17.4075 2.17668 16.6514 2.20741 15.8969V15.6987C2.20741 14.1846 2.20741 12.6494 2.20741 11.1606C2.20741 9.43565 2.18903 7.64741 2.20741 5.8887C2.24617 4.41242 2.39996 2.94308 2.66694 1.49824H2.34345C2.30302 1.74707 2.26991 1.99591 2.23315 2.24474L2.1964 2.49358C2.08632 3.28548 2.01513 4.08385 1.98317 4.88492C1.9317 6.15018 1.93907 7.41544 1.94642 8.62588C1.94642 9.04763 1.94642 9.46939 1.94642 9.89114V14.9944C1.94642 15.2348 1.94642 15.4794 1.94642 15.724C1.92436 16.3048 1.9354 16.8867 1.97949 17.4658C2.03467 17.9412 2.11198 18.4128 2.21109 18.8787C2.26991 19.1908 2.33242 19.4987 2.38021 19.815C2.52922 21.1065 2.51807 22.4157 2.34711 23.7036C2.31403 24.0874 2.28094 24.4627 2.25521 24.8423C2.22947 25.2219 2.21844 25.6858 2.20741 26.078C2.19639 26.4703 2.20742 26.9216 2.1633 27.318C2.14124 27.6596 2.11185 27.997 2.08244 28.3386C2.042 28.8026 2.00157 29.2792 1.97583 29.7515C1.9501 30.2239 1.95009 30.7469 1.94642 31.2361C1.94642 31.5651 1.94642 31.8982 1.94642 32.2314V32.3411C1.94642 33.1213 1.90598 33.9269 1.94642 34.7198C2.05698 36.2754 2.31964 37.8118 2.72945 39.3L2.77356 39.4729C2.81523 39.6473 2.85934 39.8202 2.9059 39.9917C3.07672 40.567 3.19018 41.1627 3.24411 41.7673C3.24411 42.0667 3.24411 42.3704 3.24411 42.6614C3.21022 43.1566 3.2362 43.6547 3.32131 44.1418C3.54189 45.1413 4.28448 45.989 5.3616 46.4614C6.5674 46.9886 8.01582 47.035 9.1775 47.0729C10.3392 47.1109 11.4237 47.0729 12.5155 47.0308L13.5412 46.997C16.166 46.9211 18.8349 46.9422 21.4193 46.9633H22.7133C23.4344 46.9765 24.1554 46.9328 24.8712 46.8325C25.6234 46.723 26.3813 46.6751 27.1394 46.6891C27.6541 46.6891 28.1614 46.6891 28.6724 46.6891C29.6576 46.6891 30.6796 46.6596 31.6758 46.7145C32.0435 46.7145 32.4111 46.7904 32.7567 46.8452C33.1022 46.9 33.4919 46.9591 33.8411 46.9759C34.0654 46.9759 34.297 46.9759 34.5176 46.9759C34.7382 46.9759 34.8117 46.9506 34.9771 46.9506Z" fill="black"/>
<path d="M3.21508 27.6217C3.30331 26.8668 3.44299 26.1203 3.47975 25.3527C3.5496 23.7416 3.20036 22.1558 3.02391 20.5573C2.93568 19.7391 2.90628 18.9125 2.80334 18.0943C2.70041 17.2761 2.5754 16.5254 2.50555 15.7367C2.4357 14.948 2.39895 14.1256 2.33646 13.32C2.27396 12.5145 2.21147 11.7047 2.20412 10.8949C2.18206 9.29229 2.50924 7.74867 2.79598 6.1924C2.95725 5.4884 3.06789 4.77042 3.12683 4.04567C3.15991 3.24856 2.94303 2.43457 3.0717 1.64167C3.09453 1.51697 3.12524 1.39434 3.1636 1.27475H2.90627C1.00567 5.11271 1.82914 11.5065 1.98722 15.1378C2.29969 22.3498 2.64893 29.566 2.99817 36.778C3.1489 39.9243 3.31432 43.1338 4.3988 46.0565C3.93193 40.7045 3.57167 35.3735 3.23713 30.0299C3.1568 29.2302 3.14941 28.4231 3.21508 27.6217Z" fill="black"/>
<path d="M4.69929 47.4315L4.22872 46.1662C3.12586 43.1675 2.96412 39.9369 2.8134 36.8075V36.6051C2.47518 29.5786 2.12228 22.3118 1.81348 15.1631C1.78775 14.5853 1.74731 13.9316 1.69952 13.2357C1.46056 9.53269 1.13338 4.46321 2.75459 1.18619L2.80972 1.08075H3.43835L3.34645 1.36754C3.31011 1.47566 3.28183 1.58712 3.2619 1.70073C3.2069 2.14415 3.2069 2.59427 3.2619 3.03769C3.3 3.3803 3.31595 3.72567 3.30967 4.07098C3.27216 4.6518 3.18974 5.22765 3.06337 5.79174C3.03396 5.94357 3.00088 6.09962 2.97515 6.25566L2.88324 6.71959C2.58162 8.08414 2.41514 9.48337 2.38697 10.8907C2.38697 11.7342 2.46048 12.5778 2.5193 13.3032C2.54504 13.6532 2.56709 14.0033 2.58915 14.3533C2.61856 14.8088 2.6443 15.2601 2.68474 15.7156C2.73253 16.247 2.80972 16.7911 2.88324 17.314C2.91633 17.5629 2.9531 17.8117 2.98251 18.0648C3.04133 18.5245 3.07808 18.9926 3.11117 19.4439C3.14058 19.8066 3.16631 20.1693 3.20675 20.532C3.25822 21.0002 3.32439 21.4683 3.39056 21.9365C3.58732 23.065 3.67729 24.2146 3.65892 25.3653C3.62849 25.8788 3.57326 26.3899 3.49348 26.8963C3.4604 27.1493 3.42365 27.3982 3.39424 27.6512C3.32814 28.3732 3.32814 29.1012 3.39424 29.8233V30.0257C3.71407 35.0867 4.07801 40.5695 4.55591 46.0523L4.69929 47.4315ZM2.88324 1.81882C1.54143 4.99462 1.84655 9.70561 2.07447 13.2062C2.11859 13.9105 2.1627 14.5642 2.18844 15.1462C2.49724 22.316 2.84649 29.5576 3.18837 36.584V36.7906C3.31337 39.3211 3.43835 41.9445 4.08169 44.4202C3.66996 39.4941 3.34644 34.6313 3.06337 30.0805V29.8781C2.9953 29.128 2.9953 28.3718 3.06337 27.6217C3.09278 27.3644 3.12956 27.1114 3.16632 26.8541C3.2444 26.3631 3.2984 25.8675 3.32807 25.3695C3.34194 24.2484 3.25197 23.1286 3.05969 22.0292C2.99352 21.5569 2.92735 21.0845 2.87588 20.6122C2.83545 20.241 2.80603 19.8741 2.7803 19.5072C2.74721 19.0601 2.71046 18.6004 2.65532 18.1491C2.62224 17.9003 2.58914 17.6514 2.55238 17.4068C2.47885 16.8754 2.40534 16.3271 2.35387 15.7831C2.31343 15.3276 2.28402 14.8679 2.25828 14.4082C2.23623 14.0581 2.21417 13.7123 2.18844 13.3664C2.12962 12.6115 2.06345 11.7595 2.05242 10.9203C2.06484 9.47501 2.22024 8.03605 2.51562 6.63103L2.60385 6.15023C2.63326 5.99418 2.66267 5.83813 2.69575 5.68208C2.81727 5.14307 2.89602 4.59254 2.93104 4.03724C2.93802 3.71308 2.92328 3.38878 2.88692 3.06721C2.847 2.65241 2.84576 2.23391 2.88324 1.81882Z" fill="black"/>
<path d="M3.68557 39.2241C3.465 35.964 3.36943 32.6954 3.16356 29.4352C3.08457 28.6326 3.07718 27.8229 3.1415 27.0186C3.22973 26.2594 3.37309 25.5129 3.40618 24.7496C3.4797 23.1342 3.12679 21.5484 2.95401 19.9542C2.86211 19.1318 2.83638 18.3094 2.72977 17.4912C2.62316 16.673 2.50552 15.9222 2.432 15.1336C2.35847 14.3449 2.32906 13.5225 2.26656 12.7169C2.20407 11.9114 2.14157 11.1016 2.13055 10.2876C2.11216 8.68917 2.43567 7.14555 2.72241 5.58928C2.88488 4.8854 2.99676 4.16742 3.05693 3.44256C3.08267 2.72136 2.91357 1.99594 2.97239 1.27896H2.28862C2.25553 1.94533 2.37317 2.6117 2.37317 3.27807C2.32764 4.04761 2.21181 4.80954 2.0276 5.55132C1.67291 7.13293 1.47803 8.75611 1.44678 10.3888C1.44678 11.2323 1.52764 12.0759 1.59013 12.8856C1.65263 13.6954 1.68573 14.5431 1.76661 15.3655C1.84748 16.188 1.98349 16.9808 2.07907 17.7906C2.17465 18.6004 2.20038 19.4397 2.29964 20.2579C2.49815 21.9027 2.85474 23.5602 2.68931 25.2219C2.60844 26.019 2.44303 26.7993 2.40994 27.6048C2.40513 28.4359 2.44071 29.2666 2.51654 30.0932L2.78122 35.2217C2.86945 36.8834 2.92461 38.5493 3.07901 40.2068C3.15109 41.015 3.26401 41.8177 3.41722 42.6108C3.53433 43.2979 3.69027 43.9756 3.88408 44.6395C4.01051 45.0244 4.17585 45.391 4.3767 45.7318C4.63036 45.6854 4.88034 45.6432 5.134 45.6095C4.77129 45.0572 4.50765 44.4279 4.35832 43.758C4.00999 42.2744 3.78474 40.7564 3.68557 39.2241Z" fill="black"/>
<path d="M4.28868 45.9637L4.22619 45.8541C4.01664 45.5002 3.8439 45.1195 3.71151 44.7196C3.54087 44.1518 3.40453 43.5712 3.30346 42.9819L3.24095 42.6614C3.0845 41.8615 2.96913 41.0518 2.89541 40.2363C2.77777 38.9711 2.71894 37.7058 2.66012 36.4912C2.66012 36.0694 2.62335 35.6477 2.60129 35.2259L2.50939 33.5136L2.33294 30.0974C2.33294 29.8612 2.30352 29.625 2.28514 29.3846C2.23231 28.7863 2.21268 28.1848 2.22633 27.5837C2.25554 27.0913 2.30955 26.6013 2.38809 26.116C2.4322 25.8081 2.4763 25.5003 2.50571 25.1882C2.58107 23.9265 2.50314 22.6589 2.27413 21.4219C2.21898 21.0423 2.16382 20.6585 2.11971 20.2789C2.0756 19.8994 2.03516 19.4354 2.00575 19.0137C1.97634 18.5919 1.94694 18.1997 1.89915 17.799C1.85871 17.4616 1.81092 17.1284 1.76313 16.7953C1.70063 16.3313 1.63445 15.8505 1.58666 15.3697C1.53887 14.8889 1.50578 14.3575 1.47269 13.8599C1.47269 13.5351 1.43594 13.2104 1.41021 12.8856V12.7928C1.34771 11.9999 1.28521 11.1817 1.27051 10.372C1.29696 8.78401 1.48198 7.20478 1.82194 5.66518L1.85503 5.48383C1.88935 5.30669 1.9261 5.12956 1.96532 4.95242C2.09883 4.40218 2.17655 3.83609 2.19692 3.26541C2.19692 2.98705 2.17486 2.69604 2.15281 2.4219C2.11519 2.0369 2.10168 1.6493 2.11237 1.26208V1.06807H3.17112V1.30003C3.15064 1.67446 3.16295 2.05029 3.20787 2.4219C3.24427 2.76468 3.26024 3.10992 3.25567 3.45519C3.21665 4.03442 3.13425 4.60872 3.00937 5.17173C2.97628 5.32778 2.94687 5.48383 2.91746 5.63566L2.81452 6.13755C2.51144 7.50188 2.34372 8.90114 2.31456 10.3087C2.31456 11.1522 2.39175 11.9957 2.4469 12.7211C2.47631 13.0712 2.49837 13.4255 2.52043 13.7755C2.54616 14.2268 2.57557 14.6823 2.61601 15.1293C2.6638 15.665 2.73731 16.2048 2.81084 16.732C2.8476 16.9808 2.8807 17.2297 2.91378 17.4785C2.9726 17.9424 3.00568 18.4106 3.04244 18.8619C3.06817 19.2246 3.09758 19.5873 3.13435 19.95C3.18581 20.4181 3.25198 20.8863 3.31816 21.3502C3.51414 22.4789 3.60533 23.6283 3.59019 24.7791C3.55997 25.2953 3.50474 25.8092 3.42476 26.3185C3.388 26.5673 3.35492 26.8161 3.32552 27.0692C3.2594 27.7898 3.2594 28.5164 3.32552 29.237V29.4394C3.4211 30.9535 3.49461 32.4929 3.56446 33.9817C3.64533 35.7025 3.72989 37.4823 3.84753 39.2326C3.94434 40.752 4.16714 42.2575 4.51292 43.7285C4.65322 44.3703 4.90313 44.9738 5.24816 45.504L5.44667 45.795L5.13052 45.8414L4.3769 45.9637H4.28868ZM2.46527 1.49826C2.46527 1.78927 2.48733 2.08871 2.50939 2.39659C2.53144 2.70447 2.55718 2.98705 2.55718 3.28649C2.53566 3.89288 2.45301 4.49437 2.31088 5.07894C2.27779 5.25186 2.24102 5.429 2.20794 5.60192L2.17486 5.78328C1.8406 7.29097 1.65806 8.83765 1.63079 10.393C1.63079 11.1902 1.70431 11.9999 1.76681 12.7844V12.8772C1.79254 13.2061 1.81092 13.5351 1.83298 13.8599C1.86239 14.3533 1.89179 14.8594 1.94326 15.3529C1.99473 15.8463 2.05721 16.2976 2.11971 16.7573C2.16628 17.0947 2.21041 17.4321 2.25207 17.7695C2.30354 18.1913 2.33294 18.613 2.36235 19.0095C2.39176 19.4059 2.42484 19.853 2.47263 20.2368C2.52042 20.6206 2.57188 20.9917 2.62703 21.3713C2.86195 22.6473 2.94114 23.9546 2.86231 25.2556C2.82922 25.572 2.7851 25.8841 2.74099 26.2004C2.66594 26.6705 2.61317 27.145 2.58292 27.6217C2.57077 28.2046 2.59164 28.7879 2.6454 29.3677C2.6454 29.6081 2.67849 29.8485 2.68952 30.0889C2.75079 31.2136 2.81085 32.3523 2.86967 33.5051L2.95789 35.2175C2.97995 35.6392 2.99833 36.061 3.02038 36.4827C3.0792 37.7058 3.13802 38.9711 3.25199 40.2068C3.3251 41.0065 3.43802 41.8006 3.59019 42.5855L3.6527 42.906C3.75158 43.478 3.88422 44.0417 4.04972 44.593C4.15667 44.9207 4.29346 45.2346 4.45779 45.5293L4.79968 45.4703C4.51514 44.969 4.30403 44.4176 4.17472 43.8381C3.82081 42.3414 3.59426 40.8089 3.49829 39.2621C3.37697 37.5118 3.29243 35.7278 3.21155 34.007C3.14171 32.5182 3.06817 30.9788 2.97259 29.469V29.2665C2.90456 28.5178 2.90456 27.763 2.97259 27.0144C3.002 26.7571 3.03877 26.504 3.07186 26.251C3.15017 25.7572 3.20417 25.2587 3.23361 24.758C3.24839 23.6369 3.15965 22.5173 2.96891 21.4177C2.90274 20.9453 2.83289 20.473 2.78142 20.0006C2.74098 19.6337 2.71527 19.2667 2.68586 18.8956C2.65277 18.4738 2.61968 17.9888 2.56086 17.5418L2.46159 16.7953C2.38807 16.2681 2.31088 15.7198 2.26309 15.1757C2.22265 14.7202 2.19323 14.2605 2.16382 13.805C2.16382 13.455 2.12338 13.1049 2.09397 12.7591C2.03515 12.0041 1.96898 11.1564 1.95796 10.3129C1.98831 8.87438 2.15847 7.44422 2.46527 6.04898L2.55718 5.56818C2.58291 5.41213 2.61599 5.25608 2.6454 5.09581C2.76634 4.55792 2.8463 4.00898 2.88437 3.45519C2.88947 3.12966 2.87473 2.80412 2.84025 2.48094C2.80447 2.15926 2.78727 1.8352 2.78878 1.51091L2.46527 1.49826Z" fill="black"/>
<path d="M10.5301 12.2276C10.5301 16.6602 10.7029 21.0844 10.622 25.5297C10.5448 29.8948 10.2213 34.2558 10.1367 38.6251C10.0853 41.1346 10.0669 43.6482 10.0669 46.1619C10.0768 46.2843 10.1262 46.3981 10.2054 46.481C10.2846 46.5638 10.388 46.6098 10.4952 46.6098C10.6024 46.6098 10.7057 46.5638 10.7849 46.481C10.8641 46.3981 10.9136 46.2843 10.9235 46.1619C10.9235 41.7208 10.9823 37.2797 11.1661 32.8429C11.2543 30.6582 11.405 28.482 11.4602 26.2973C11.5153 24.1126 11.5006 21.9237 11.4602 19.739C11.4271 17.2338 11.3756 14.7328 11.372 12.2276C11.372 12.0978 11.327 11.9734 11.2471 11.8816C11.1671 11.7899 11.0586 11.7383 10.9455 11.7383C10.8324 11.7383 10.7239 11.7899 10.644 11.8816C10.564 11.9734 10.5191 12.0978 10.5191 12.2276H10.5301Z" fill="black"/>
<path d="M10.4937 46.8452C10.4127 46.8517 10.3314 46.8387 10.255 46.8071C10.1786 46.7755 10.1087 46.726 10.0499 46.6617C9.99112 46.5974 9.94465 46.5198 9.91346 46.4337C9.88227 46.3477 9.86706 46.2551 9.86878 46.162C9.86878 43.3953 9.89084 40.928 9.93863 38.621C9.98275 36.4658 10.082 34.2812 10.1813 32.1682C10.2805 29.9877 10.3835 27.7398 10.4239 25.5256C10.4717 22.8727 10.4239 20.1777 10.3871 17.5713C10.3614 15.821 10.332 14.0075 10.332 12.2277C10.3304 12.136 10.3452 12.0449 10.3755 11.9601C10.4058 11.8753 10.451 11.7985 10.5081 11.7344C10.5653 11.6704 10.6334 11.6205 10.708 11.5878C10.7827 11.5551 10.8624 11.5404 10.9422 11.5444C11.0221 11.5404 11.1018 11.5551 11.1764 11.5878C11.2511 11.6205 11.3191 11.6704 11.3763 11.7344C11.4335 11.7985 11.4787 11.8753 11.509 11.9601C11.5393 12.0449 11.5541 12.136 11.5525 12.2277C11.5525 14.037 11.5819 15.8758 11.6113 17.6514C11.6113 18.3473 11.6334 19.0432 11.6407 19.7349C11.6665 21.7045 11.6885 24.0199 11.6407 26.3016C11.6076 27.6428 11.5341 28.9966 11.4679 30.3125C11.4238 31.156 11.3797 31.9995 11.3429 32.843C11.1812 36.8454 11.104 41.0714 11.1003 46.1535C11.1029 46.2455 11.089 46.3371 11.0593 46.4227C11.0297 46.5082 10.9851 46.5858 10.9282 46.6507C10.8713 46.7156 10.8033 46.7664 10.7286 46.7998C10.6538 46.8333 10.5739 46.8487 10.4937 46.8452ZM10.9569 11.9662C10.9257 11.9632 10.8942 11.9678 10.8646 11.9797C10.835 11.9915 10.8079 12.0104 10.785 12.0351C10.7621 12.0597 10.744 12.0896 10.7318 12.1228C10.7197 12.1559 10.7137 12.1917 10.7143 12.2277C10.7143 14.0075 10.7437 15.8126 10.7695 17.5628C10.8099 20.1735 10.854 22.8727 10.8062 25.534C10.7658 27.7524 10.6628 30.0088 10.5599 32.1893C10.4643 34.298 10.3614 36.4827 10.321 38.6294C10.2732 40.9322 10.2511 43.3995 10.2511 46.162C10.251 46.1978 10.2574 46.2332 10.2697 46.2661C10.2821 46.299 10.3002 46.3286 10.323 46.3531C10.3457 46.3776 10.3726 46.3965 10.402 46.4086C10.4314 46.4207 10.4626 46.4258 10.4937 46.4234C10.5252 46.4264 10.5568 46.4218 10.5866 46.4099C10.6164 46.3981 10.6438 46.3793 10.6669 46.3547C10.6901 46.3302 10.7085 46.3003 10.7211 46.2672C10.7337 46.234 10.7401 46.1981 10.74 46.162C10.74 41.0756 10.8173 36.837 10.9827 32.8303C11.0158 31.9868 11.0599 31.1433 11.104 30.2998C11.1738 28.9881 11.2437 27.6343 11.2768 26.3058C11.3356 24.0283 11.3172 21.7171 11.2768 19.756L11.2437 17.6725C11.2179 15.8927 11.1885 14.0539 11.1849 12.2403C11.1869 12.2062 11.1829 12.1719 11.1732 12.1396C11.1635 12.1072 11.1483 12.0774 11.1284 12.0519C11.1086 12.0263 11.0845 12.0056 11.0576 11.9909C11.0306 11.9762 11.0014 11.9678 10.9716 11.9662H10.9569Z" fill="black"/>
<path d="M11.3643 13.1513C12.1988 13.1513 13.0737 12.8982 13.8862 13.1976C14.2538 13.3242 14.6214 13.417 14.9523 13.5646C15.1428 13.6569 15.3452 13.7124 15.5515 13.7291C15.7828 13.7101 16.015 13.7101 16.2463 13.7291L15.9485 13.3874C16.1617 14.0833 16.0515 14.9057 16.0073 15.6269C15.9522 16.4705 15.9559 17.314 15.9559 18.187V46.3137C15.9658 46.4362 16.0152 46.55 16.0944 46.6328C16.1736 46.7157 16.2769 46.7616 16.3841 46.7616C16.4913 46.7616 16.5947 46.7157 16.6739 46.6328C16.7531 46.55 16.8025 46.4362 16.8124 46.3137V46.1324C16.8025 46.0099 16.7531 45.8961 16.6739 45.8133C16.5947 45.7304 16.4913 45.6845 16.3841 45.6845C16.2769 45.6845 16.1736 45.7304 16.0944 45.8133C16.0152 45.8961 15.9658 46.0099 15.9559 46.1324V46.3137C15.9658 46.4362 16.0152 46.55 16.0944 46.6328C16.1736 46.7157 16.2769 46.7616 16.3841 46.7616C16.4913 46.7616 16.5947 46.7157 16.6739 46.6328C16.7531 46.55 16.8025 46.4362 16.8124 46.3137V20.6627C16.8124 19.292 16.7867 17.9213 16.8124 16.5506C16.8902 15.6199 16.9147 14.6845 16.886 13.7501C16.8271 13.1344 16.7021 12.7253 16.0882 12.7168C15.8231 12.7522 15.5547 12.7365 15.2942 12.6705C15.0478 12.5777 14.8126 12.4975 14.5589 12.4174C14.0964 12.2354 13.6161 12.1193 13.1289 12.0716C12.537 12.0716 11.9488 12.1601 11.3606 12.1686C11.2539 12.1799 11.1547 12.2366 11.0825 12.3275C11.0103 12.4184 10.9702 12.5369 10.9702 12.6599C10.9702 12.7829 11.0103 12.9014 11.0825 12.9923C11.1547 13.0832 11.2539 13.1399 11.3606 13.1513H11.3643Z" fill="black"/>
<path d="M16.3828 46.9843C16.303 46.9884 16.2233 46.9736 16.1486 46.9409C16.0739 46.9083 16.0059 46.8584 15.9487 46.7943C15.8915 46.7303 15.8464 46.6535 15.8161 46.5687C15.7858 46.4838 15.771 46.3928 15.7726 46.3011V18.0436C15.7726 17.2423 15.7726 16.4156 15.824 15.5932C15.824 15.4836 15.824 15.3697 15.8498 15.2558C15.8962 14.8121 15.9023 14.364 15.8682 13.9189H15.8498C15.522 13.9698 15.1883 13.9143 14.8866 13.7586C14.6844 13.67 14.4675 13.6025 14.2617 13.5351L13.8315 13.3917C13.2732 13.2364 12.6937 13.2077 12.1258 13.3073C11.8758 13.3073 11.6185 13.3537 11.3648 13.3579C11.2865 13.3597 11.2087 13.3432 11.1362 13.3093C11.0636 13.2755 10.9979 13.2251 10.9428 13.1612C10.8878 13.0973 10.8447 13.0212 10.8161 12.9375C10.7875 12.8539 10.7741 12.7645 10.7766 12.6747C10.7726 12.5823 10.785 12.49 10.8128 12.4032C10.8407 12.3164 10.8836 12.237 10.9388 12.1697C10.9941 12.1023 11.0606 12.0485 11.1344 12.0113C11.2083 11.9742 11.2879 11.9545 11.3685 11.9535C11.6258 11.9535 11.8831 11.9282 12.1405 11.9071C12.4741 11.8724 12.8091 11.857 13.1441 11.8607C13.5571 11.8856 13.9653 11.975 14.3572 12.1264L14.6182 12.2108C14.8719 12.2909 15.1109 12.371 15.3535 12.468C15.51 12.5182 15.6737 12.5325 15.8351 12.5102H16.0924C16.8865 12.5102 17.0115 13.1471 17.0703 13.7291C17.1115 14.3486 17.1029 14.9712 17.0445 15.589C17.0225 15.9095 17.0004 16.2343 16.9968 16.559C16.9968 17.4742 16.9968 18.4105 16.9968 19.3131C16.9968 19.7644 16.9968 20.2156 16.9968 20.6669V46.3053C16.9979 46.397 16.9826 46.488 16.9518 46.5726C16.9211 46.6572 16.8755 46.7337 16.818 46.7974C16.7604 46.861 16.6921 46.9104 16.6173 46.9426C16.5424 46.9748 16.4626 46.989 16.3828 46.9843ZM16.1402 46.3011C16.1401 46.3369 16.1465 46.3723 16.1588 46.4052C16.1712 46.4381 16.1893 46.4677 16.2121 46.4922C16.2348 46.5168 16.2617 46.5356 16.2911 46.5477C16.3205 46.5598 16.3517 46.5649 16.3828 46.5626C16.4469 46.5661 16.5099 46.5421 16.5593 46.4951C16.5827 46.4707 16.6012 46.4407 16.6133 46.4071C16.6254 46.3736 16.6308 46.3374 16.6291 46.3011V46.1198C16.6287 46.0837 16.6219 46.0482 16.6091 46.0153C16.5964 45.9824 16.5779 45.9529 16.5548 45.9284C16.5318 45.904 16.5047 45.8851 16.4751 45.8731C16.4455 45.861 16.4141 45.856 16.3828 45.8583C16.3515 45.8553 16.3201 45.8599 16.2905 45.8718C16.2609 45.8836 16.2337 45.9025 16.2109 45.9272C16.188 45.9518 16.1699 45.9817 16.1577 46.0148C16.1455 46.048 16.1396 46.0838 16.1402 46.1198V46.3011ZM16.3828 45.4576C16.4673 45.4566 16.5511 45.4752 16.6291 45.5124V20.6627C16.6291 20.2114 16.6291 19.7601 16.6291 19.3131C16.6291 18.4063 16.6291 17.47 16.6291 16.5464C16.6291 16.2132 16.6585 15.8842 16.6806 15.551C16.7229 15.0493 16.7376 14.545 16.7247 14.0412L16.2395 13.9315C16.2679 14.3855 16.2593 14.8416 16.2137 15.2938C16.2137 15.4076 16.2137 15.5173 16.1917 15.627C16.1402 16.4325 16.1402 17.2549 16.1402 18.0478V45.4913C16.2171 45.4546 16.2996 45.4359 16.3828 45.4365V45.4576ZM15.824 12.9573L16.721 13.9821C16.721 13.9189 16.721 13.8556 16.721 13.7923C16.6549 13.1344 16.5225 12.9488 16.0998 12.9488H15.8682L15.824 12.9573ZM12.9382 12.8603C13.2777 12.8534 13.6162 12.906 13.9418 13.0163C14.0779 13.0669 14.2175 13.1133 14.3572 13.1555C14.5741 13.223 14.7984 13.2947 15.0153 13.3875C15.1882 13.4718 15.372 13.5231 15.5593 13.5393C15.6365 13.5393 15.7138 13.5393 15.7946 13.5393C15.7936 13.5182 15.7936 13.4971 15.7946 13.476L15.6402 12.9699C15.5151 12.9693 15.3909 12.945 15.2726 12.8982C15.03 12.8054 14.7947 12.7295 14.5374 12.6536L14.269 12.565C13.9121 12.428 13.5415 12.3429 13.1661 12.312C12.85 12.312 12.5191 12.3331 12.1993 12.3584C11.942 12.3837 11.6736 12.4048 11.4052 12.409C11.373 12.4094 11.3413 12.4175 11.3119 12.4326C11.2825 12.4477 11.2562 12.4696 11.2344 12.4969C11.2127 12.5242 11.1961 12.5563 11.1857 12.5912C11.1752 12.6261 11.1711 12.6632 11.1736 12.7C11.1716 12.7353 11.176 12.7708 11.1866 12.8041C11.1972 12.8373 11.2138 12.8677 11.2353 12.8931C11.2568 12.9185 11.2827 12.9385 11.3113 12.9518C11.34 12.965 11.3707 12.9712 11.4016 12.9699C11.6405 12.9699 11.8942 12.9446 12.1368 12.9193C12.3794 12.894 12.6551 12.8392 12.9382 12.8392V12.8603Z" fill="black"/>
<path d="M24.4631 45.5715C24.4631 39.1313 24.3712 32.6827 24.5182 26.2425C24.5954 23.0246 24.7094 19.8024 24.6579 16.5844C24.6322 15.0703 24.5513 13.5646 24.4594 12.0547C24.376 10.7153 24.3994 9.36997 24.5292 8.03543C24.5513 7.8119 24.566 7.58415 24.5844 7.36062C24.5844 7.26362 24.5844 6.89248 24.6469 6.81656C24.7094 6.74064 25.0696 6.81656 25.1652 6.81656H26.3269C26.9714 6.83839 27.6153 6.75315 28.2385 6.56351C28.7385 6.39902 29.3414 6.09958 29.8597 6.24298L29.5619 5.90136C29.7752 7.16662 29.6612 8.46562 29.6539 9.74775C29.6465 11.0299 29.8046 12.3247 29.8671 13.6152C29.9296 14.9058 29.9663 16.3229 30.0362 17.6767C30.106 19.0305 30.2568 20.4265 30.3597 21.8057C30.5656 24.5133 30.5766 27.2337 30.5619 29.954C30.5472 32.6743 30.5398 35.4832 30.5398 38.2499C30.5398 39.667 30.5398 41.084 30.4957 42.5011C30.4443 43.7074 30.4185 44.9262 30.8376 46.0607C31.0508 46.6385 31.7861 46.1409 31.5729 45.5673C31.2052 44.5509 31.3081 43.3362 31.3559 42.265C31.4111 41.025 31.3927 39.7808 31.3927 38.5409C31.3927 35.8037 31.3927 33.0581 31.3927 30.3378C31.3927 27.6175 31.3927 24.9604 31.2273 22.2823C31.139 20.9369 30.981 19.5999 30.9001 18.2545C30.8192 16.9091 30.7825 15.5469 30.7236 14.193C30.6611 12.7127 30.4773 11.2408 30.4884 9.74775C30.4884 8.37283 30.595 7.00213 30.3634 5.63987C30.3448 5.55765 30.3074 5.48262 30.255 5.42256C30.2027 5.3625 30.1373 5.31958 30.0656 5.29825C29.0179 5.01146 28.0033 5.76218 26.9703 5.82122C26.2938 5.8634 25.599 5.85074 24.9263 5.82122C24.4631 5.79592 24.0293 5.8887 23.8234 6.43698C23.7265 6.81503 23.677 7.20697 23.6764 7.60102C23.6764 7.72755 23.6469 8.00169 23.6433 8.02278C23.6139 8.27161 23.5514 8.73132 23.5293 9.06872C23.4914 10.6243 23.5418 12.181 23.68 13.7291C23.8528 17.1031 23.7793 20.4772 23.68 23.8512C23.5808 27.2252 23.5624 30.5992 23.5624 33.9733V45.5715C23.5723 45.694 23.6217 45.8078 23.7009 45.8906C23.7802 45.9735 23.8835 46.0194 23.9907 46.0194C24.0979 46.0194 24.2012 45.9735 24.2804 45.8906C24.3597 45.8078 24.4091 45.694 24.419 45.5715H24.4631Z" fill="black"/>
<path d="M31.1463 46.5626H31.0838C30.9906 46.5483 30.9027 46.505 30.8294 46.4373C30.7562 46.3696 30.7005 46.2803 30.6684 46.1788C30.242 45.0317 30.2567 43.7959 30.3008 42.5265C30.3523 41.3709 30.3486 40.1857 30.3449 39.0428V38.2878C30.3449 35.5211 30.3523 32.7544 30.367 29.9877C30.367 27.5289 30.367 24.6652 30.1684 21.8605C30.128 21.3544 30.0839 20.8483 30.0398 20.3464C29.9663 19.5029 29.8854 18.6046 29.8413 17.7273C29.8045 16.9977 29.7751 16.2639 29.7494 15.5342C29.7236 14.91 29.7016 14.269 29.6722 13.6616C29.6501 13.1935 29.6133 12.7211 29.5803 12.253C29.5178 11.4474 29.4553 10.6124 29.459 9.7815C29.459 9.46941 29.459 9.15309 29.459 8.83678C29.4988 8.04387 29.4853 7.24861 29.4185 6.45809C29.1286 6.49968 28.8437 6.57892 28.5693 6.69427C28.4627 6.73644 28.3598 6.7744 28.2605 6.80392C27.6213 7.00333 26.9595 7.09148 26.2974 7.06541C25.9077 7.06541 25.5217 7.06541 25.1357 7.06541H24.9777L24.7497 7.04011C24.7497 7.12024 24.7497 7.23411 24.7497 7.28894C24.752 7.33108 24.752 7.37333 24.7497 7.41547L24.7277 7.70226C24.7277 7.833 24.7093 7.96374 24.6983 8.09027C24.5707 9.41369 24.5473 10.7476 24.6284 12.0758C24.713 13.4255 24.7975 15.0281 24.8233 16.6139C24.8674 19.2203 24.8012 21.869 24.735 24.429C24.735 25.049 24.7019 25.6647 24.6872 26.2847C24.5806 30.9535 24.599 35.7067 24.6174 40.3038C24.6174 42.0696 24.6174 43.8367 24.6174 45.6053C24.6174 45.7909 24.5531 45.969 24.4387 46.1003C24.3242 46.2316 24.169 46.3054 24.0071 46.3054C23.8453 46.3054 23.6901 46.2316 23.5756 46.1003C23.4612 45.969 23.3969 45.7909 23.3969 45.6053V34.0239C23.3969 30.3125 23.4373 27.0101 23.5145 23.9018C23.6064 20.2832 23.6653 17.023 23.5145 13.7797C23.5145 13.3917 23.4704 13.0037 23.4447 12.6157C23.3422 11.4443 23.3151 10.2658 23.3638 9.08983C23.3638 8.84943 23.4189 8.54998 23.4484 8.30115C23.4484 8.19993 23.4704 8.10714 23.4778 8.03544C23.4851 7.96375 23.4778 7.90048 23.4998 7.79083V7.59682C23.4998 7.51247 23.4998 7.4239 23.4998 7.33533C23.5039 7.00821 23.5522 6.6838 23.6432 6.37373C23.9005 5.65675 24.4961 5.60193 24.9152 5.62723C25.6798 5.66519 26.3415 5.66941 26.9407 5.62723C27.3458 5.58235 27.7453 5.48616 28.1319 5.34044C28.756 5.06732 29.4317 4.98733 30.0913 5.10847C30.197 5.13915 30.2934 5.20258 30.3699 5.29183C30.4464 5.38108 30.5001 5.49273 30.525 5.61458C30.6736 6.69238 30.7204 7.78541 30.6647 8.87473C30.6647 9.16996 30.6647 9.46519 30.6647 9.76042C30.6647 10.6672 30.7273 11.5908 30.7934 12.4892C30.8339 13.0459 30.8743 13.6279 30.9 14.1762C30.9 14.5979 30.9368 15.045 30.9515 15.4836C30.9882 16.3862 31.0213 17.3182 31.0765 18.2334C31.1169 18.9546 31.1831 19.6885 31.2493 20.397C31.3044 21.017 31.3632 21.637 31.4036 22.257C31.5875 24.9689 31.5875 27.7398 31.5691 30.3293C31.5691 33.1804 31.547 36.0778 31.547 38.5325V39.3422C31.547 40.2996 31.547 41.2907 31.5103 42.2692V42.6277C31.4625 43.6062 31.411 44.6141 31.7272 45.4745C31.774 45.5933 31.7916 45.7244 31.778 45.8538C31.7643 45.9832 31.7201 46.1058 31.65 46.2084C31.5955 46.3079 31.5217 46.3917 31.4343 46.4531C31.3469 46.5146 31.2484 46.5521 31.1463 46.5626ZM29.8192 6.49604C29.8791 7.28139 29.8914 8.07056 29.856 8.85786C29.856 9.16996 29.856 9.48206 29.856 9.79416C29.856 10.6039 29.9148 11.4263 29.9736 12.2235C30.0104 12.7 30.0434 13.1724 30.0655 13.649C30.0949 14.2732 30.1207 14.9142 30.1427 15.5258C30.1721 16.2512 30.2016 16.9808 30.2383 17.7105C30.2824 18.5793 30.3596 19.4608 30.4331 20.3127C30.4772 20.8188 30.5251 21.3249 30.5618 21.831C30.775 24.6525 30.7787 27.5289 30.764 30.0004C30.7493 32.7671 30.742 35.5324 30.742 38.2963V39.0343C30.742 40.1815 30.742 41.3709 30.6978 42.5391C30.6427 43.8044 30.628 44.9389 31.025 46.0101C31.0325 46.0424 31.0478 46.0715 31.0694 46.094C31.0909 46.1164 31.1176 46.1313 31.1463 46.1367C31.194 46.1382 31.2413 46.1258 31.2837 46.1007C31.3261 46.0757 31.3623 46.0387 31.389 45.9933C31.4201 45.9497 31.44 45.897 31.4465 45.8411C31.453 45.7852 31.4458 45.7284 31.4257 45.677C31.0581 44.728 31.1316 43.6188 31.1794 42.6403V42.2861C31.2198 41.3202 31.2162 40.3333 31.2125 39.3802V38.5704C31.2125 36.1116 31.2125 33.2184 31.2125 30.3673C31.2309 27.7777 31.2309 25.0237 31.0507 22.3287C31.0066 21.7087 30.9515 21.0929 30.8963 20.4772C30.8302 19.7644 30.764 19.0263 30.7199 18.2967C30.6684 17.3773 30.6317 16.4452 30.5949 15.5384C30.5949 15.1167 30.5655 14.6696 30.5434 14.2352C30.5214 13.6701 30.4772 13.0965 30.4368 12.5482C30.3706 11.6414 30.3045 10.7094 30.3081 9.7815C30.3081 9.48628 30.3081 9.18683 30.3081 8.8916C30.335 8.13522 30.3252 7.3777 30.2788 6.62257L29.8192 6.49604ZM24.8233 6.07429C24.3858 6.07429 24.1432 6.2219 24.0218 6.56352C23.9447 6.83588 23.9063 7.12068 23.9079 7.40703C23.9079 7.50404 23.9079 7.5926 23.8895 7.68117V7.87518C23.8895 7.98905 23.8711 8.10714 23.8675 8.13245C23.8638 8.15775 23.8674 8.30115 23.838 8.40659C23.8086 8.64277 23.7719 8.93378 23.7572 9.16574C23.7086 10.3206 23.7356 11.4781 23.838 12.6283C23.8601 13.0206 23.8858 13.4128 23.9079 13.8008C24.0733 17.0652 24.0108 20.3338 23.9079 23.9651C23.827 27.0523 23.7902 30.3504 23.7902 34.0576V45.5715C23.7976 45.64 23.8265 45.703 23.8715 45.7487C23.9165 45.7944 23.9746 45.8196 24.0347 45.8196C24.0948 45.8196 24.1529 45.7944 24.1979 45.7487C24.2429 45.703 24.2719 45.64 24.2792 45.5715C24.2792 43.8058 24.2792 42.0386 24.2792 40.2701C24.2792 35.6687 24.2424 30.9114 24.3527 26.2383L24.3968 24.3826C24.463 21.8268 24.5292 19.1866 24.4887 16.5886C24.463 15.0028 24.3748 13.417 24.2902 12.0716C24.2091 10.7195 24.2324 9.36176 24.3601 8.01435C24.3601 7.88783 24.3821 7.75709 24.3931 7.63056L24.4152 7.33955C24.4175 7.31009 24.4175 7.28044 24.4152 7.25098C24.4152 6.97684 24.4152 6.77018 24.5365 6.66053C24.6578 6.55087 24.7681 6.57618 25.0622 6.61413H25.1799C25.5646 6.61413 25.9506 6.61413 26.3379 6.61413C26.965 6.63833 27.5919 6.5559 28.198 6.36952C28.2936 6.34 28.3929 6.30204 28.4958 6.26408C28.7893 6.14215 29.0939 6.05868 29.4038 6.01524V5.95198L29.3229 5.47118C28.974 5.52876 28.6297 5.61903 28.2936 5.7411C27.8808 5.8957 27.4541 5.99616 27.0216 6.04055C26.3359 6.08042 25.6487 6.08042 24.963 6.04055L24.8233 6.07429ZM29.4258 5.5007L30.3045 6.50448C30.2787 6.24721 30.2493 5.98994 30.2052 5.73267C30.1938 5.68969 30.1729 5.65081 30.1446 5.61978C30.1162 5.58875 30.0814 5.56663 30.0435 5.55553C29.8423 5.49399 29.6337 5.46979 29.4258 5.48383V5.5007Z" fill="black"/>
<path d="M38.5648 46.3939C38.5648 42.5559 38.5648 38.718 38.5648 34.8842C38.5648 33.948 38.5648 33.0159 38.5243 32.0838C38.4839 31.1517 38.3736 30.245 38.3368 29.3255C38.3001 28.4061 38.3368 27.4361 38.3368 26.4956C38.3378 25.6473 38.2739 24.8005 38.1457 23.965C38.0942 23.6445 38.1163 23.3198 38.0795 22.9992C38.0795 22.9444 38.0207 23.0541 38.0795 23.0541C38.2339 23.0541 38.4067 22.9697 38.5684 22.9613C39.3037 22.9275 40.0095 23.2438 40.7337 23.2945C41.1014 23.3155 41.469 23.2945 41.8366 23.3366C42.1196 23.3408 42.3974 23.4248 42.6454 23.5812C42.8807 23.8132 42.7336 24.5808 42.7446 24.9013C42.7777 25.7786 42.9174 26.6432 43.024 27.5078C43.1306 28.3724 43.1968 29.334 43.2777 30.245C43.3586 31.1559 43.4321 32.0922 43.4578 33.0159C43.4835 33.9395 43.4211 34.8716 43.4321 35.7995C43.4431 36.7273 43.7041 37.6847 43.7335 38.6547C43.7629 39.6965 43.7335 40.7382 43.7335 41.7757C43.7335 42.8132 43.7335 43.8845 43.7335 44.9051C43.7335 45.6643 43.5571 46.5373 43.7997 47.2585C43.8189 47.3447 43.8578 47.4235 43.9126 47.4866C43.9673 47.5497 44.0358 47.5948 44.1109 47.6172C44.186 47.6396 44.2649 47.6385 44.3395 47.614C44.4141 47.5894 44.4816 47.5424 44.535 47.4778C44.6541 47.3345 44.7436 47.1623 44.7971 46.974C44.8505 46.7857 44.8665 46.586 44.8437 46.3897C44.7886 45.7697 43.932 45.7613 43.9908 46.3897C43.9908 46.5457 44.0276 46.6596 43.9284 46.7819L44.6636 47.0012C44.4357 46.3306 44.6232 45.4197 44.6232 44.7153C44.6232 43.7369 44.6232 42.7584 44.6232 41.7631C44.6232 40.7677 44.6673 39.7471 44.6415 38.7391C44.6384 38.2966 44.6041 37.8551 44.5386 37.419C44.4374 36.9426 44.371 36.4573 44.3401 35.9682C44.318 34.9812 44.3916 33.9943 44.3658 33.0159C44.3401 32.0374 44.2556 31.0379 44.1673 30.0636C44.0791 29.0894 44.0093 28.1278 43.8916 27.1704C43.745 26.2544 43.6638 25.3263 43.649 24.3952C43.649 23.8891 43.6858 23.3029 43.3439 22.9233C43.002 22.5437 42.3035 22.4046 41.8072 22.3582C41.4102 22.3202 41.0131 22.3582 40.6161 22.3076C40.2191 22.2569 39.8331 22.1389 39.4434 22.0714C38.8736 21.9701 38.1126 21.8731 37.6053 22.2696C37.1641 22.6112 37.2671 23.3282 37.3222 23.847C37.37 24.2687 37.4693 24.6905 37.5134 25.1122C37.5483 25.6103 37.5557 26.1103 37.5355 26.6094C37.5355 27.5837 37.5134 28.5622 37.5575 29.5364C37.6016 30.5107 37.7156 31.565 37.7634 32.5815C37.8626 34.8421 37.7634 37.128 37.7634 39.3928C37.7634 41.7321 37.7634 44.0729 37.7634 46.415C37.7634 46.5447 37.8083 46.6692 37.8883 46.7609C37.9682 46.8527 38.0767 46.9042 38.1898 46.9042C38.3029 46.9042 38.4114 46.8527 38.4913 46.7609C38.5713 46.6692 38.6162 46.5447 38.6162 46.415L38.5648 46.3939Z" fill="black"/>
<path d="M44.1935 47.8405H44.0906C43.9776 47.814 43.8723 47.7553 43.7842 47.6698C43.6962 47.5843 43.6284 47.4747 43.5869 47.3513C43.4344 46.7822 43.3967 46.1808 43.4767 45.5926C43.4767 45.3648 43.5061 45.1371 43.5061 44.922V44.8672C43.5061 43.8592 43.5061 42.8174 43.5061 41.7884V41.5058C43.5061 40.5779 43.5428 39.6205 43.5061 38.68C43.4831 38.2255 43.434 37.7733 43.359 37.3262C43.2716 36.8286 43.22 36.3236 43.2046 35.8163C43.2046 35.3946 43.2046 34.9728 43.2046 34.5511C43.2046 34.0618 43.2304 33.5515 43.2046 33.0538C43.1789 32.0922 43.098 31.1264 43.0245 30.2956L42.9583 29.4774C42.9032 28.8489 42.8517 28.2121 42.7745 27.5668C42.7488 27.3559 42.7194 27.1451 42.6936 26.93C42.594 26.2713 42.5265 25.6067 42.4914 24.9393C42.4914 24.8465 42.4914 24.72 42.4914 24.5766C42.4914 24.332 42.5392 23.8723 42.44 23.771C42.2288 23.6534 41.9982 23.5887 41.7635 23.5812C41.5414 23.5537 41.3179 23.5425 41.0945 23.5475C40.9364 23.5475 40.782 23.5475 40.6276 23.5475C40.302 23.5197 39.9788 23.4633 39.6608 23.3788C39.2733 23.2704 38.8758 23.2166 38.477 23.2185C38.4098 23.2229 38.3433 23.2357 38.2785 23.2565L38.1976 23.2818C38.1976 23.3451 38.1976 23.4125 38.1976 23.4758C38.2003 23.6424 38.2126 23.8087 38.2344 23.9735C38.3653 24.8199 38.4293 25.6781 38.4256 26.5377V27.2252C38.4256 27.9127 38.4256 28.6254 38.4256 29.334C38.4476 29.8991 38.4917 30.4727 38.5358 31.021C38.5616 31.3753 38.591 31.7295 38.613 32.0838C38.6645 32.9062 38.6608 33.7371 38.6535 34.5426V34.8969C38.6535 37.5329 38.6535 40.1688 38.6535 42.8048V46.4066C38.6535 46.5922 38.5892 46.7703 38.4748 46.9016C38.3603 47.0329 38.2051 47.1067 38.0432 47.1067C37.8814 47.1067 37.7262 47.0329 37.6117 46.9016C37.4973 46.7703 37.433 46.5922 37.433 46.4066C37.433 45.1975 37.433 43.9843 37.433 42.7668V39.3928C37.433 38.6547 37.433 37.9124 37.433 37.1701C37.455 35.6645 37.4734 34.1082 37.4073 32.5941C37.3852 32.0838 37.3447 31.5693 37.3043 31.0674C37.2639 30.5655 37.2271 30.0552 37.2014 29.5491C37.1683 28.8026 37.172 28.0434 37.1757 27.3138V26.6094C37.1757 26.4745 37.1757 26.3353 37.1757 26.1877C37.1874 25.836 37.1788 25.4837 37.1499 25.1333C37.1278 24.9266 37.0911 24.7115 37.0543 24.526C37.0175 24.3404 36.9808 24.1042 36.9587 23.8807V23.8132C36.8962 23.2607 36.8117 22.5016 37.3263 22.1009C37.841 21.7002 38.6204 21.7508 39.2931 21.8689C39.4549 21.8985 39.613 21.9364 39.7747 21.9744C40.0004 22.033 40.2287 22.078 40.4585 22.1093C40.657 22.1093 40.8555 22.1093 41.0687 22.1346C41.282 22.1599 41.4363 22.1346 41.6459 22.1346C42.1973 22.1852 42.8848 22.3033 43.2929 22.7588C43.7009 23.2143 43.6605 23.8006 43.6605 24.2982V24.3826C43.6686 25.1801 43.7325 25.9755 43.8516 26.7613L43.8994 27.124C43.9876 27.841 44.0501 28.5664 44.109 29.2707L44.1751 30.0299C44.267 31.0336 44.3516 32.0163 44.3736 33.0074C44.3736 33.5093 44.3736 34.0196 44.3736 34.5131C44.3736 35.0066 44.3516 35.4874 44.3736 35.9724C44.391 36.3434 44.4378 36.7118 44.5133 37.0731L44.5685 37.3895C44.6356 37.8353 44.6713 38.2866 44.6751 38.7391C44.6972 39.6712 44.6751 40.6159 44.6751 41.5269V41.7799C44.6751 42.7204 44.6751 43.623 44.6751 44.7111C44.6751 44.9346 44.6751 45.1708 44.6383 45.4154C44.6383 45.5504 44.6383 45.6854 44.6126 45.8372C44.6974 45.8933 44.7691 45.972 44.8215 46.0668C44.874 46.1615 44.9058 46.2694 44.914 46.3812C44.9446 46.6695 44.9038 46.9618 44.7964 47.2248L44.8295 47.326H44.7633C44.7051 47.4437 44.6361 47.554 44.5574 47.6549C44.4607 47.767 44.3308 47.8332 44.1935 47.8405ZM43.8774 46.997C43.8912 47.0573 43.9084 47.1164 43.9288 47.1741C43.9478 47.2305 43.9785 47.2807 44.0182 47.3204C44.0579 47.3601 44.1055 47.3881 44.1568 47.4019C44.19 47.4105 44.2246 47.408 44.2566 47.3945C44.2886 47.381 44.3164 47.3572 44.3369 47.326C44.3767 47.2765 44.4124 47.2228 44.4435 47.1657L43.8774 46.997ZM44.1163 46.6343L44.3222 46.6933C44.2949 46.5052 44.2826 46.3147 44.2854 46.124C44.2601 46.1234 44.2351 46.1294 44.212 46.1414C44.189 46.1534 44.1686 46.1712 44.1524 46.1935C44.1362 46.2157 44.1245 46.2419 44.1183 46.27C44.112 46.2981 44.1114 46.3275 44.1163 46.3559C44.1288 46.4524 44.1288 46.5505 44.1163 46.647V46.6343ZM38.5395 22.1726C38.2268 22.1514 37.9157 22.2381 37.6462 22.4214C37.319 22.6745 37.3815 23.2649 37.4366 23.7289V23.8006C37.4587 24.0072 37.4955 24.2223 37.5286 24.4121C37.5616 24.6019 37.6021 24.8339 37.6278 25.0489C37.6602 25.4203 37.6687 25.7938 37.6535 26.1666C37.6535 26.3016 37.6535 26.4365 37.6535 26.5884C37.6535 26.8245 37.6535 27.0607 37.6535 27.2969C37.6535 28.0223 37.6536 28.773 37.6793 29.5027C37.7013 30.0088 37.7418 30.5107 37.7786 31.0125C37.8153 31.5144 37.8594 32.0332 37.8815 32.5477C37.9513 34.0787 37.9293 35.6434 37.9109 37.1575C37.9109 37.8956 37.8888 38.6336 37.8888 39.3717V42.7457C37.8888 43.9604 37.8888 45.1708 37.8888 46.3855C37.8961 46.4539 37.9251 46.5169 37.9701 46.5627C38.0151 46.6084 38.0732 46.6336 38.1333 46.6336C38.1934 46.6336 38.2515 46.6084 38.2965 46.5627C38.3415 46.5169 38.3704 46.4539 38.3778 46.3855C38.3778 45.1877 38.3778 43.9857 38.3778 42.7837C38.3778 40.1477 38.3778 37.5118 38.3778 34.8716V34.5173C38.3778 33.7202 38.3778 32.8978 38.3337 32.0922C38.3116 31.738 38.2858 31.3879 38.2601 31.0378C38.216 30.4769 38.1719 29.8991 38.1499 29.3255C38.1204 28.6212 38.1278 27.9042 38.1499 27.2168C38.1499 26.9764 38.1499 26.736 38.1499 26.4956C38.1512 25.66 38.0884 24.8259 37.9624 24.003C37.9369 23.8202 37.9222 23.6356 37.9183 23.4505C37.9183 23.3915 37.9183 23.3282 37.9183 23.2649H37.8925L37.8668 23.0456C37.8652 22.9823 37.8837 22.9204 37.9188 22.8715C37.954 22.8227 38.0034 22.7901 38.0579 22.7799H38.2344V22.8347H38.2712C38.3599 22.8056 38.4511 22.7872 38.5432 22.7799C38.9705 22.7776 39.3965 22.8357 39.8115 22.9528C40.1131 23.0297 40.4189 23.0832 40.7268 23.1131C40.8763 23.1131 41.0271 23.1131 41.179 23.1131C41.4024 23.1098 41.6258 23.121 41.8481 23.1468C42.1689 23.1509 42.4832 23.2512 42.7598 23.4379C43.0024 23.6783 42.9656 24.1886 42.9362 24.5977C42.9317 24.7016 42.9317 24.8058 42.9362 24.9098C42.9697 25.5615 43.0347 26.2106 43.1311 26.8541C43.1605 27.0691 43.1899 27.2758 43.2156 27.4951C43.2928 28.1404 43.348 28.7941 43.3994 29.4268L43.4656 30.2407C43.5428 31.0842 43.6237 32.0543 43.6494 33.0285C43.6494 33.5388 43.6494 34.0534 43.6494 34.5511C43.6494 34.9728 43.6274 35.3946 43.6494 35.8163C43.6674 36.3008 43.7178 36.7831 43.8002 37.2587C43.8809 37.7247 43.9312 38.197 43.9509 38.6716C43.9803 39.6205 43.9509 40.5864 43.9509 41.5184V41.801C43.9288 42.8259 43.9288 43.8676 43.9288 44.8714V44.9262C43.9288 45.1539 43.9288 45.3859 43.8994 45.6263C43.8994 45.7613 43.881 45.892 43.8774 46.027C43.9231 45.9439 43.9851 45.8744 44.0586 45.8238C44.132 45.7733 44.2147 45.7432 44.3001 45.736H44.3626L44.3847 45.4112C44.3847 45.1708 44.4178 44.9473 44.4178 44.7406C44.4178 43.6525 44.4178 42.7457 44.4178 41.7884V41.5395C44.4178 40.6327 44.4508 39.6922 44.4178 38.7728C44.4143 38.3487 44.3811 37.9256 44.3185 37.5076L44.2634 37.1955C44.1846 36.8089 44.1354 36.4152 44.1163 36.0188C44.1163 35.5253 44.1163 35.0234 44.1163 34.5426C44.1163 34.0618 44.1384 33.5515 44.1163 33.0581C44.0906 32.0796 44.0097 31.1053 43.9178 30.1058L43.8516 29.3466C43.7928 28.6465 43.7303 27.9253 43.6421 27.2379L43.598 26.8709C43.4741 26.0645 43.4076 25.2478 43.3994 24.429V24.3404C43.3994 23.8807 43.3995 23.4083 43.1495 23.1131C42.8223 22.7462 42.2194 22.6492 41.7268 22.607C41.543 22.607 41.3592 22.607 41.1717 22.607C40.9842 22.607 40.7489 22.607 40.532 22.5775C40.3151 22.5479 40.0431 22.4931 39.7968 22.4383C39.6461 22.4003 39.4917 22.3624 39.3373 22.3371C39.0761 22.2656 38.8107 22.2162 38.5432 22.1895L38.5395 22.1726Z" fill="black"/>
<path d="M11.3136 12.9362V12.7422C11.3037 12.6197 11.2543 12.5059 11.1751 12.4231C11.0958 12.3402 10.9925 12.2943 10.8853 12.2943C10.7781 12.2943 10.6748 12.3402 10.5956 12.4231C10.5163 12.5059 10.4669 12.6197 10.457 12.7422V45.7823C10.4669 45.9048 10.5163 46.0186 10.5956 46.1015C10.6748 46.1843 10.7781 46.2302 10.8853 46.2302C10.9925 46.2302 11.0958 46.1843 11.1751 46.1015C11.2543 46.0186 11.3037 45.9048 11.3136 45.7823V45.3015C11.3037 45.1791 11.2543 45.0653 11.1751 44.9824C11.0958 44.8996 10.9925 44.8537 10.8853 44.8537C10.7781 44.8537 10.6748 44.8996 10.5956 44.9824C10.5163 45.0653 10.4669 45.1791 10.457 45.3015V45.7823C10.4669 45.9048 10.5163 46.0186 10.5956 46.1015C10.6748 46.1843 10.7781 46.2302 10.8853 46.2302C10.9925 46.2302 11.0958 46.1843 11.1751 46.1015C11.2543 46.0186 11.3037 45.9048 11.3136 45.7823V12.7422C11.3037 12.6197 11.2543 12.5059 11.1751 12.4231C11.0958 12.3402 10.9925 12.2943 10.8853 12.2943C10.7781 12.2943 10.6748 12.3402 10.5956 12.4231C10.5163 12.5059 10.4669 12.6197 10.457 12.7422V12.9362C10.4669 13.0586 10.5163 13.1724 10.5956 13.2553C10.6748 13.3381 10.7781 13.384 10.8853 13.384C10.9925 13.384 11.0958 13.3381 11.1751 13.2553C11.2543 13.1724 11.3037 13.0586 11.3136 12.9362Z" fill="black"/>
<path d="M10.8869 46.4614C10.8072 46.4654 10.7276 46.4508 10.653 46.4184C10.5784 46.386 10.5103 46.3366 10.4529 46.2731C10.3955 46.2095 10.3499 46.1333 10.319 46.0489C10.2881 45.9646 10.2724 45.8739 10.273 45.7824V12.7422C10.2849 12.5654 10.3546 12.4002 10.4681 12.2797C10.5815 12.1593 10.7305 12.0923 10.8851 12.0923C11.0397 12.0923 11.1886 12.1593 11.3021 12.2797C11.4155 12.4002 11.4852 12.5654 11.4971 12.7422V45.7824C11.4982 45.8737 11.483 45.9643 11.4525 46.0486C11.422 46.133 11.3768 46.2093 11.3196 46.2729C11.2625 46.3364 11.1946 46.386 11.1202 46.4184C11.0458 46.4508 10.9664 46.4654 10.8869 46.4614ZM10.6406 45.7824C10.6405 45.8186 10.6469 45.8544 10.6595 45.8876C10.6721 45.9208 10.6906 45.9506 10.7137 45.9752C10.7369 45.9997 10.7642 46.0185 10.794 46.0304C10.8238 46.0422 10.8555 46.0468 10.8869 46.0439C10.9182 46.0468 10.9496 46.0422 10.9793 46.0304C11.0089 46.0185 11.036 45.9996 11.0589 45.975C11.0817 45.9503 11.0998 45.9205 11.112 45.8873C11.1242 45.8541 11.1301 45.8184 11.1295 45.7824V45.3016C11.1296 45.2654 11.1232 45.2296 11.1106 45.1964C11.098 45.1632 11.0796 45.1334 11.0564 45.1088C11.0332 45.0842 11.0059 45.0654 10.9761 45.0536C10.9463 45.0418 10.9147 45.0372 10.8832 45.0401C10.852 45.0372 10.8205 45.0418 10.7909 45.0536C10.7613 45.0655 10.7341 45.0844 10.7113 45.109C10.6884 45.1336 10.6703 45.1635 10.6581 45.1967C10.6459 45.2299 10.64 45.2656 10.6406 45.3016V45.7824ZM10.8832 44.6184C10.9677 44.6173 11.0515 44.636 11.1295 44.6732V13.5646C10.9725 13.6362 10.7976 13.6362 10.6406 13.5646V44.6647C10.7182 44.6313 10.8004 44.6142 10.8832 44.6141V44.6184ZM10.8832 12.4807C10.8516 12.4777 10.8199 12.4824 10.79 12.4945C10.7601 12.5067 10.7328 12.5259 10.7099 12.551C10.6869 12.5761 10.6689 12.6065 10.657 12.6402C10.645 12.6739 10.6394 12.7101 10.6406 12.7464V12.9404C10.641 12.9764 10.6478 13.012 10.6606 13.0449C10.6734 13.0777 10.6918 13.1073 10.7149 13.1318C10.7379 13.1562 10.765 13.1751 10.7946 13.1871C10.8242 13.1992 10.8556 13.2042 10.8869 13.2019C10.9182 13.2049 10.9496 13.2003 10.9793 13.1884C11.0089 13.1765 11.036 13.1577 11.0589 13.133C11.0817 13.1084 11.0998 13.0785 11.112 13.0453C11.1242 13.0122 11.1301 12.9764 11.1295 12.9404V12.7464C11.1317 12.7087 11.1268 12.6708 11.1152 12.6354C11.1036 12.6 11.0855 12.5679 11.0622 12.5411C11.0389 12.5144 11.0108 12.4936 10.98 12.4803C10.9491 12.467 10.9161 12.4614 10.8832 12.4639V12.4807Z" fill="black"/>
<path d="M24.463 6.35265V6.17129H23.6064C23.6064 7.47029 23.7314 8.76086 23.8013 10.0556C23.8711 11.3504 23.8858 12.6958 23.9226 14.0159C23.9961 16.6139 24.0733 19.2119 24.088 21.8141C24.1103 24.3885 23.9665 26.9612 23.6579 29.5111C23.5072 30.7216 23.5035 31.9447 23.3785 33.1551C23.2535 34.3655 23.1028 35.5591 23.0587 36.7822C22.9484 39.6206 23.1248 42.459 23.1285 45.2974C23.1384 45.4198 23.1878 45.5336 23.2671 45.6165C23.3463 45.6993 23.4496 45.7453 23.5568 45.7453C23.664 45.7453 23.7673 45.6993 23.8466 45.6165C23.9258 45.5336 23.9752 45.4198 23.9851 45.2974C23.9851 42.7669 23.8417 40.2363 23.8858 37.7058C23.9004 36.4697 23.9814 35.2359 24.1284 34.0112C24.2865 32.805 24.3233 31.5946 24.4226 30.38C24.5218 29.1653 24.7203 27.8494 24.7902 26.5842C24.86 25.3189 24.9188 24.0241 24.9262 22.7462C24.9262 20.1566 24.86 17.5713 24.7865 14.9859C24.7461 13.5014 24.7313 12.0084 24.6615 10.5238C24.5916 9.03922 24.463 7.62634 24.4446 6.16707C24.4347 6.04462 24.3853 5.93081 24.3061 5.84797C24.2269 5.76512 24.1235 5.71919 24.0163 5.71919C23.9091 5.71919 23.8058 5.76512 23.7266 5.84797C23.6474 5.93081 23.5979 6.04462 23.588 6.16707V6.34843C23.5979 6.47089 23.6474 6.58469 23.7266 6.66754C23.8058 6.75039 23.9091 6.79631 24.0163 6.79631C24.1235 6.79631 24.2269 6.75039 24.3061 6.66754C24.3853 6.58469 24.4347 6.47089 24.4446 6.34843L24.463 6.35265Z" fill="black"/>
<path d="M23.5559 45.9806C23.4761 45.9846 23.3964 45.9699 23.3217 45.9372C23.247 45.9045 23.179 45.8546 23.1218 45.7906C23.0646 45.7266 23.0195 45.6497 22.9892 45.5649C22.9589 45.4801 22.9441 45.389 22.9457 45.2974C22.9457 44.2303 22.9199 43.1422 22.8942 42.092C22.8501 40.3502 22.806 38.5493 22.8942 36.7737C22.931 35.7995 23.0339 34.8336 23.1368 33.8974C23.1626 33.6443 23.192 33.387 23.2177 33.1298C23.2729 32.5857 23.3059 32.029 23.3353 31.4849C23.3721 30.827 23.4125 30.148 23.4934 29.4816C23.805 26.9419 23.9487 24.3787 23.9235 21.8141C23.9235 19.389 23.8427 16.9218 23.7765 14.5346V14.0243C23.7765 13.6447 23.7544 13.2694 23.7471 12.8898C23.725 11.9662 23.703 11.0088 23.6515 10.0683C23.6515 9.69713 23.6074 9.32177 23.5853 8.95062C23.5339 8.13242 23.4824 7.28892 23.4603 6.44541C23.4603 6.41589 23.4603 6.38636 23.4603 6.35262V5.96461H23.4897C23.5274 5.82379 23.6042 5.70098 23.7084 5.61492C23.8127 5.52887 23.9386 5.48431 24.0669 5.48803C24.1969 5.48291 24.3247 5.52672 24.4309 5.61278C24.5371 5.69883 24.6158 5.8224 24.6551 5.96461H24.6808V6.17127C24.6808 7.08226 24.7544 8.0059 24.8095 8.90002C24.8426 9.43986 24.8757 9.97549 24.9014 10.5153C24.9455 11.5233 24.9713 12.5482 24.9933 13.5393L25.0264 14.9817V15.6059C25.0926 17.9466 25.1587 20.3675 25.1477 22.7504C25.1477 24.1253 25.0963 25.3864 25.0117 26.6052C24.9639 27.2969 24.883 27.9886 24.8058 28.6592C24.7397 29.2285 24.6735 29.819 24.6257 30.3968C24.5926 30.8186 24.5669 31.215 24.5375 31.6241C24.486 32.417 24.4345 33.2352 24.3316 34.0408C24.1831 35.2567 24.102 36.4823 24.089 37.71C24.0632 39.1608 24.089 40.6412 24.1331 42.0752C24.1588 43.1295 24.1846 44.2219 24.1846 45.2974C24.1867 45.3888 24.1723 45.4798 24.1424 45.5646C24.1125 45.6494 24.0677 45.7263 24.0108 45.7904C23.9539 45.8545 23.8861 45.9045 23.8117 45.9372C23.7372 45.9699 23.6576 45.9847 23.578 45.9806H23.5559ZM23.8133 6.99369C23.839 7.63897 23.8794 8.28847 23.9199 8.9211L23.986 10.043C24.0375 10.9877 24.0595 11.9493 24.0816 12.8814C24.0816 13.2567 24.0816 13.6321 24.1073 14.0075V14.522C24.1735 16.9091 24.2434 19.3806 24.2581 21.8141C24.2819 24.3984 24.1369 26.9812 23.8243 29.5406C23.7434 30.1944 23.7066 30.8649 23.6699 31.5144C23.6368 32.0585 23.6037 32.6237 23.5486 33.2015C23.5228 33.4587 23.4934 33.716 23.4677 33.9691C23.3648 34.8969 23.2618 35.8585 23.2251 36.8117C23.1589 38.5704 23.203 40.3671 23.2251 42.1005C23.2508 43.1548 23.2765 44.2472 23.2802 45.3184C23.2796 45.355 23.2857 45.3913 23.298 45.425C23.3104 45.4586 23.3287 45.489 23.352 45.514C23.3752 45.539 23.4027 45.5582 23.4328 45.5703C23.4628 45.5824 23.4948 45.5871 23.5265 45.5841C23.5581 45.5872 23.5899 45.5824 23.6198 45.5703C23.6497 45.5582 23.6769 45.539 23.6999 45.5139C23.7228 45.4887 23.7408 45.4584 23.7528 45.4247C23.7647 45.391 23.7703 45.3548 23.7691 45.3184C23.7691 44.2514 23.7397 43.1591 23.714 42.1089C23.6809 40.6707 23.6441 39.1861 23.6699 37.7227C23.6825 36.4765 23.7647 35.2326 23.9162 33.9986C24.0191 33.2099 24.0706 32.4001 24.1221 31.6157C24.1478 31.1939 24.1735 30.7722 24.2066 30.3799C24.2581 29.7937 24.3242 29.199 24.3904 28.6254C24.4676 27.9591 24.5485 27.2716 24.5926 26.5926C24.6772 25.3821 24.7213 24.1295 24.7286 22.7673C24.7286 20.3928 24.6735 17.9762 24.6073 15.6396V15.0197C24.6073 14.5346 24.5816 14.0538 24.5705 13.573C24.5485 12.5819 24.5264 11.5613 24.4786 10.5617C24.4566 10.0219 24.4235 9.48625 24.3867 8.95062C24.3463 8.30956 24.3059 7.65162 24.2801 6.99369C24.1282 7.05394 23.9625 7.04945 23.8133 6.98104V6.99369ZM23.8133 6.40745C23.8253 6.46876 23.856 6.52316 23.8997 6.561C23.9435 6.59884 23.9975 6.61765 24.0522 6.61411C24.1109 6.61888 24.169 6.5974 24.2142 6.55416C24.2594 6.51092 24.2883 6.44928 24.2948 6.38215H23.8133V6.40745ZM23.8941 5.9857H24.2066C24.1586 5.95288 24.1043 5.93405 24.0485 5.93087C23.9893 5.91994 23.9285 5.9318 23.8757 5.96461L23.8941 5.9857Z" fill="black"/>
<path d="M37.4734 23.0835C37.4734 25.0531 37.4992 27.0227 37.5947 28.9881C37.6903 30.9534 37.9256 32.7839 37.9624 34.6944C37.9991 36.605 37.9624 38.5197 37.9624 40.4303V46.3896C37.9624 46.5194 38.0073 46.6438 38.0873 46.7356C38.1672 46.8273 38.2757 46.8789 38.3888 46.8789C38.5019 46.8789 38.6104 46.8273 38.6903 46.7356C38.7703 46.6438 38.8152 46.5194 38.8152 46.3896V40.4345C38.8152 38.5239 38.874 36.6092 38.8152 34.6986C38.7564 32.7881 38.5395 30.9028 38.4476 28.9923C38.3557 27.0818 38.3263 25.0531 38.3226 23.0877C38.3226 22.958 38.2777 22.8336 38.1977 22.7418C38.1178 22.6501 38.0093 22.5985 37.8962 22.5985C37.7831 22.5985 37.6746 22.6501 37.5947 22.7418C37.5147 22.8336 37.4697 22.958 37.4697 23.0877L37.4734 23.0835Z" fill="black"/>
<path d="M38.3776 47.0814C38.2976 47.0848 38.2177 47.0695 38.1431 47.0364C38.0684 47.0032 38.0004 46.9529 37.9433 46.8885C37.8861 46.8242 37.8411 46.7471 37.8108 46.6621C37.7805 46.577 37.7658 46.4858 37.7673 46.3939V40.4345C37.7673 39.7386 37.7673 39.0385 37.7673 38.3258C37.7673 37.1322 37.793 35.9007 37.7673 34.6945C37.7453 33.5979 37.6533 32.4887 37.5688 31.4132C37.5026 30.6203 37.4365 29.8021 37.3997 28.9881C37.3151 27.2674 37.2747 25.4412 37.2747 23.0836C37.2714 22.9652 37.2963 22.8479 37.3468 22.7446C37.3974 22.6413 37.4716 22.5558 37.5614 22.4973C37.66 22.433 37.7715 22.3992 37.8849 22.3992C37.9984 22.3992 38.1098 22.433 38.2084 22.4973C38.2983 22.5558 38.3725 22.6413 38.4231 22.7446C38.4736 22.8479 38.4986 22.9652 38.4952 23.0836C38.4952 25.4454 38.5356 27.2632 38.6202 28.9881C38.6569 29.7895 38.7231 30.6035 38.7893 31.3921C38.8739 32.476 38.9657 33.5937 38.9878 34.7029C39.0172 35.9218 38.9878 37.1575 38.9878 38.3553C38.9878 39.0512 38.9878 39.7471 38.9878 40.443V46.4023C38.9889 46.4937 38.9737 46.5843 38.9432 46.6686C38.9127 46.7529 38.8674 46.8292 38.8103 46.8928C38.7532 46.9564 38.6853 47.0059 38.6109 47.0383C38.5365 47.0707 38.4571 47.0854 38.3776 47.0814ZM37.8997 22.8179C37.8494 22.8169 37.7999 22.8315 37.7563 22.8601C37.7234 22.8832 37.6967 22.9163 37.6792 22.9558C37.6617 22.9952 37.654 23.0395 37.657 23.0836C37.657 25.4454 37.6938 27.2632 37.7784 28.9881C37.8188 29.7895 37.8849 30.6077 37.9474 31.3963C38.0357 32.476 38.1239 33.5937 38.1497 34.7029C38.1754 35.9218 38.1497 37.1575 38.1497 38.3511C38.1497 39.0512 38.1497 39.7471 38.1497 40.4598V46.4192C38.157 46.4877 38.1859 46.5507 38.2309 46.5964C38.276 46.6421 38.334 46.6673 38.3941 46.6673C38.4542 46.6673 38.5123 46.6421 38.5573 46.5964C38.6023 46.5507 38.6312 46.4877 38.6386 46.4192V40.4345C38.6386 39.7386 38.6386 39.0385 38.6386 38.3258C38.6386 37.1364 38.6643 35.9007 38.6386 34.6945C38.6128 33.5979 38.5246 32.4887 38.4364 31.4132C38.3739 30.6203 38.3077 29.7979 38.2673 28.9881C38.1827 27.2674 38.146 25.4412 38.146 23.0836C38.1486 23.039 38.1404 22.9945 38.1222 22.955C38.104 22.9156 38.0766 22.8827 38.043 22.8601C37.9994 22.8315 37.9499 22.8169 37.8997 22.8179Z" fill="black"/>
<path d="M0.822781 2.93641C1.55802 2.46404 2.07637 1.72597 2.66088 1.02165L2.14253 1.09756H2.16826C2.19088 1.11931 2.21179 1.1433 2.23075 1.16926L2.29326 1.24517C2.27488 1.24517 2.27488 1.24517 2.29326 1.24517C2.35435 1.35585 2.4084 1.47143 2.45502 1.59101C2.52958 1.8104 2.61551 2.02447 2.71235 2.23208C2.81896 2.43874 2.95498 2.62853 3.07998 2.82675C3.13879 2.92375 3.1976 3.02498 3.24907 3.13041L3.28584 3.21898C3.28584 3.17259 3.28584 3.17681 3.28584 3.21898C3.28584 3.26116 3.31157 3.41721 3.30422 3.2949C3.30789 3.42443 3.35439 3.54751 3.43427 3.63915C3.51415 3.73079 3.62142 3.78413 3.73433 3.78835C3.84746 3.78615 3.95537 3.73333 4.03504 3.64114C4.11471 3.54895 4.15981 3.42471 4.16076 3.2949C4.12032 2.66227 3.71963 2.24051 3.4476 1.72175C3.31525 1.4687 3.27847 1.26626 3.15348 0.987904C3.01477 0.680431 2.80815 0.420112 2.55426 0.232965C2.47202 0.179804 2.37693 0.158866 2.28339 0.173327C2.18984 0.187789 2.10296 0.236862 2.03592 0.313099C1.5139 0.962599 1.05437 1.65006 0.392649 2.07181C0.301104 2.14053 0.236088 2.24699 0.211038 2.36917C0.185987 2.49134 0.202826 2.61989 0.258067 2.72823C0.313309 2.83656 0.402738 2.9164 0.507844 2.95122C0.612951 2.98604 0.725703 2.97319 0.822781 2.91532V2.93641Z" fill="black"/>
<path d="M3.71465 4.02876C3.59583 4.0285 3.47966 3.98846 3.38039 3.91354C3.28113 3.83862 3.2031 3.73208 3.15586 3.60701L3.10807 3.31178L3.08233 3.25274C3.03396 3.15409 2.9812 3.05837 2.92426 2.96594L2.80296 2.77615C2.71287 2.641 2.62939 2.5002 2.55296 2.3544C2.47817 2.20399 2.41306 2.04753 2.35813 1.88625L2.31402 1.75973C1.91949 2.29354 1.45129 2.74946 0.928081 3.10934C0.824985 3.18327 0.704905 3.21995 0.583414 3.21463C0.461924 3.2093 0.344636 3.16222 0.246758 3.07948C0.14888 2.99673 0.0749193 2.88216 0.0344969 2.75061C-0.00592558 2.61906 -0.0109407 2.47662 0.0200694 2.34175C0.0610937 2.1644 0.161489 2.01282 0.299442 1.91999C0.800552 1.55891 1.24437 1.10251 1.61185 0.570383L1.90228 0.203456C1.99734 0.0951051 2.12085 0.0256614 2.25373 0.00584314C2.38661 -0.0139751 2.52148 0.016933 2.63752 0.0937997C2.91237 0.305854 3.13414 0.596629 3.28086 0.937307C3.336 1.05962 3.37276 1.16927 3.40952 1.27049C3.45307 1.40448 3.50593 1.53423 3.56759 1.65851C3.64112 1.79768 3.722 1.92843 3.80655 2.05917C4.07558 2.41715 4.24913 2.85638 4.30651 3.32443C4.31049 3.41275 4.29851 3.50106 4.27131 3.5838C4.2441 3.66654 4.20227 3.74193 4.14844 3.80523C4.03517 3.94241 3.87927 4.02274 3.71465 4.02876ZM3.46835 3.31178C3.46502 3.37065 3.47806 3.42921 3.50562 3.47901C3.53318 3.52882 3.57383 3.56729 3.62169 3.58887C3.66954 3.61046 3.72214 3.61404 3.77189 3.59911C3.82163 3.58418 3.86595 3.5515 3.89846 3.50579C3.91755 3.48445 3.93261 3.45883 3.94273 3.43054C3.95285 3.40225 3.95779 3.37188 3.95727 3.3413C3.90506 2.95103 3.7557 2.58636 3.52716 2.29114C3.43893 2.15196 3.3507 2.00856 3.2735 1.86938C3.20253 1.73465 3.14106 1.59361 3.08969 1.44763C3.0566 1.35063 3.01984 1.25362 2.97205 1.13975L2.91324 1.01322L2.77354 1.18614L2.564 1.45185L2.60443 1.54885C2.63016 1.61633 2.6559 1.68381 2.67796 1.75551C2.72571 1.90043 2.78222 2.04136 2.84707 2.17726C2.91692 2.30801 2.9978 2.43453 3.07867 2.56106C3.12279 2.62432 3.16322 2.6918 3.20733 2.75928C3.25145 2.82676 3.29187 2.9069 3.33231 2.98281H3.35805L3.43525 3.21056V3.2443C3.43525 3.2443 3.43525 3.28648 3.43525 3.32022V3.36239L3.46835 3.31178ZM1.72215 1.03431C1.36915 1.51966 0.94944 1.93564 0.479595 2.26583C0.4532 2.28274 0.430105 2.30569 0.411765 2.33326C0.393426 2.36083 0.380219 2.39243 0.372971 2.4261C0.36363 2.46248 0.360767 2.50065 0.364556 2.53833C0.368346 2.57601 0.378709 2.61242 0.395027 2.64541C0.42929 2.70892 0.483814 2.75459 0.546975 2.77271C0.610137 2.79083 0.676969 2.77995 0.733254 2.74241C1.25577 2.37452 1.72159 1.90994 2.11183 1.3675L2.07873 1.32532L2.03462 1.27471L1.72215 1.03431ZM2.34709 0.384811C2.28208 0.384021 2.21917 0.411093 2.17064 0.460726C2.07506 0.583035 1.97947 0.701126 1.88756 0.823435L1.8067 0.924655L2.78824 0.78126C2.69403 0.639457 2.5797 0.516844 2.45003 0.418552C2.41853 0.399012 2.3828 0.390229 2.34709 0.393244V0.384811Z" fill="black"/>
<path d="M55.6406 43.9266C55.7141 45.1286 56.953 45.4787 57.6735 46.0607C57.8171 46.1721 57.9295 46.3289 57.997 46.512C57.997 46.4867 57.997 46.4487 57.997 46.4276L57.9014 46.5795C57.8059 46.7271 57.6992 46.8663 57.6073 47.0012C57.4343 47.3384 57.2938 47.6962 57.1882 48.0683C57.0214 48.4102 56.836 48.7398 56.6331 49.0552L57.4309 49.2998C57.4309 49.2407 57.4309 49.1817 57.4309 49.1226C57.4299 48.9928 57.3848 48.8686 57.3051 48.7764C57.2255 48.6842 57.1176 48.6314 57.0044 48.6292C56.8915 48.6334 56.7843 48.6867 56.7044 48.7784C56.6245 48.87 56.578 48.9931 56.5743 49.1226V49.2998C56.5229 49.8017 57.1772 49.9493 57.372 49.5486C57.5773 49.22 57.7675 48.8793 57.9419 48.528C58.0542 48.1392 58.2059 47.7669 58.394 47.4188C58.5825 47.1993 58.7279 46.9361 58.8205 46.6469C58.8419 46.4522 58.8234 46.2543 58.7666 46.0691C58.7098 45.8839 58.6163 45.7165 58.4933 45.5799C58.1489 45.1982 57.7481 44.8898 57.3096 44.6689C57.1069 44.5455 56.9127 44.4045 56.7287 44.2472L56.6221 44.1375C56.5941 44.1105 56.5693 44.0793 56.5486 44.0447C56.5486 44.0447 56.4861 43.9098 56.5192 43.9941C56.5192 43.9688 56.4861 43.8043 56.4934 43.8971C56.4567 43.2729 55.6001 43.2645 55.6369 43.8971L55.6406 43.9266Z" fill="black"/>
<path d="M57.0048 49.9999C56.9324 50.0003 56.8604 49.9875 56.7916 49.9619C56.6661 49.9242 56.5569 49.8353 56.4845 49.7118C56.4121 49.5884 56.3814 49.4389 56.3982 49.2914V49.2112H56.3578L56.4129 49.0973C56.4223 48.9783 56.4571 48.8637 56.5141 48.7637C56.5712 48.6637 56.6488 48.5813 56.7401 48.5238C56.8508 48.368 56.9435 48.1965 57.0158 48.0134C57.0489 47.9206 57.0783 47.8279 57.1077 47.7351C57.1916 47.4384 57.3076 47.155 57.4533 46.8916C57.5158 46.7861 57.5856 46.6849 57.6555 46.5879L57.7547 46.4445C57.7005 46.3612 57.6361 46.2874 57.5636 46.2252C57.3645 46.0696 57.157 45.9287 56.9423 45.8034C56.2732 45.3817 55.5122 44.9304 55.4497 43.9224C55.4405 43.8108 55.4574 43.6983 55.4987 43.5967C55.5401 43.4951 55.6044 43.4081 55.685 43.3446C55.781 43.2752 55.8909 43.2352 56.0042 43.2286C56.1175 43.2219 56.2304 43.2488 56.332 43.3067C56.4601 43.3776 56.5618 43.4988 56.6188 43.6483L56.6703 43.9098C56.6801 43.9303 56.6911 43.9501 56.7033 43.9688L56.7291 43.9941L56.8246 44.0953C57.0006 44.241 57.1862 44.3707 57.3798 44.4834L57.5746 44.6057C57.9643 44.8097 58.3172 45.0958 58.615 45.4492C58.7618 45.6095 58.8721 45.8087 58.9362 46.0293C59.0003 46.2499 59.0162 46.4851 58.9826 46.7144C58.9167 46.9719 58.7982 47.2075 58.637 47.4019C58.6003 47.4567 58.5598 47.5073 58.523 47.5664C58.3875 47.7974 58.2799 48.0486 58.2032 48.3129C58.1665 48.4183 58.1334 48.5238 58.093 48.6292C57.9999 48.8554 57.8852 49.0689 57.7511 49.266C57.6886 49.3673 57.6261 49.4601 57.5709 49.5613V49.5781L57.5231 49.6625C57.471 49.7669 57.3955 49.8533 57.3043 49.9127C57.2131 49.972 57.1096 50.0022 57.0048 49.9999ZM56.7622 49.3251C56.7566 49.3757 56.7679 49.4268 56.7938 49.4682C56.8197 49.5097 56.8583 49.5384 56.9018 49.5486C56.956 49.5737 57.0159 49.5778 57.0723 49.5603C57.1287 49.5427 57.1786 49.5046 57.2143 49.4516L56.7622 49.3251ZM56.9276 48.9371L57.2658 49.0425C57.255 49.0145 57.2401 48.9888 57.2217 48.9666C57.1913 48.9281 57.1536 48.8982 57.1115 48.8792C57.0694 48.8602 57.0241 48.8526 56.9791 48.8569L56.9276 48.9371ZM57.218 48.4731C57.3253 48.517 57.4214 48.591 57.4974 48.6882C57.5325 48.7326 57.5622 48.7823 57.5856 48.8359C57.6599 48.7167 57.7239 48.5896 57.7768 48.4563C57.8135 48.3551 57.8503 48.2538 57.8834 48.1526C57.9709 47.8531 58.0947 47.5691 58.251 47.3091C58.2914 47.2458 58.3355 47.1868 58.376 47.1278C58.4996 46.9839 58.5927 46.8092 58.648 46.6174C58.6633 46.455 58.6453 46.2908 58.5955 46.1378C58.5457 45.9848 58.4656 45.8472 58.3613 45.736C58.0913 45.4244 57.7735 45.1728 57.4239 44.9937L57.2253 44.8714C57.0126 44.7494 56.8085 44.6084 56.6151 44.4496L56.5269 44.361C56.4865 44.323 56.4507 44.2791 56.4203 44.2303C56.4019 44.2041 56.3858 44.1759 56.3725 44.146C56.3995 44.1806 56.4356 44.2043 56.4754 44.2134C56.5152 44.2226 56.5564 44.2166 56.593 44.1966L56.5232 44.0363V44.1164V44.0363L56.3651 44.1122L56.2953 43.9309L56.321 43.9098C56.3148 43.8668 56.2995 43.8263 56.2764 43.7917C56.2533 43.7571 56.2232 43.7296 56.1887 43.7115C56.1456 43.6853 56.0977 43.6716 56.049 43.6716C56.0003 43.6716 55.9523 43.6853 55.9093 43.7115C55.881 43.7332 55.859 43.764 55.8459 43.8C55.8328 43.8361 55.8293 43.8757 55.8358 43.914C55.8836 44.6858 56.5195 45.0738 57.1334 45.4492C57.3609 45.5724 57.5807 45.7134 57.7915 45.8709C57.9647 46.0086 58.1 46.2003 58.1812 46.4234L58.0782 46.4656L58.1554 46.5331C58.1419 46.5532 58.1296 46.5743 58.1187 46.5963L58.0635 46.6891L57.9606 46.8367C57.8944 46.9295 57.8319 47.0181 57.7731 47.1151C57.6465 47.3474 57.5452 47.5967 57.4717 47.8574L57.3724 48.1442C57.3311 48.2611 57.2794 48.3727 57.218 48.4774V48.4731Z" fill="black"/>
</svg>
