<svg width="18" height="18" viewBox="0 0 18 18" fill="none" xmlns="http://www.w3.org/2000/svg">
<path d="M8.99933 0.0182495C4.03932 0.0182495 0.0175781 4.03999 0.0175781 9.00001C0.0175781 13.96 4.03932 17.9818 8.99933 17.9818C13.9593 17.9818 17.9811 13.96 17.9811 9.00001C17.9811 4.03999 13.9593 0.0182495 8.99933 0.0182495ZM8.99933 16.4581C4.88136 16.4581 1.54127 13.118 1.54127 9.00001C1.54127 7.21568 2.16879 5.57571 3.21532 4.2926L13.7067 14.784C12.4236 15.8306 10.7837 16.4581 8.99933 16.4581ZM14.7833 13.7074L4.29193 3.216C5.57504 2.16946 7.21501 1.54194 8.99933 1.54194C13.1173 1.54194 16.4574 4.88203 16.4574 9.00001C16.4574 10.7843 15.8299 12.4243 14.7833 13.7074Z" fill="white"/>
</svg>
