<svg width="15" height="20" viewBox="0 0 15 20" fill="none" xmlns="http://www.w3.org/2000/svg">
<path d="M7.15452 8.85652C9.38451 8.85652 11.1923 7.04876 11.1923 4.81876C11.1923 2.58877 9.38451 0.781006 7.15452 0.781006C4.92453 0.781006 3.11676 2.58877 3.11676 4.81876C3.11676 7.04876 4.92453 8.85652 7.15452 8.85652Z" fill="#0F63C7"/>
<path d="M8.86701 9.13135H5.44112C2.59122 9.13135 0.272034 11.4503 0.272034 14.3007V18.4913L0.282587 18.5568L0.571518 18.6471C3.2915 19.4967 5.65501 19.7807 7.60036 19.7807C11.3994 19.7807 13.6018 18.697 13.7383 18.6283L14.008 18.4913H14.0363V14.3007C14.0366 11.4503 11.7179 9.13135 8.86701 9.13135ZM7.95214 17.2639L7.21293 18.3457C7.20285 18.3605 7.1869 18.3692 7.16931 18.3692C7.16884 18.3692 7.16837 18.3692 7.1679 18.3692C7.15055 18.3692 7.1339 18.36 7.12428 18.3448L6.4376 17.2622C6.43174 17.2531 6.42893 17.242 6.4294 17.2303L6.77297 11.9763C6.77485 11.9484 6.79759 11.9273 6.82574 11.9273H7.53845C7.56636 11.9273 7.58934 11.9484 7.59168 11.9763L7.96082 17.2298C7.96223 17.2423 7.95871 17.2538 7.95214 17.2639ZM7.61772 11.7683H6.77039L6.03376 10.2458C6.03376 10.0997 6.15196 9.98196 6.29806 9.98196H8.06706C8.2127 9.98196 8.3309 10.0997 8.3309 10.2458L7.61772 11.7683Z" fill="#0F63C7"/>
</svg>
