<svg width="4" height="9" viewBox="0 0 4 9" fill="none" xmlns="http://www.w3.org/2000/svg">
<path d="M3.63647 7.26453C3.60268 7.21509 3.53786 7.1975 3.48373 7.22312C2.88493 7.50623 2.20531 7.80555 2.07192 7.83171C2.06855 7.82871 2.06322 7.82324 2.05623 7.81378C2.03815 7.78932 2.02936 7.75738 2.02936 7.71609C2.02936 7.3778 2.28501 6.34869 2.78918 4.65749C3.21427 3.23654 3.26343 2.94233 3.26343 2.84465C3.26343 2.69385 3.20562 2.56644 3.0962 2.47616C2.99226 2.39055 2.84703 2.34717 2.66458 2.34717C2.36109 2.34717 2.00934 2.46224 1.58921 2.69899C1.18209 2.92848 0.72806 3.31719 0.239802 3.85429C0.201582 3.89636 0.197587 3.95925 0.23018 4.00582C0.262821 4.0524 0.323354 4.07014 0.375995 4.04873C0.547411 3.97886 1.40888 3.62641 1.53445 3.54763C1.63727 3.48325 1.72628 3.45058 1.79902 3.45058C1.80162 3.45058 1.80387 3.45068 1.80574 3.45082C1.80662 3.45564 1.80745 3.46299 1.80745 3.47352C1.80745 3.54765 1.79217 3.63541 1.76224 3.73392C1.02814 6.10941 0.671303 7.56567 0.671303 8.18596C0.671303 8.40487 0.732225 8.58111 0.852341 8.70971C0.974747 8.84092 1.13985 8.90743 1.34308 8.90743C1.55966 8.90743 1.82326 8.81707 2.14889 8.6312C2.464 8.45136 2.94495 8.05575 3.61929 7.42164C3.66297 7.3806 3.67025 7.31396 3.63647 7.26453Z" fill="#B7B7B7"/>
<path d="M3.61296 0.382336C3.49299 0.259694 3.33948 0.19751 3.15674 0.19751C2.92922 0.19751 2.73106 0.287308 2.56783 0.464422C2.4072 0.638617 2.32574 0.85237 2.32574 1.09972C2.32574 1.29516 2.38574 1.45711 2.50405 1.58107C2.62395 1.7069 2.77539 1.77069 2.95412 1.77069C3.17233 1.77069 3.36942 1.67585 3.53989 1.48881C3.70738 1.30506 3.79232 1.08902 3.79232 0.846702C3.79235 0.660489 3.73201 0.504273 3.61296 0.382336Z" fill="#B7B7B7"/>
</svg>
