<svg width="18" height="19" viewBox="0 0 18 19" fill="none" xmlns="http://www.w3.org/2000/svg">
<path d="M8.99986 1.64905C4.73267 1.64905 1.27344 5.10397 1.27344 9.36584C1.2783 13.6257 4.73471 17.0778 8.99986 17.0826C13.2671 17.0826 16.7263 13.6277 16.7263 9.36584C16.7263 5.10397 13.2671 1.64905 8.99986 1.64905ZM8.99986 16.4396C5.08829 16.4396 1.91732 13.2725 1.91732 9.36584C1.92173 5.46095 5.09013 2.2965 8.99986 2.29209C12.9114 2.29209 16.0824 5.4591 16.0824 9.3658C16.0824 13.2725 12.9115 16.4396 8.99986 16.4396Z" fill="#FFFEFE"/>
<path d="M10.6363 12.0781C10.6025 12.0287 10.5377 12.0111 10.4836 12.0367C9.88475 12.3198 9.20512 12.6192 9.07173 12.6453C9.06837 12.6423 9.06304 12.6368 9.05604 12.6274C9.03797 12.6029 9.02918 12.571 9.02918 12.5297C9.02918 12.1914 9.28483 11.1623 9.78899 9.47109C10.2141 8.05013 10.2632 7.75592 10.2632 7.65824C10.2632 7.50745 10.2054 7.38004 10.096 7.28976C9.99208 7.20415 9.84685 7.16077 9.66439 7.16077C9.3609 7.16077 9.00915 7.27584 8.58903 7.51259C8.18191 7.74208 7.72788 8.13078 7.23962 8.66789C7.2014 8.70996 7.1974 8.77285 7.23 8.81941C7.26264 8.866 7.32317 8.88374 7.37581 8.86233C7.54723 8.79246 8.4087 8.44 8.53427 8.36123C8.63709 8.29685 8.7261 8.26418 8.79883 8.26418C8.80144 8.26418 8.80368 8.26428 8.80556 8.26442C8.80643 8.26924 8.80726 8.27659 8.80726 8.28712C8.80726 8.36125 8.79199 8.44901 8.76205 8.54751C8.02796 10.923 7.67112 12.3793 7.67112 12.9996C7.67112 13.2185 7.73204 13.3947 7.85216 13.5233C7.97456 13.6545 8.13967 13.721 8.3429 13.721C8.55948 13.721 8.82307 13.6307 9.14871 13.4448C9.46382 13.265 9.94477 12.8693 10.6191 12.2352C10.6628 12.1942 10.6701 12.1276 10.6363 12.0781Z" fill="#FFFEFE"/>
<path d="M10.6124 5.19593C10.4924 5.07329 10.3389 5.01111 10.1562 5.01111C9.92867 5.01111 9.73051 5.10091 9.56728 5.27802C9.40665 5.45222 9.3252 5.66597 9.3252 5.91332C9.3252 6.10875 9.38519 6.27071 9.50351 6.39467C9.6234 6.5205 9.77484 6.58429 9.95357 6.58429C10.1718 6.58429 10.3689 6.48945 10.5393 6.30241C10.7068 6.11866 10.7918 5.90262 10.7918 5.6603C10.7918 5.47409 10.7315 5.31787 10.6124 5.19593Z" fill="#FFFEFE"/>
</svg>
