<svg width="17" height="21" viewBox="0 0 17 21" fill="none" xmlns="http://www.w3.org/2000/svg">
<path d="M5.84286 2.90131C5.84286 1.35662 7.03262 0.104248 8.50028 0.104248C9.96752 0.104248 11.1573 1.35662 11.1573 2.90131C11.1573 4.44599 9.96752 5.69836 8.50028 5.69836C7.03262 5.69836 5.84286 4.44599 5.84286 2.90131ZM9.77711 7.604C9.80398 6.99503 10.0029 6.43123 10.3236 5.96502C10.0986 5.91546 9.86627 5.88915 9.62774 5.88915H7.37302C7.13532 5.88915 6.90304 5.91524 6.6793 5.96436C7.02033 6.46237 7.22449 7.07025 7.22782 7.72856C7.64197 7.48844 8.11758 7.35182 8.62298 7.35182C9.03297 7.35182 9.42316 7.44173 9.77711 7.604ZM10.2271 7.85487C10.9989 8.36428 11.5402 9.22632 11.6387 10.2269C11.9535 10.3818 12.3029 10.4708 12.6733 10.4708C14.0255 10.4708 15.1215 9.3171 15.1215 7.8939C15.1215 6.47049 14.0255 5.3168 12.6733 5.3168C11.3339 5.31702 10.2475 6.45009 10.2271 7.85487ZM8.62298 13.1317C9.97523 13.1317 11.0712 11.9775 11.0712 10.5543C11.0712 9.13136 9.97502 7.97745 8.62298 7.97745C7.27094 7.97745 6.17431 9.13136 6.17431 10.5543C6.17431 11.9778 7.27115 13.1317 8.62298 13.1317ZM9.66149 13.3071H7.58406C5.85557 13.3071 4.44937 14.7875 4.44937 16.6068V19.2812L4.45583 19.3229L4.63082 19.3808C6.28035 19.9231 7.71343 20.1042 8.89297 20.1042C11.1969 20.1042 12.5322 19.413 12.6145 19.3687L12.7781 19.2815H12.7956V16.6068C12.7962 14.7875 11.39 13.3071 9.66149 13.3071ZM13.7122 10.6469H11.6508C11.6285 11.5151 11.2764 12.2966 10.7196 12.8591C12.256 13.34 13.3801 14.8395 13.3801 16.6109V17.4353C15.4155 17.3565 16.5883 16.7493 16.6656 16.7087L16.8292 16.6215H16.8467V13.9463C16.8467 12.1271 15.4405 10.6469 13.7122 10.6469ZM4.32729 10.4708C4.80623 10.4708 5.25184 10.3239 5.62933 10.0732C5.74933 9.24934 6.1689 8.52941 6.76825 8.03907C6.77075 7.99083 6.77513 7.94302 6.77513 7.89434C6.77513 6.47092 5.67891 5.31723 4.32729 5.31723C2.97483 5.31723 1.87904 6.47092 1.87904 7.89434C1.87883 9.31732 2.97483 10.4708 4.32729 10.4708ZM6.52576 12.8591C5.97161 12.2997 5.62079 11.5219 5.59516 10.6594C5.51871 10.6535 5.44309 10.6469 5.36517 10.6469H3.28795C1.55946 10.6469 0.153259 12.1271 0.153259 13.9463V16.6208L0.159717 16.6623L0.334712 16.7201C1.658 17.1552 2.839 17.3554 3.8648 17.4188V16.6109C3.86522 14.8395 4.98914 13.34 6.52576 12.8591Z" fill="white"/>
</svg>
