<svg width="506" height="213" viewBox="0 0 506 213" fill="none" xmlns="http://www.w3.org/2000/svg">
<path d="M97.8281 191.141V164.984H27.2344C18.3281 164.984 11.625 162.969 7.125 158.938C2.71875 154.906 0.515625 149.422 0.515625 142.484C0.515625 140.703 0.84375 138.922 1.5 137.141C2.15625 135.266 3.14062 133.344 4.45312 131.375C5.76562 129.312 7.125 127.344 8.53125 125.469C9.9375 123.594 11.6719 121.297 13.7344 118.578L88.2656 18.875C93.1406 12.3125 97.125 7.57812 100.219 4.67188C103.406 1.67188 107.203 0.171875 111.609 0.171875C125.859 0.171875 132.984 8.32812 132.984 24.6406V133.484H139.031C146.25 133.484 152.016 134.469 156.328 136.438C160.734 138.406 162.938 142.719 162.938 149.375C162.938 154.812 161.156 158.797 157.594 161.328C154.031 163.766 148.688 164.984 141.562 164.984H132.984V191.141C132.984 198.359 131.391 203.75 128.203 207.312C125.016 210.781 120.75 212.516 115.406 212.516C110.156 212.516 105.891 210.734 102.609 207.172C99.4219 203.516 97.8281 198.172 97.8281 191.141ZM37.3594 133.484H97.8281V51.7812L37.3594 133.484Z" fill="#195BA7"/>
<path d="M325.781 107.891C325.781 123.266 324.844 136.484 322.969 147.547C321.094 158.609 317.625 168.641 312.562 177.641C306.188 188.703 297.938 197.234 287.812 203.234C277.688 209.234 266.438 212.234 254.062 212.234C239.812 212.234 227.016 208.203 215.672 200.141C204.422 192.078 195.938 180.922 190.219 166.672C187.312 158.891 185.156 150.312 183.75 140.938C182.438 131.469 181.781 121.25 181.781 110.281C181.781 96.125 182.531 83.375 184.031 72.0312C185.531 60.6875 187.875 50.9375 191.062 42.7812C196.594 29.2812 204.609 19.0156 215.109 11.9844C225.703 4.85938 238.312 1.29688 252.938 1.29688C262.594 1.29688 271.359 2.89062 279.234 6.07812C287.109 9.17188 294 13.7656 299.906 19.8594C305.906 25.8594 310.969 33.3125 315.094 42.2188C322.219 57.6875 325.781 79.5781 325.781 107.891ZM287.25 105.078C287.25 87.9219 286.219 73.9062 284.156 63.0312C282.094 52.0625 278.625 43.8125 273.75 38.2812C268.875 32.6562 262.125 29.8438 253.5 29.8438C241.125 29.8438 232.5 36.0781 227.625 48.5469C222.844 61.0156 220.453 80.2344 220.453 106.203C220.453 123.828 221.484 138.266 223.547 149.516C225.609 160.766 229.078 169.297 233.953 175.109C238.828 180.828 245.438 183.688 253.781 183.688C262.406 183.688 269.156 180.688 274.031 174.688C278.906 168.688 282.328 160.109 284.297 148.953C286.266 137.797 287.25 123.172 287.25 105.078Z" fill="#195BA7"/>
<path d="M440.391 191.141V164.984H369.797C360.891 164.984 354.188 162.969 349.688 158.938C345.281 154.906 343.078 149.422 343.078 142.484C343.078 140.703 343.406 138.922 344.062 137.141C344.719 135.266 345.703 133.344 347.016 131.375C348.328 129.312 349.688 127.344 351.094 125.469C352.5 123.594 354.234 121.297 356.297 118.578L430.828 18.875C435.703 12.3125 439.688 7.57812 442.781 4.67188C445.969 1.67188 449.766 0.171875 454.172 0.171875C468.422 0.171875 475.547 8.32812 475.547 24.6406V133.484H481.594C488.812 133.484 494.578 134.469 498.891 136.438C503.297 138.406 505.5 142.719 505.5 149.375C505.5 154.812 503.719 158.797 500.156 161.328C496.594 163.766 491.25 164.984 484.125 164.984H475.547V191.141C475.547 198.359 473.953 203.75 470.766 207.312C467.578 210.781 463.312 212.516 457.969 212.516C452.719 212.516 448.453 210.734 445.172 207.172C441.984 203.516 440.391 198.172 440.391 191.141ZM379.922 133.484H440.391V51.7812L379.922 133.484Z" fill="#195BA7"/>
</svg>
