<svg width="1170" height="98" viewBox="0 0 1170 98" fill="none" xmlns="http://www.w3.org/2000/svg">
<path d="M393.356 69.396H362.945C359.458 69.396 356.115 68.2488 353.649 66.2069C351.184 64.165 349.799 61.3956 349.799 58.5079V39.1987C349.796 37.623 350.208 36.0657 351.006 34.6351C351.803 33.2044 352.967 31.9347 354.417 30.9142C356.792 29.2318 359.816 28.3093 362.941 28.3137H393.353L393.356 69.396Z" fill="#72A4C8"/>
<path d="M464.24 90.8591H403.502C401.271 90.8591 399.062 90.4951 397.001 89.7879C394.94 89.0807 393.067 88.0441 391.49 86.7374C389.912 85.4306 388.661 83.8793 387.808 82.1721C386.954 80.4648 386.515 78.6351 386.516 76.7873V20.9193C386.516 17.1881 388.305 13.6096 391.491 10.9712C394.676 8.33281 398.997 6.85059 403.502 6.85059H464.24V90.8591Z" fill="#195BA7"/>
<path d="M464.252 1.84707V95.8596C464.252 96.8797 465.25 97.7067 466.482 97.7067H475.395C476.627 97.7067 477.626 96.8797 477.626 95.8596V1.84707C477.626 0.826958 476.627 -3.05176e-05 475.395 -3.05176e-05H466.482C465.25 -3.05176e-05 464.252 0.826958 464.252 1.84707Z" fill="#3A6BA4"/>
<path d="M477.625 36.2458V21.9279H518.967C520.102 21.9279 521.226 22.1131 522.275 22.473C523.324 22.8328 524.277 23.3603 525.079 24.0253C525.882 24.6902 526.518 25.4796 526.952 26.3484C527.386 27.2171 527.609 28.1481 527.609 29.0883C527.609 30.9866 526.698 32.8071 525.078 34.1494C523.457 35.4917 521.259 36.2458 518.967 36.2458H477.625Z" fill="#3D3D3D"/>
<path d="M527.609 68.6212C527.609 70.5195 526.699 72.3401 525.078 73.6823C523.458 75.0246 521.259 75.7787 518.968 75.7787H477.626V61.4608H518.968C521.259 61.4608 523.458 62.2148 525.078 63.5571C526.699 64.8994 527.609 66.72 527.609 68.6183V68.6212Z" fill="#3D3D3D"/>
<path d="M464.24 90.8591H403.502C401.271 90.8591 399.062 90.4951 397.001 89.7879C394.94 89.0807 393.067 88.0441 391.49 86.7374C389.912 85.4306 388.661 83.8793 387.808 82.1721C386.954 80.4648 386.515 78.6351 386.516 76.7873V20.9193C386.516 17.1881 388.305 13.6096 391.491 10.9712C394.676 8.33281 398.997 6.85059 403.502 6.85059C408.56 67.1752 464.24 72.7225 464.24 72.7225V90.8591Z" fill="#3A6BA4"/>
<path d="M464.252 90.8592V6.85059H459.355V90.8592H464.252Z" fill="#72A4C8"/>
<path d="M438.564 90.8591H403.494C401.263 90.8591 399.054 90.4951 396.993 89.7879C394.932 89.0807 393.059 88.0441 391.482 86.7374C389.904 85.4306 388.653 83.8793 387.8 82.1721C386.946 80.4648 386.507 78.6351 386.508 76.7873V37.5673C386.515 77.1731 438.564 90.8591 438.564 90.8591Z" fill="#72A4C8"/>
<path d="M386.52 69.396V28.3137H383.343V69.396H386.52Z" fill="#3D3D3D"/>
<path d="M483.678 36.2458V21.9279H477.625V36.2458H483.678Z" fill="#15212D"/>
<path d="M483.682 75.7787V61.4608H477.629V75.7787H483.682Z" fill="#15212D"/>
<path d="M386.515 69.3959H362.945C359.458 69.3959 356.115 68.2488 353.649 66.2069C351.184 64.165 349.799 61.3956 349.799 58.5079V39.1987C349.796 37.6229 350.208 36.0656 351.006 34.635C351.803 33.2044 352.967 31.9347 354.417 30.9142C349.96 61.0112 386.512 65.6076 386.512 65.6076L386.515 69.3959Z" fill="#3D3D3D"/>
<path d="M753.738 69.396H784.15C787.636 69.396 790.98 68.2488 793.445 66.2069C795.911 64.165 797.296 61.3956 797.296 58.5079V39.1987C797.298 37.623 796.886 36.0657 796.089 34.6351C795.291 33.2044 794.127 31.9347 792.678 30.9142C790.303 29.2318 787.279 28.3093 784.153 28.3137H753.742L753.738 69.396Z" fill="#72A4C8"/>
<path d="M682.854 90.8591H743.603C745.834 90.8591 748.043 90.4951 750.104 89.7879C752.165 89.0807 754.038 88.0441 755.615 86.7374C757.193 85.4306 758.444 83.8793 759.297 82.1721C760.151 80.4648 760.59 78.6351 760.589 76.7873V20.9193C760.589 17.1881 758.8 13.6096 755.614 10.9712C752.428 8.33281 748.108 6.85059 743.603 6.85059H682.854V90.8591Z" fill="#195BA7"/>
<path d="M669.473 1.84707V95.8596C669.473 96.8797 670.471 97.7067 671.703 97.7067H680.616C681.848 97.7067 682.846 96.8797 682.846 95.8596V1.84707C682.846 0.826958 681.848 -3.05176e-05 680.616 -3.05176e-05H671.703C670.471 -3.05176e-05 669.473 0.826958 669.473 1.84707Z" fill="#3A6BA4"/>
<path d="M682.854 90.8591H743.603C745.834 90.8591 748.043 90.4951 750.104 89.7879C752.165 89.0807 754.038 88.0441 755.615 86.7374C757.193 85.4306 758.444 83.8793 759.297 82.1721C760.151 80.4648 760.59 78.6351 760.589 76.7873V20.9193C760.589 17.1881 758.8 13.6096 755.614 10.9712C752.428 8.33281 748.108 6.85059 743.603 6.85059C738.534 67.1752 682.854 72.7225 682.854 72.7225V90.8591Z" fill="#3A6BA4"/>
<path d="M687.742 90.8592V6.85071H682.845V90.8592H687.742Z" fill="#72A4C8"/>
<path d="M708.529 90.8591H743.599C745.83 90.8591 748.039 90.4951 750.1 89.7879C752.161 89.0807 754.034 88.0441 755.612 86.7374C757.189 85.4306 758.44 83.8793 759.294 82.1721C760.147 80.4648 760.586 78.6351 760.585 76.7873V37.5673C760.578 77.1731 708.529 90.8591 708.529 90.8591Z" fill="#72A4C8"/>
<path d="M763.754 69.393V28.3108H760.577V69.393H763.754Z" fill="#3D3D3D"/>
<path d="M760.578 69.3959H784.149C787.635 69.3959 790.979 68.2488 793.444 66.2069C795.91 64.165 797.295 61.3956 797.295 58.5079V39.1987C797.297 37.6229 796.885 36.0656 796.088 34.635C795.29 33.2044 794.126 31.9347 792.677 30.9142C797.133 61.0112 760.582 65.6076 760.582 65.6076L760.578 69.3959Z" fill="#3D3D3D"/>
<path d="M350 43H0V55H350V43Z" fill="#535454"/>
<path d="M1170 44H797V56H1170V44Z" fill="#535454"/>
</svg>
