<svg width="18" height="18" viewBox="0 0 18 18" fill="none" xmlns="http://www.w3.org/2000/svg">
  <g clip-path="url(#clip0)">
  <path fill-rule="evenodd" clip-rule="evenodd" d="M10.5837 3.51256C12.5363 5.46518 12.5363 8.63101 10.5837 10.5836C8.63106 12.5363 5.46524 12.5363 3.51261 10.5836C1.55999 8.63101 1.55999 5.46518 3.51261 3.51256C5.46524 1.55994 8.63106 1.55994 10.5837 3.51256ZM11.854 10.6415C13.6159 8.2914 13.4281 4.94277 11.2908 2.80545C8.94764 0.462309 5.14865 0.462309 2.80551 2.80545C0.462361 5.1486 0.462361 8.94759 2.80551 11.2907C5.11662 13.6018 8.84404 13.6334 11.1939 11.3855C11.1989 11.391 11.204 11.3964 11.2093 11.4016L14.7448 14.9372C14.9401 15.1324 15.2567 15.1324 15.452 14.9372C15.6472 14.7419 15.6472 14.4253 15.452 14.2301L11.9164 10.6945C11.8968 10.6749 11.8759 10.6572 11.854 10.6415Z" fill="#252B42"/>
  </g>
  <defs>
  <clipPath id="clip0">
  <rect width="18" height="18" fill="white"/>
  </clipPath>
  </defs>
</svg>
