<svg width="42" height="42" viewBox="0 0 42 42" fill="none" xmlns="http://www.w3.org/2000/svg">
<g filter="url(#filter0_d)">
<circle cx="21" cy="20" r="20" fill="#333333"/>
</g>
<path d="M30.999 14.0181C30.25 14.3645 29.4556 14.592 28.6423 14.693C29.4996 14.157 30.1412 13.3134 30.4476 12.3195C29.6431 12.82 28.761 13.1708 27.8416 13.3606C27.2241 12.6698 26.4056 12.2117 25.5133 12.0575C24.621 11.9032 23.705 12.0615 22.9076 12.5076C22.1103 12.9538 21.4762 13.6629 21.1041 14.5246C20.732 15.3863 20.6426 16.3524 20.8499 17.2727C19.2183 17.1873 17.6222 16.744 16.1651 15.9718C14.708 15.1995 13.4226 14.1156 12.3923 12.7903C12.0276 13.4452 11.8359 14.1896 11.8369 14.9474C11.8369 16.4347 12.561 17.7487 13.6619 18.518C13.0104 18.4966 12.3733 18.3126 11.8036 17.9815V18.0349C11.8038 19.0254 12.1316 19.9854 12.7316 20.7521C13.3316 21.5188 14.1667 22.045 15.0954 22.2414C14.4906 22.4128 13.8565 22.438 13.241 22.3153C13.5028 23.1679 14.0132 23.9136 14.7005 24.4479C15.3879 24.9822 16.2179 25.2784 17.0744 25.295C16.2232 25.9939 15.2486 26.5105 14.2063 26.8154C13.164 27.1202 12.0745 27.2073 11 27.0716C12.8757 28.3327 15.0592 29.0022 17.2892 29C24.8373 29 28.9651 22.463 28.9651 16.7937C28.9651 16.6091 28.9602 16.4224 28.9523 16.2398C29.7558 15.6328 30.4492 14.8808 31 14.0191L30.999 14.0181Z" fill="white"/>
<defs>
<filter id="filter0_d" x="0" y="0" width="42" height="42" filterUnits="userSpaceOnUse" color-interpolation-filters="sRGB">
<feFlood flood-opacity="0" result="BackgroundImageFix"/>
<feColorMatrix in="SourceAlpha" type="matrix" values="0 0 0 0 0 0 0 0 0 0 0 0 0 0 0 0 0 0 127 0" result="hardAlpha"/>
<feOffset dy="1"/>
<feGaussianBlur stdDeviation="0.5"/>
<feColorMatrix type="matrix" values="0 0 0 0 0 0 0 0 0 0 0 0 0 0 0 0 0 0 0.1 0"/>
<feBlend mode="normal" in2="BackgroundImageFix" result="effect1_dropShadow"/>
<feBlend mode="normal" in="SourceGraphic" in2="effect1_dropShadow" result="shape"/>
</filter>
</defs>
</svg>
